<svg id="Branch" xmlns="http://www.w3.org/2000/svg" viewBox="0 0 8025.3 3962.96"><defs><style>.cls-1{fill:#5b2e2e;}</style></defs><path class="cls-1" d="M1862.39,1644.37l-.71.28-.92-.32Z" transform="translate(-504.37 -432.46)"/><path class="cls-1" d="M1108.92,2029.16l-1.29-.21,2.18-.31Z" transform="translate(-504.37 -432.46)"/><path d="M8529.24,3362.05c-2.26-114.33-12.29-232.83-41.06-345.39-25.86,33.41-68.56,41.09-133.5,9.5q-32.85-30.6-66.77-60.84c-39.92-35.39-81.22-70.22-124.84-103.7s-89.57-65.6-139.19-94.83c-37.24-21.83-76.65-42.09-118.78-59.11-27.21-19.59-239.38-186.83-239.38-186.83h-88.83c-46.43-4.75,152.67,188.81-34.67,118.81-45.53-17-95.76-18-143.85-29.21-96.18-22.22-193.51-50.45-295.93-75.9-51.17-12.66-103.59-24.43-157.08-33.91a1605.56,1605.56,0,0,0-162.84-20.71c-109.78-8.23-220.31-3.83-327.47,10.94l-17.3,2.34c-106.07-10-226-24.38-254.4-22.55-47.93,3-95.17-5.88-146-9.73q-38.15-2.68-76.89-9.1-18.91-3.09-37.89-7.06-17.55-14.92-36.21-30.08c-14-18.92-23.24-53-25.78-69.16-.11-.9-.17-1.8-.26-2.71-2.36-1.32-4.74-2.69-7.12-4.1,1.46,14.26,6.39,39.57,12.74,59.69q-19.86-15.57-40.85-31-10.74-7.87-21.75-15.66c-8.22-6.61-15.75-12-22.16-21.05-14.77-20.29-29.18-40.84-43.43-61.53-2.15-3.43-4.86-7.2-6.95-10.11q-3.55-5.19-7.1-10.4a10.08,10.08,0,0,1-.68-11.32c.76-1.3-1.94-3.57-2.79-4.81-1.08-1.59-3.38,6.08-4.46,4.49-8.37-12.32-81.2-119.42-105.11-152.35-3.46-7.73-5.63-11.63-8.07-19.61,0-.08-1.19-2.24-1.19-2.32-2-.58-3.45-3.06-5.23-3.6-.63-.18-1.25-.4-1.87-.59q.78,3.07,1.66,6.13c-1.83-2.47-11-13-12.82-15.43-6.67-2.18-6,3.47-12.53,1q12.36,16.11,24.37,32.48c-2.42-.58-4.82-1.1-7.08-1.66-7.6-1.89-15.39-2.29-23-4a30.72,30.72,0,0,1-3.26,4.69,25.16,25.16,0,0,1,1.53,3.47c6.16,1.38,12.47,2.27,18.58,3.87,3.86,1,7.73,2,11.6,3,6.35,1.58,11.66,6,15.08,9.19q21.15,29.42,41.6,59.4a263.18,263.18,0,0,0-29.66-21.08,24,24,0,0,1-1.05,8.26,259.38,259.38,0,0,1,55.92,49.85q17.79,26.3,35.62,52.58c2,3.12,4.27,6.16,6.5,9.5,14.57,21.34,29.29,42.58,44.36,63.62,13.79,20.79-7.85.66-15-1.85-2.5,1.53-7.76,1.74-5.13,3.66,4.37,3.18,9.08,6.4,17,12.08q29.49,20.19,57.18,41.19c25.42,19.24,49.54,38.8,72.37,58.18-1.79-.46-3.58-.92-5.37-1.41-3.23-.88-6.52-1.62-9.73-2.6s-6.46-1.91-9.68-2.88c-6.47-1.93-13-3.73-19.41-6s-12.92-4.22-19.37-6.49l-19.28-7.16a818.14,818.14,0,0,1-76.21-34.25q-37.51-19.7-73.88-43.66-36.09-24.32-70.64-52.7l-17-14.6c-2.82-2.45-5.69-4.86-8.51-7.36l-8.28-7.67c-5.52-5.15-11.15-10.18-16.62-15.44l-16.23-16.05c-11.34-11.22-22.72-22.91-34.14-34.39-11.63-11.61-23.71-23.41-35.59-35.13q-71.53-69.42-148.27-136-10.27-8.92-20.62-17.8-38.59-33.4-79.86-67.41c-28.65-39.37-47.3-110.11-52.34-143.52a451.22,451.22,0,0,1-1.95-71.07,28,28,0,0,1,3-8.17q3.14-5.42,6.2-10.85c.79-1.4,1.62-2.76,2.47-4.12a22.53,22.53,0,0,1,7.3-5.75c2.66-1.19,5.28-2.41,7.9-3.64.75-.35,1.52-.65,2.26-1a21.49,21.49,0,0,1,4.24-3.29,21.06,21.06,0,0,1,1.39-2.14c.86-1.16,2.62-1.79,3.84-2.51a4.45,4.45,0,0,1-.18-.94,4.21,4.21,0,0,1-1.48-.85c-5.08,2.1-10.45,3.45-15.5,5.75l-.83.35c.44-.74.87-1.52,1.29-2.28a2.33,2.33,0,0,1-.46-.08,3.62,3.62,0,0,1-2.38-1.75,21,21,0,0,0-3.39-.71,3,3,0,0,1-1.65-.19c-.28.15-.57.34-.85.5-3.32,5.68-7.46,10.78-11.17,16.22.84-7.89,1.81-15.79,3.06-23.73.63-3.78,1.35-7.52,2.07-11.26-4.36,5.13-.31-.71-5.66,3.17-6,35-11.54,84.43-9.51,118.38,2.74,29,8.85,86,26.85,125.79q-21.84-17.36-43.95-34.43c-16-13-32.17-25.91-46.69-36.71q-22.08-16.46-44.78-32.74c-16.92-13.79-32.41-25.13-45.57-43.9q-14.53-20.28-28.83-40.73a244.4,244.4,0,0,1-25.09,5.56q5.67,8.13,11.35,16.23Q4871.73,1685,4802,1639c-4.29-4.84-8.59-9.68-13-14.56-10.57-20.17-14.37-54.17-14.43-70a211.38,211.38,0,0,1,3.95-33,12.86,12.86,0,0,1,1.95-3.57c1.21-1.53,2.41-3.07,3.61-4.6.45-.6.93-1.17,1.42-1.74a10.35,10.35,0,0,1,3.77-2.16l3.91-1.15c.36-.11.74-.2,1.1-.3a10.31,10.31,0,0,1,2.19-1.22,9.42,9.42,0,0,1,.79-.9,5.71,5.71,0,0,1,1.95-.9,1.71,1.71,0,0,1,0-.45,2.1,2.1,0,0,1-.62-.49c-2.5.63-5.07.88-7.56,1.6l-.41.11c.26-.32.5-.65.75-1l-.2-.06a1.74,1.74,0,0,1-1-1,1,1,0,0,1-.23-.11,1.64,1.64,0,0,1-1.28-.45,1.41,1.41,0,0,1-.76-.2l-.43.17c-1.92,2.41-4.18,4.48-6.27,6.74.92-3.59,1.92-7.17,3-10.77.55-1.7,1.13-3.38,1.72-5.07-2.37,2.09-.09-.34-2.84,1.09-5.14,15.76-11.09,38.27-12.46,54.12-.73,13.83-1.82,41.26,4.11,61-11.13-11.88-25.48-28.13-37.36-40q-9.09-9.11-18.48-18.2c-6.89-7.52-13.28-13.83-18.09-23.41-11.12-21.59-21.86-43.38-32.43-65.27-1.54-3.62-3.58-7.62-5.14-10.71-10-20.75-19.78-41.58-29.62-62.41-.22-1-4.47-7.93-1.06-21.1-2.83-.2-2.1-1.9-3.76-2.44-.12,1.77-2.7,5.63-2.82,7.39-16.83-35.52-33.85-71-51.85-106a197.42,197.42,0,0,1-5-23.89c-1.3-7.43,3.9-11.38,2.84-12.54-1.42-.85-.63-1.16-1.55-2-.74,2-1.75,3.6-2.36,5.62-3.58-36.79,3.78-73.33,23-103.39a25.35,25.35,0,0,1-1.35-6.06,147,147,0,0,0-11.48,19.38,91.82,91.82,0,0,0-.5-23.91c-.79.39-1.59.77-2.41,1.12a89.71,89.71,0,0,1-3.06,36.65c-10.18,27.16-13.11,57.53-9.22,87.69-1.47-2.77-3-5.54-4.44-8.3a36.74,36.74,0,0,1-1.84,4c10.63,21.76,11.22,37.16-.3,23.49-.06.9-.6,3.61-.25,5.14,5,3.49,11,7,13.36,12.51,10.58,20.86,25.66,50.88,35.79,72,.69,4.1-3.53-1-9.24-5.73,1,3,1,3,2.6,6.88,8.31,10.18,9.61,7.07,20.48,29,8.76,18.52,17.48,37,26.3,55.57,1.45,3.28,3.17,6.52,4.8,10,10.78,22.56,21.72,45.06,33,67.41q-8.37-7.58-16.91-15.06a6.78,6.78,0,0,1-1.66,2c-1.21,1-2.33,2.06-3.55,3a51.06,51.06,0,0,0,.27,5.39c.11.73.2,1.47.3,2.2,22.75,20.7,44.52,41.85,65.1,63.14,8.8,9.07,17.31,18.17,25.68,27.26q-56.3-36.5-112.71-71.62c-58.43-36.48-116.76-71.88-174.51-106.48-8.62-11-16-22.23-31.92-39.69-16.77-9.74-16.77-9.74-29.46-16.47,7.54,12.38,15.51,23.57,20.8,31.91-11.73-7-37.57-23.24-69.65-43.73-.88-2.77-1.78-5.51-2.66-8.29-24.43-77-47-156.66-67.26-238.11-1.62-1.19-3.28-2.36-4.91-3.57a139.78,139.78,0,0,0-12.58-7.62c-3.87,1.69-7.88,3-11.82,4.62a18.55,18.55,0,0,1-7,1.36q6.88,30.24,14.24,60.13-58.56-84.1-119.11-166.6c-6.35-8.49-11.91-16.78-17.9-24.54q-49.54-67.71-99.35-135.11c-66.44-113.6-99.87-241.71-90.43-366.63-.32-1.07-.65-2.14-.94-3.22q-5.73-20.21-11.17-40.51c-17,103.71-4.3,212.24,32.66,314.92Q3931.1,712,3905.7,676.46a104.61,104.61,0,0,1-12.76,34.28q48.11,67,97,133.33c-4.39-2-8.81-4-13.2-5.93a78.66,78.66,0,0,1-5.46,17.47c6.25,3.15,12.49,6.33,18.51,9.88q10.93,6.46,21.93,12.83a49.24,49.24,0,0,1,7.08,5q55.92,75.95,111.5,152c5.39,7.76,12.38,17.84,19,26.22q58.34,80.61,114.74,162.42c16.78,23.95,23.64,47.46,32.8,73.75q4.41,15.73,8.94,31.33c-72.45-46.7-155-100.74-184.9-122-23.58-14.66-35.34-43.87-47.81-69.11-6.71-2.63-19.37-2-23.52-2.32,54.32,61.54-15.2,48.43-106.81-14.55a180.39,180.39,0,0,1-19.34,5.67q17.31,12.91,34.7,25.77A897.14,897.14,0,0,0,3755.05,1119q-8.31-2.67-16.61-5.32c-1.23-.39-15.59-31.2-25.3-60.54-.18-.54,11.33-9.32,11.15-9.86s-1.25-.55-1.44-1.1c-.26-.8-11.35,8.29-11.74,7.54-4.34-8.13-9-24.65-10.79-33-4.27-20-3.25-33.85-4-34.08-1.19-.36-1.37.33-1.48,2.52,0,.38,2.94,25,1.94,28.89-.2.77-.74,2.33-.91,3-.46,1.78-7.55-18.33-7.57-18.14-.11,1.9-1.77-2.68-2.77-3-1.57-.51,44.95,115,43.4,114.54-2.36-.74-14.43-4.37-16.79-5.11q-30.3-9.51-60.6-18.91c-36.4-15.72-68.93-38.15-94.78-66-.49-.53-1.22-29.76-1.7-30.29s-1.86,3.63-2.31,3.13c-.73-.81-.26,22.44-1,21.63q-4.25-4.85-8.21-9.9a4.08,4.08,0,0,1-5.2,3c-1-.22-1.82-.44-2.64-.69a278.71,278.71,0,0,0,68.11,64.06q-17.62-5.6-35.17-11.36a44.45,44.45,0,0,1,4.24,14.88q33.17,10.77,66.43,21.11l-6,1.29a33.32,33.32,0,0,1,2.51,7.32c2.92-.5,5.84-1,8.78-1.27,3.57-.36,7.13-.73,10.68-1.13a22.44,22.44,0,0,1,3.66-.07q25.51,7.95,51,15.94A777.41,777.41,0,0,0,3553.71,1135c-57.45,7.88-115.16,4.29-168.46-10.87q-3.2,5.19-6.73,10.18a422,422,0,0,0,108.23,18.44,671.35,671.35,0,0,0-95.76,39,116.51,116.51,0,0,1,26.6,10.22,657.31,657.31,0,0,1,73.41-27.7c-13.07,9.13-24.91,16.38-34.85,21.07a15.46,15.46,0,0,1-1.7,4.86c7.56-3.5,13.5-6,12.21-3.62-6.79,12.29-26.53,30.47-26.29,31.14.43,1.24,1.43.58,2.64,1.28.72.41,23-27.23,35.51-33.88,2.33-1.25-6.17,45.25-3.51,43.82,2.11-1.15,5.13-1,5.31-3.57,1.47-21.45,10.5-44.72,21-52.65,7.69-5.79,15.41-11.8,23.09-17.91,121.41-31.1,251.66-29,378.19,2.64-9.6,1.4-17.71,4.89-27.12,6.92,3.06,4.74,5,1.32,7.89,8.35,4.59,5.6,26-15.3,58.86-4.39a899.1,899.1,0,0,1,105.11,38.91c26.35,18.91,69.8,49.42,116.28,81.82q-15.17-.81-30.31-1.73c-4.8-.51-10.32-.73-14.57-.9-28.22-1.79-56.45-3.77-84.71-5.73a23.31,23.31,0,0,1-3.6-1.48c-3.39-1.77-6.78-3.51-10.18-5.25-2.8-1.43-5.52-3-8.22-4.65a35.36,35.36,0,0,1-5.33,6.29l5.45,3.59c-24.69-1.68-49.41-3.3-74.13-4.71a47.37,47.37,0,0,1-10,13.13q19.65,1.06,39.31,2.31c-48,10.73-92.3,32.12-127.65,63.6,6-1.88,12.05-3.73,18.11-5.53.47-.15,1-.28,1.44-.42,45.24-33.75,102-52,161.27-54.11q28.38,2,56.78,3.9c-22.7,15-43.61,26.68-58.1,31.49a10.46,10.46,0,0,1-1.5,3.12c5.24-1.7,9.33-2.84,8.3-1.37-5.43,7.67-19.82,18.18-19.71,18.65.18.87.89.51,1.63,1.09.44.33,17.24-16.3,26-19.69,1.63-.64-7.62,29.89-5.76,29.15,1.47-.58,3.44-.19,3.76-1.93,2.66-14.29,10.42-29.15,17.95-33.56,13.89-8.15,28-17.14,41.37-26l4.66.32c4.39.4,8.89.51,13.65.88q37.59,2.43,75.25,4.29l6.3,4.39c-5.24,1.81-10.49,3.63-15.74,5.5a8.44,8.44,0,0,1,1.17,3c.34,1.89.8,3.73,1.09,5.61a63.09,63.09,0,0,0,5.94,3l2.55,1q10.53-3.51,21.06-6.88c71.6,49.72,140.2,96.9,156.21,107.3q65.09,44.05,130.35,87.74c-8.08-.67-27.35,8.42-35.44,7.77,1.3,7.93,9.49,5.74,8.51,18.77,62.1-6.61,90.54,17.39,95.07,19q67.09,44.84,134.09,89.72c77.89,54.75,155.17,111.41,230.66,170.16q54.57,42.52,107.79,86.46-11.67-.49-23.42-.9c-18.34-1.76-34.54-2.47-52.58-9.5-41-15.49-81.79-31.69-122.46-48.25-6.43-3-14-5.88-19.85-8.12-38.45-15.76-76.82-31.8-115.23-47.82a32.77,32.77,0,0,1-4.33-3.77q-5.81-6.07-11.69-12.08c-3.23-3.31-6.26-6.83-9.26-10.35a51.32,51.32,0,0,1-10.38,6.25c2,2.52,3.91,5.06,5.89,7.57q-50.35-21-101-41.45a69.2,69.2,0,0,1-20,13.59q26.85,10.76,53.64,21.72a447.26,447.26,0,0,0-111,1.78q-8-2.87-16.05-5.63c-6.54-2.68-12.4-4.75-18.24-9.33q-20-15.37-39.56-31.33c-2-1.81-4.49-3.72-6.37-5.19q-18.54-15.09-37-30.37a12.67,12.67,0,0,1-1.17-1.86c-1-1.92-1.95-3.82-2.94-5.73-.82-1.58-1.54-3.2-2.25-4.83a19.66,19.66,0,0,1-4.5,1.13c.44,1.15.87,2.29,1.32,3.44q-16.14-13.29-32.44-26.44a26.58,26.58,0,0,1-8.86,2.75q8.66,6.93,17.26,13.94c-25.5-10.79-52.83-15.51-79.34-12.65q5.06,1.66,10.11,3.38l.8.29c31.79-.66,63.78,9.6,91.64,28q16.41,13.53,32.85,27.06c1.89,1.63,3.91,3.15,6,4.87q20.1,16.44,40.55,32.5-7.47-2.28-15-4.44a4.84,4.84,0,0,1-.43,1.75c-.47,1-.86,2-1.34,2.93a33.45,33.45,0,0,0,1.76,3.29l.83,1.3c14.69,4.51,29.11,9.34,43.21,14.39a384.68,384.68,0,0,0-77.47,23.48q13.91.32,27.81.81c.73,0,1.47.07,2.21.1,78.84-25.7,166.47-24.33,250,.54q51.21,21.33,102.48,42.66c5.94,2.63,12.15,4.9,18.6,7.65,41.76,17.19,83.66,34.11,125.84,50.41q-20.39,0-40.9.29a12.46,12.46,0,0,1,.23,4.71c-.42,2.78-.63,5.57-1.12,8.32a91.27,91.27,0,0,0,6.88,6.89c1,.86,2,1.74,3.07,2.6,55.55.21,110.31,2.22,163.67,5.83,4,.27,8,.57,12,.85,56.35,47.48,111.21,96.13,164,145.91q71.84,67.64,138.47,137.61l32.62,34.88c11,12,21.74,23.94,32.86,35.85l17.39,18.63c5.87,6.11,11.95,12,17.91,18l9,9c3.05,2.93,6.17,5.79,9.25,8.7,6.19,5.75,12.32,11.56,18.55,17.24q37.8,33.67,78.22,63.4a993.65,993.65,0,0,0,83.51,54,945.49,945.49,0,0,0,87.44,43.61l22.25,9.3c7.44,3,14.94,5.7,22.39,8.53s15,5.37,22.44,7.93l11.21,3.81c3.74,1.29,7.52,2.34,11.27,3.51a895.54,895.54,0,0,0,89.82,23c11.71,2.41,23.37,4.54,35,6.51-41.93,10.14-83.64,20.65-125,32-29.22,8-87.4-53.83-96-51.72-17.2,4.2-20.46,12.31-37.63,16.46-12.87,3.11,103,45.15,17.67,63.39-11.73,2.5-23.34,5.53-35,8.27-94.63,22.19-189,42.74-283.48,59.63-55.74-38.35-114.29-77.08-171.92-112.5-33.39-20.52-66.71-86.94-77.1-150.09-1.27-7.67-10.17-6.28-16.74-9.06-8.26-3.5,30,131.89,22.74,128.86-39-16.22-112.74-91.83-114.75-90.41-3.39,2.42-6.55.73-7.49,4.53-.5,2.05,63.1,50.38,86.68,84.88,4.49,6.58-13.81,1-37.19-7.28a45.83,45.83,0,0,1,6.41,13.92c64.4,23.24,156.69,77.11,256.7,146.18q-52.33,8.55-104.71,15.37c-98.54,12.55-197.15,19.8-295,18.6s-194.92-10.91-289.23-31.79c-19.89-4.33-39.61-9.27-59.19-14.69q-41.46-31.68-85.45-59.17C4350.05,2530.29,4249,2321.91,4307,2109c2.65-9.24,5.5-18.33,8.69-27.43q3.2-9,5.95-18.07c.31-1.07,16.61-10.94,16.92-12s-1.2-.73-.93-1.67c.32-1.13-13.57,5.41-13.26,4.27q3.35-12.07,6-24.3a17.26,17.26,0,0,1-9.07-6.9,464.3,464.3,0,0,1-16.88,55.63c-32.33,89-35.29,179.55-15.45,265.22q-4.95-5.8-10.11-11.4A198.19,198.19,0,0,1,4242,2260.2c-1.95,0-3.9-.13-5.85-.28a202.59,202.59,0,0,0,19,49.17,322,322,0,0,0-39.6-29.92,56.43,56.43,0,0,1,2.32,13.49,316.25,316.25,0,0,1,29.45,23.47,119.31,119.31,0,0,1-17.25-9.2,7.25,7.25,0,0,1-2.42.49c3.3,2.26,5.77,4.11,4.49,4.15-6.74.22-19.09-3.45-19.3-3.2-.41.49.11.74.12,1.41,0,.4,16.87,2.79,22.69,6.32,1.09.66-20.17,8.57-18.93,9.31,1,.6,1.66,1.89,2.78,1.32,9.2-4.66,21-6.65,26.87-4.26,4.28,1.75,8.66,3.46,13.06,5.13a341.12,341.12,0,0,1,36.53,43c0-.1,0-.21,0-.31,25.41,87.7,74.52,169.55,140.21,238.49a983.71,983.71,0,0,0-140.47-56.24,172.42,172.42,0,0,1,17.58,37.92,975.22,975.22,0,0,1,184,89.56l-.67-.25-36-14-70.82-28.22c-94.71-38.11-190.06-76.81-286.43-113.64s-193.82-72.13-293.61-103.07c-49.93-15.43-100.45-29.77-152.17-41.9-26.52-6.16-53.29-11.84-80.61-16.54-69-20.06-137.71-54.1-202.49-107.13-9-7.4-24.65-18.55-44.69-32.14q-.88-2.26-1.68-4.49l-.72-2c-.28-.81-2.15-8.59,1-11.81,1-1,0-.44-.14-1.33-.3-2.59-4,3.17-4.66.79a161.05,161.05,0,0,1-4.25-20.94,123.16,123.16,0,0,1-1-12.88,94.17,94.17,0,0,1,.61-13.92,76.23,76.23,0,0,1,4.69-19.06l-.4-.37c-.45-.48-.86-1-1.27-1.42l0,0-.15-.25c-.32-.37-.62-.76-.91-1.14a78.44,78.44,0,0,0-6.36,21.73c-.25,1.64-16.25-10.78-17.51-11.81-1.47-1.21-1,1-1.09,2.16-.08,1.35,18.77,8.51,17.54,22.06-.06.71,0,1.42,0,2.13,0,1.46,0,2.89,0,4.32.09,3.14.32,6.17.58,9.08a164.5,164.5,0,0,0,3.73,21.75c.88,3.68,1.93,7.49,3.13,11.39-85-57-236.23-150.4-320.43-199.14-25.39-34.13-56.66-74.65-88.08-110.76-10-11.54-14.69-40.17-11.19-64.9.43-3-3.05-3.53-5.17-5.33-2.67-2.26-4.23,52.62-6.58,50.65-12.63-10.6-31.27-47.37-32.18-47.07-1.55.5-2.52-.49-3.31.81-.43.71,17.61,26.12,22.36,41.73.91,3-5.25-1.25-13-7a17.92,17.92,0,0,1,.77,5.93c26.83,20.41,64.49,64.11,101.54,114.94-105.94-61.41-316.53-146.27-318.92-146.85-24.45-6-91.34-51.42-111.18-60.11.26-6.38.53-12.77.89-19.2-.38-.51-.76-1-1.13-1.52a43,43,0,0,0-3-3.42c-1.3.15-2.62.17-3.94.29a5.73,5.73,0,0,1-2.21-.24c-.49,6.42-.9,12.82-1.28,19.2-6.47-20.27-13.24-40.42-20.13-60.52-1.11-3.11-2-6.09-3.07-9q-8.53-24.7-17.16-49.33c-9.33-39.92-7.51-81.12,6.79-117.42,0-.35,0-.71,0-1q.15-6.54.41-13.08c-14.58,29.3-20.79,62.77-19.23,96.72q-4.41-12.89-8.7-25.81a32.6,32.6,0,0,1-6.94,9q8.16,24.36,16.62,48.59l-3.39-3a24.09,24.09,0,0,1-3.23,4.7c1.58,1.51,3.15,3,4.61,4.64,1.77,1.95,3.55,3.9,5.34,5.83a16.14,16.14,0,0,1,1.66,2.14c6.44,18.49,12.89,37,19.21,55.47.89,2.8,2.05,6.44,3.25,9.55q5.79,17.07,11.35,34.2c-68.93-50.79-121.39-121.5-163-198.83a311.88,311.88,0,0,1,6.69-74c-2-4.3-4-8.45-6.1-12.56a285.88,285.88,0,0,0-7.71,43.17c-1.45-6.3-20.92-53.53-23.18-58.16-.65,1.94-1.33,3.88-2.07,5.79.26.29.52.58.76.87,10.72,23.94,15.75,43.34,19,68.7.53,10.9-4.38,4-5.15,2.42-25.78-51.39-42.27-105.87-60.91-158-3-8.52-14.67-37.84-28.44-86.51-.55-1.93,5.56-26.4,5-28.36-.51-1.8-2-.39-2.48-2.21s-6.68,15.93-7.16,14.23c-6.3-22.2-15.47-54.58-24.83-87.58.2-17.9,2.45-43.82,8.69-81.42.09-.57,2.9-2.68,5.53-4.7a30.74,30.74,0,0,0,1.17-3.38,11.32,11.32,0,0,0,.21-1.64c-1.93.67-5.68,2.46-5.58,1.85q1.49-8.6,3.25-18c.6-3.16-2.55,2.16-5.16.35a287.41,287.41,0,0,0-9.93,44.81c-.08.49-2.33-1.86-4.56-4.17a5.11,5.11,0,0,1,.31,1.21,3.08,3.08,0,0,1,0,.61c0,.16,0,.31,0,.48a3.57,3.57,0,0,1-.28,1.45q.17,1.08.39,2.16a13.76,13.76,0,0,1,.67,3,19.58,19.58,0,0,1,2.29,3.77c-1.45,11.08-2.45,21.74-3.32,31.39-21.08-62.79-44.54-148.7-48.9-196.79.19-5.47.38-11,.53-16.73.29-11.25.43-22.94.4-34.91l-2.73-2.11a10.28,10.28,0,0,1-1.87.29,8,8,0,0,1-1.1-.09c0,11.91-.13,23.56-.43,34.75,0,.74,0,1.46-.06,2.21l-1.63-7.51q-2.4-10.79-5.09-22c.6-2.63,1.29-5.16,1.95-7.72a9.06,9.06,0,0,1-.88-.29c-.23.84-.48,1.67-.7,2.53-.27-1.06-.53-2.12-.8-3.18a9.9,9.9,0,0,1-1.71-1.16,18.66,18.66,0,0,1-9.56-.66q3.75,15,7,29.31c-.4,2.86,13.11,64.31,14.5,71.73-5.74-11.14-11.86-22-18.16-32.45-7.67-12.81-15.55-25.14-23-37.22a16.68,16.68,0,0,1-5-1.36l-.45-.21c-.63.09-1.27.17-1.9.24a16.1,16.1,0,0,1-2.15,8.62c4.92,8.22,10,16.49,15,24.86-9.36-10-19.08-19.63-28.79-28.91-.77.44-1.53.84-2.31,1.22q2.37,3.93,4.84,7.82a19.37,19.37,0,0,1,2,4.07c8.24,8.17,16.38,16.54,24.2,25.27q8.85,9.82,17.15,20.19c4.75,8.8,9.29,17.76,13.52,26.91,6.08,13.09,11.49,26.55,16.33,40.17,7.17,22,14.83,48.08,23.49,78.2l-4.4-6.56c-6.13-8.8-13.42-18.56-22-28.83a432.83,432.83,0,0,0-67.21-64.49c-10-7.78-20.7-15.32-32-22.58a14.71,14.71,0,0,1-.31,3.76c.43.6.86,1.2,1.27,1.8a11.59,11.59,0,0,1,1.87,5.42l.06.1c.37.45,1,1.24,1.21,1.45l.45.44.15.1a38.37,38.37,0,0,1,5.69,4.37,14.18,14.18,0,0,1,1.83,2.28c4.8,3.44,9.48,6.92,14,10.45q6,4.68,11.75,9.43c1.88,1.57,7.92,4.29,5.55,4.7a58.55,58.55,0,0,0-11.34,3l1.81.68a3.07,3.07,0,0,1,1.54,1.29c.23.14.46.23.68.39a3.11,3.11,0,0,1,.44.45l2,1c5.62-.43,11.49-.91,12.14-.33a422.78,422.78,0,0,1,41.08,42.61c8.38,10,15.49,19.55,21.45,28.12,2.9,4.34,5.67,8.35,8,12.17,1.18,1.91,2.37,3.7,3.4,5.46s2.05,3.44,3,5,1.84,3.08,2.61,4.51,1.53,2.75,2.22,4,1.33,2.36,1.9,3.45,1.06,2.06,1.52,3l.23.43c16.15,56.55,35.74,124.77,61.24,204.54-29.25-24.4-53.26-47.76-65.66-65.24a14.3,14.3,0,0,1-4.7-.77c4.41,6.33,7.62,11.36,5.27,10.56-12.32-4.21-32.11-19.28-32.68-19-1.08.6-.3,1.41-.75,2.63-.26.72,28.58,16.56,36.69,26.92,1.52,1.93-42.31,1.71-40.57,3.9,1.39,1.73,1.71,4.52,4.11,4.26,19.82-2.13,42.53,2.34,51.47,10.66,17.16,16,35.64,31.93,53.5,46.78,13.55,41.73,28.68,86.46,45.75,134.21,12.46,34.84-23.18,18.74-22.11,21.23s-3.12,6.7-2,9.24c27.57,5,38.9,24.7,48.45,39.65,66.68,104.45,135.56,162.14,199.07,205.64-39.75-5.91-106.18-26.14-167.64-46.68q-50.36-19.89-100.69-39.74c-60.53-31.58-115.41-71.52-162.05-118.28-2.59-1-5.16-1.91-7.75-2.85-.49-.17-.84-.31-1.14-.42l-.26-.07-.65-.2q-3-.21-6-.55c-2.13-.23-4.25-.5-6.37-.7-.25,0-.54,0-.87,0a27.13,27.13,0,0,1-9.13-1.82,666.65,666.65,0,0,0,88.21,82.79c-57.18-23-114.13-46.3-170.69-70.46-9.73-6.77-23.74-17.48-31.24-32.39-4.57-9.09-9.22-18.13-13.88-27.18-2.32-4.51-4.47-9.12-6.56-13.75a22.68,22.68,0,0,1-5.66-1.45c-.38,0-.75,0-1.12,0-2.39-.09-4.77-.25-7.17-.45a20.41,20.41,0,0,1-9.24,3.57c4.06,10.7,8,21.45,13.23,31.77,2.67,5.3,5.29,11,8.1,16.67q-28.05-12.33-55.94-25c-6.93.16-13.74-.77-20.89-.31a20.58,20.58,0,0,1-11.2-2.55c-1.31.48-2.61,1-3.89,1.58l-.82.38-1,.64c-.57.34-1.11.71-1.66,1.07a20.94,20.94,0,0,1-6.37,10.25q28.75,13.35,57.67,26.33c-79.73-5-158.78,7.9-228.1,39.29-79.37,29-168.9,16.69-225.47-48.25-2.43-2.86-4.77-5.75-7-8.76-1.48-2-3-3.93-4.58-5.84-.28-.34,0-7.77-.24-8.1s-.5.23-.74-.06-1.19,5.58-1.49,5.23q-3.2-3.69-6.6-7.2a6.73,6.73,0,0,1-4.21,1.45,182.38,182.38,0,0,1,14.42,17.53c46.91,63.76,125.11,85.27,200.71,72.06a382.6,382.6,0,0,0-48.68,33.43,67.48,67.48,0,0,1,16.12,2.5c72.63-53.64,163.11-79.35,256.52-78.35l5,2.26a234.36,234.36,0,0,0-55.89,31.88c4-.37,8.14-.6,12.24-.69a227.67,227.67,0,0,1,72.3-32,515.52,515.52,0,0,1,63.51,9c62.33,27,125.07,52.84,188,78.17-25.32,7.2-49.44,17.29-64.28,23.69-26.65,12.59-61.94,37.41-86,56.48-.73,5.69,2,.18-.06,5.62,2.55-2.1,5.1-4.2,7.7-6.25,5.52-4.26,11.12-8.29,16.77-12.21-2.59,5.09-4.75,10.36-7.69,15.24,0,.29,0,.59,0,.86a2.64,2.64,0,0,1,.83,1.18,3,3,0,0,1,1.62,1.94,2.57,2.57,0,0,1,.33.33,3.18,3.18,0,0,1,2.33,1.09c.09.09.16.2.25.31.39-.64.81-1.28,1.2-1.93,0,.26,0,.53.07.78.35,4.8,1.56,9.43,2.07,14.17a3.67,3.67,0,0,1,1.27.77,4.27,4.27,0,0,1,.79-.25c0-1.23-.21-2.82.31-4a21,21,0,0,1,1-1.94,19,19,0,0,1,.74-4.59c-.06-.7-.16-1.41-.2-2.12-.16-2.51-.32-5-.51-7.52a19.21,19.21,0,0,1,1.32-7.94c.68-1.21,1.37-2.42,2.11-3.59,1.89-3.07,3.79-6.14,5.67-9.23a24.49,24.49,0,0,1,5-5.69,391.37,391.37,0,0,1,54.83-28.08c16.55-6.07,45.43-14,74.93-18.18q25.44,10.18,50.9,20.29c-.79,1,42.23,14.76,12.24,12.24a75.42,75.42,0,0,1,4.54,17.07c6.72-.64,13.44-1.25,20.15-1.42q12.21-.33,24.45-.75c1,0,2.1,0,3.14,0,73.3,27.67,143.15,57.72,218.9,84.74,11.8,4.22,23.74,8.64,35.8,12.75-4.81,1.38-9.91,2.69-15.35,3.86-.63.14-6.44-4.31-7.08-4.18-.89.19-1.82,2.08-2.73,2.25s3.67,3.17,2.92,3.31c-4.65.86-9.5,1.62-14.52,2.24,1.43,2.93-.37.28,1.39,3.54,14.17-.34,28.73-4.24,42.34-8.67a302.14,302.14,0,0,0,44.24,11.36c75.12,12.45,157.52,43.17,242.28,84.33-17.64-3.79-35.59-8-53.79-12.65-19.4-5-39-10.51-58.76-16.6-8.13-2.33-12.85-3.79-17.37-5-2.72-.76,0,2.94.28,5.46,5.57,3.51,30.89,7.35,9.34,9.18-22.38,1.12-44.73,2.57-67.06,4.18-3.47.29-6.75.4-9.94.72-18.31,1.34-36.6,2.76-54.88,4.15a224.36,224.36,0,0,1-64-11.08,20.78,20.78,0,0,1-5,5.16,227.41,227.41,0,0,0,30.29,8.77c-20.91,1.47-41.82,2.78-62.73,3.78-4-.63-9.86-1.82-14.35-5.28-2.75-2.11-5.51-4.19-8.27-6.28-4.37-3.29-8.37-7.08-12.63-10.52a21.59,21.59,0,0,1-3.18.83,27,27,0,0,1-1.43,4.74c5.23,4.24,9.7,9.31,15.08,13.45,1.6,1.24,3.24,2.59,4.94,3.91-15,.56-29.91,1-44.87,1.1a76.68,76.68,0,0,1-13.89,5,17.44,17.44,0,0,1-2.09,4.84q10.36.13,20.72.11,14.22-.18,28.43-.63c-25.18,10.33-47.52,26.07-64.13,46a83.23,83.23,0,0,1-14.52,12c-.68,1.44-1.39,2.85-2.16,4.22a85.24,85.24,0,0,0,8.54-5.42,131.15,131.15,0,0,0-10,17.51,23.09,23.09,0,0,1,5.31-1.63c14.88-28.27,40-50.18,70.24-63.68a80.21,80.21,0,0,0-13.71,19.5c1.19-.73,2.4-1.41,3.65-2a78.26,78.26,0,0,1,17.45-20.57,178.34,178.34,0,0,1,20.81-6.69c35.22-1.51,147.14-9.81,160-10.77,1.66-.12-2.31,5.58-.65,5.45,1.31-.09,4.3.52,4.77-.69a8.76,8.76,0,0,1,8.06-5.65l10.88-.78c3.09-.15,7.11-.34,10.6-.74,21.72-1.47,43.43-2.76,65.15-3.68,9.59-.51,17.32,1.68,26.22,3.7q11.22,3.28,22.35,6.32,21.78,6,43.06,11c-17.11,6.55-37,16.88-47.44,23.58a189.11,189.11,0,0,0-30.08,25.8,17.47,17.47,0,0,1-1.07,4.4,8,8,0,0,1,2.18,1.87q2.88-3,5.84-5.88c-.83,2.62-1.45,5.3-2.47,7.86,0,.14,0,.28.06.41a1.24,1.24,0,0,1,.49.5,1.48,1.48,0,0,1,.92.79c.07,0,.13.1.19.14a1.54,1.54,0,0,1,1.19.33.93.93,0,0,1,.14.14c.15-.34.29-.68.43-1l.09.36c.54,2.26,1.48,4.38,2.1,6.6a1.59,1.59,0,0,1,.66.27,1.51,1.51,0,0,1,.36-.18,5.46,5.46,0,0,1-.16-1.92,10,10,0,0,1,.34-1,9.41,9.41,0,0,1,0-2.25c-.09-.32-.19-.65-.27-1-.27-1.18-.54-2.36-.83-3.54a9.43,9.43,0,0,1,0-3.89c.22-.63.46-1.26.72-1.88q1-2.41,2-4.84a12.26,12.26,0,0,1,1.91-3.11,189,189,0,0,1,23.94-17.68c12.31-7,40.45-19.07,60.82-19.77q19.41,4.32,38.16,8c73,38.21,147.05,83,219.14,129.51,19.75,12.74-1.82,13,2,15.53,8.56,5.66-1.77-.55,8.34,6.18,4.93,3.28,12.76-6.43,25.42,2.07q33.52,22.51,66.08,45.32c-3.75,1.17-7.42,2.38-10.91,3.61-6.34,2.24-12.23,4.5-17.76,6.7a452,452,0,0,0-86.53-.23c-5.2.53-49.33,2.62-65.46,1.9-1.09,0-7.13-7.86-8.22-7.91s-3.77-.56-4.88-.63c-1.34-.09,3.8,8,2.46,8a439.5,439.5,0,0,1-46.12-5.58,9.9,9.9,0,0,1,2.65,8.4c34,7,114.53,7.79,119.58,7.36,9.36-.73,18.7-1.18,28.06-1.41q16.23-.15,32.14.83c-5.26,2.11-11,4.4-17.15,6.7-13.34,5-28.34,10-42.79,12.28-4.57.75-18.53,1.55-20.69,1.45a73,73,0,0,1-17-2.62,65.83,65.83,0,0,1-11-4.2l-3.83-2.08,3.77,2.18a66,66,0,0,0,10.87,4.56,74.51,74.51,0,0,0,17,3.14c2.24.16,16.38-.23,20.95-.83,14.67-1.9,30-6.5,43.53-11.12,9.11-3.14,17.48-6.26,24.5-8.91a445.43,445.43,0,0,1,108.23,22.15c39.43,28.43,77.16,56.38,112.48,82.84,5.57,4.18,11.09,8.25,16.58,12.26-13.29-.86-26.65-1.93-39.87-3.23a1404.5,1404.5,0,0,1-145.83-22.37c-97.14-19.79-193.76-48.73-292-77.94s-198.65-58.39-302.79-76.7a1301.86,1301.86,0,0,0-129.46-16.39c.37-.55.74-1.12,1.1-1.67-3.6.35-7.23.65-10.85,1q-9.4-.61-18.83-1.08a1078.36,1078.36,0,0,0-150.37,3.06q-55.83-3.27-114.66-11.54c-7.88-3.47-16.4-7.28-25.81-12.25-6.39-3.34-12.91-6.32-19.94-10.29s-14.34-8-21.88-12.15q-12.21-7-25.42-15a198.85,198.85,0,0,1-28-.51c20.48,13,39.73,24.69,57.5,34.9l13.26,7.37c-31-5.4-204.09,20.67-363.77-95.29-2.45-1.78,16-66.27,13.37-67.89-2.1-1.33-.62-5.61-2.7-7-1.72-1.12-20.37,67.7-22.08,66.56q-12.09-8.14-23.7-17.2c-4.05,2.65,2,7.19-3.24,7.56-9,.64,9.81,18.35,1.08,17.82,34.75,23.64,76.54,59.48,102.22,74.18-20.74-2-250.73-30.54-397.67-147.32-3.65-.71-7.3-1.43-11-2.12l-1.62-.32a2.63,2.63,0,0,1-.36,0c-.3,0-.6-.09-.91-.12-2.68.24-5.38.43-8.07.57-2.89.15-5.78.25-8.66.44l-1.16.15a36.47,36.47,0,0,1-12.58-.44,900.51,900.51,0,0,0,135.82,91.33c-81.36-18.19-162.49-37-243.28-56.88-14.47-6.92-35.51-18.18-48.77-36.44-8.08-11.14-16.26-22.2-24.45-33.28-4.09-5.51-8-11.19-11.77-16.92a30.83,30.83,0,0,1-7.87-.7c-.5.08-1,.2-1.49.25-3.21.38-6.44.7-9.67.94a27.76,27.76,0,0,1-11.57,6.79c7.76,13.4,15.42,26.9,24.59,39.55,4.73,6.49,9.46,13.51,14.45,20.48q-40.14-10.33-80.14-21.17c-9.22,1.73-18.51,2-28,4.14a27.94,27.94,0,0,1-15.51-1c-1.64.92-3.27,1.9-4.85,3l-1,.68c-.31.28-.68.62-1.22,1.08s-1.32,1.19-2,1.79a28.34,28.34,0,0,1-6.26,15.08q41.29,11.55,82.73,22.58C1042.72,2014.47,940,2049,854.25,2106c-99.66,56-221.89,59.11-311.59-15.28-3.87-3.29-7.62-6.64-11.29-10.16q-3.61-3.49-7.39-6.8c-.44-.39-1.63-10.38-2.08-10.76s-.62.41-1,.08-.37,7.7-.84,7.31q-5.07-4.24-10.39-8.18a9,9,0,0,1-5.29,2.86,246.35,246.35,0,0,1,23.06,20.26c76.54,74.91,185.64,86.58,283.72,52.47A517.72,517.72,0,0,0,753.43,2193a90.09,90.09,0,0,1,22.07-.17c85.3-87.46,200.5-141.51,325.45-160.52l7.19,1.91a317.16,317.16,0,0,0-67.67,54.74c5.31-1.37,10.73-2.57,16.19-3.58a308.29,308.29,0,0,1,89.58-58.43,698.23,698.23,0,0,1,86.77-1.78c89.1,22.44,178.51,43.29,268,63.39-32.24,15.13-62.25,33.88-80.67,45.65-32.84,22.62-74.56,63.45-102.55,94.16.27,7.76,2.76-.2,1.15,7.53,2.94-3.36,5.89-6.72,8.92-10,6.44-6.88,13-13.49,19.72-20-2.35,7.35-4.08,14.86-6.94,22,.06.38.11.79.16,1.15a3.59,3.59,0,0,1,1.37,1.39,4.16,4.16,0,0,1,2.58,2.24,4.82,4.82,0,0,1,.51.38,4.24,4.24,0,0,1,3.35.94,4.49,4.49,0,0,1,.4.37c.4-1,.81-1.9,1.18-2.84.09.33.17.68.26,1,1.52,6.32,4.15,12.25,5.86,18.47a4.86,4.86,0,0,1,1.87.76,4.49,4.49,0,0,1,1-.51c-.22-1.65-.9-3.73-.45-5.37a27.65,27.65,0,0,1,1-2.83,25.92,25.92,0,0,1,0-6.29c-.23-.92-.51-1.84-.72-2.78-.76-3.32-1.53-6.61-2.33-9.93a26.25,26.25,0,0,1,0-10.89c.64-1.77,1.3-3.53,2-5.26q2.8-6.75,5.56-13.55a32.53,32.53,0,0,1,5.37-8.68,530.33,530.33,0,0,1,67.09-49.45c20.78-11.7,57.62-28.58,96.1-40.6q36.18,8.05,72.38,16c-.84,1.51,59.61,10.49,19,13.67a102.36,102.36,0,0,1,9.79,21.81c8.84-2.33,17.67-4.6,26.59-6.29q16.25-3.11,32.49-6.35c1.4-.28,2.8-.46,4.2-.63,15.94,3.21,249.32,54.26,295.82,61.27,5,.65,9.92,1.4,14.86,2.13-9,1.4-17.93,2.81-26.88,4.11-44,6.64-88,13.61-132.11,20.08a34.24,34.24,0,0,1-3.63,11.52,31.4,31.4,0,0,1,17.16,7.52l.24,0c7.21,1,14.44,1.82,21.69,2.39,9.47.75,21.59,2.18,31.84.46,223.5-37.38,304.29-17.9,304.29-17.9-28.55,18.81-85,63.88-106.77,89.36-4.41,2.17-5.28,8.41-10.26,11,23.5,5.55,42.51,6.1,65,9.76,58.45-54.24,137.52-88.18,233.4-100.68q19.52.81,39,2.35a1179.94,1179.94,0,0,1,146.19,21.41c86.84,18,172.6,44.68,259.15,73.06-40.19,8.26-76.2,20.57-123.32,54.51-12.62.84-25.23,1.71-37.85,2.68a289.64,289.64,0,0,1-35.44-6.87c-10.86-2.49-13.26-11.82-15.46-11.06-2,1.46-1.94.19-3.57,1,2.25,2.13,3.9,4.44,6.3,6.44-52.18-16.2-97.77-47.2-127.73-90.62a37.55,37.55,0,0,1-9-1.64,216,216,0,0,0,19.84,26.75,136.24,136.24,0,0,0-32.88-13c.09,1.31.15,2.62.15,3.92a133,133,0,0,1,48.19,25.19c31.18,29.44,70.9,50.86,114.24,62.84q-6.93.63-13.86,1.29a55.28,55.28,0,0,1,4.37,4.8c35.76-2,57.09,6,31.84,13.86,1.19.6,4.57,2.89,6.86,3.29,6.3-4,12.92-8.82,20.06-10.45-41.79,33.87-92.65,84.09-160.93,160.24-3.09,3.44-14.14,10.31-20.87,8-2,2.29-1.39,1.84-3.46,4.17,14.07,3.34,4.95,9.61,3,11.82-1.71,1.94-3.45,3.85-5.19,5.76q-10.71-2.31-21.47-4.81l-1.68.85a40.09,40.09,0,0,0-3.9,2.41c-.09,1.31-.29,2.61-.41,3.93a5.92,5.92,0,0,1-.61,2.13q9.36,2.39,18.68,4.6c-21.09,2.85-42.1,6-63.09,9.32-3.26.55-6.35.91-9.35,1.47-17.21,2.74-34.39,5.55-51.56,8.33-40.93,2.27-81.19-6.69-114.46-27.06l-1-.2c-4.28-.85-8.55-1.75-12.81-2.67,26.32,19.45,58.2,31.37,91.91,35.73q-13.46,2.09-26.92,4.08a32.59,32.59,0,0,1,7.69,8.41c16.93-2.54,33.85-5.22,50.74-7.94l-3.52,2.82a24,24,0,0,1,4.06,4c1.76-1.29,3.53-2.57,5.37-3.73,2.23-1.41,4.46-2.83,6.67-4.25a16.16,16.16,0,0,1,2.4-1.26c19.33-3.13,38.63-6.28,58-9.3,2.92-.38,6.7-.89,10-1.54q17.82-2.73,35.65-5.24c-62,59.07-140.72,98.45-224.11,126a311.94,311.94,0,0,1-71.66-19.43c-4.58,1.21-9,2.51-13.44,3.83a286.1,286.1,0,0,0,41.18,15.08c-6.45.34-56.35,11.31-61.29,12.74,1.79,1,3.58,2,5.34,3l1-.59c25.44-6.4,45.42-8,71-6.83,10.83,1.39,3.13,5,1.49,5.5-55.09,16.48-111.61,23.26-166.18,32.56-8.92,1.51-39.81,7.88-90.13,13-2,.2-25-10.07-27.07-9.86-1.85.19-.72,1.88-2.6,2.07s14.53,9.34,12.77,9.52l-90.56,9.25c-17.59-3.31-42.74-10-78.67-22.69-1-.36-5.75-11.06-6.78-11.43-.71-.25-.83,2.06-1.53,1.8s1.57,7.23.79,6.95q-8.22-3-17.15-6.33c-3-1.13,1.69,2.9-.55,5.16a288.54,288.54,0,0,0,42.4,17.55c.94.31-10.47,7-9.54,7.36s0,2.07,1,2.37,15.9-7.35,16.73-7.09c10.66,3.33,21,6.18,30.34,8.71-55.74,5.72-107.21,11.07-110.56,11.73a133.07,133.07,0,0,0-15.44-3.41,81.38,81.38,0,0,0-21.2-.53,87.18,87.18,0,0,0-20.39,4.88l-1.78.66c-10.36.14-21.37.34-32.93.67q-8-1.71-16.38-3.42c-19.93-4.05-41.26-7.9-63.46-11.17-5.84-2.92-11.43-5.72-16.78-8.29-8.5-4.14-16.38-7.67-23.48-10.56a191,191,0,0,0-29.4-9.46,109,109,0,0,0-19-2.55,86.9,86.9,0,0,0-9.82.15l-2.43.26c-.81.09-1.62.15-2.41.3-1.59.27-3.18.48-4.73.87s-3.34.79-5,1.27a.42.42,0,0,0,0,.12c0,.28,0,.57.06.85,1.66-.45,3.35-.87,5.08-1.21a77,77,0,0,1,9.44-1.19l2.41-.07c.8,0,1.61-.07,2.41,0,1.61,0,3.23,0,4.83.16a107.06,107.06,0,0,1,18.69,2.92,189.88,189.88,0,0,1,28.92,10c7,3,14.71,6.63,23.11,10.86q4.08,2,8.36,4.24-8.7-1.2-17.55-2.27l-7.63-.88a17.05,17.05,0,0,1-.27,3.41c2.54.29,5.07.58,7.59.89q13.83,1.68,27.27,3.69,4.61,2.38,9.43,4.84c5.73,2.91,11.69,5.9,18,8.79l-4.73.33a18.47,18.47,0,0,1-2.29,10.67q15.39-1.08,30.07-1.76c2.75.88,5.56,1.7,8.43,2.4a72.26,72.26,0,0,0,19.57,2.2,45.12,45.12,0,0,0,10.13-1.46,22.27,22.27,0,0,0,2.5-.73,24.44,24.44,0,0,0,2.47-.89l2.47-1,2.22-1.15.62-.32.55-.29.41-.22c8.29-.15,16.24-.24,23.79-.33-12,3.72-23.69,7.86-35.11,12.25-13.95,5.33-27.45,10.95-40.64,16.21a17.06,17.06,0,0,1-2.2,4.65l-.3.4c0,.63,0,1.28-.08,1.91a16.06,16.06,0,0,1,8.1,3.62c9-3.43,18-7,27.1-10.48-11.51,7.47-22.65,15.38-33.47,23.34.3.82.56,1.64.8,2.48,2.85-1.11,5.7-2.24,8.54-3.41a19.6,19.6,0,0,1,4.35-1.23c9.47-6.69,19.14-13.25,29.09-19.44q11.22-7,22.86-13.38c9.49-3.15,19.1-6.07,28.84-8.65,14-3.71,28.15-6.71,42.4-9.11,22.92-3.24,49.93-6.26,81.09-9.55l-7.22,3.19c-9.73,4.51-20.61,10-32.22,16.68a432.55,432.55,0,0,0-75.17,55c-9.4,8.5-18.68,17.73-27.79,27.58a14.43,14.43,0,0,1,3.65,1c.67-.33,1.33-.64,2-.94a11.5,11.5,0,0,1,5.66-.9l.11-.05c.51-.28,1.39-.76,1.65-.93l.5-.37.12-.13a38.61,38.61,0,0,1,5.3-4.85,14.67,14.67,0,0,1,2.56-1.4q6.33-6.21,12.72-12,5.65-5.14,11.33-9.93c1.87-1.58,5.59-7.06,5.59-4.65,0,14.59,2.92,17.45,4.11,16.5s2.11-21.49,3.43-22.52a420,420,0,0,1,49.09-33.07c11.34-6.51,21.94-11.85,31.42-16.24,4.78-2.1,9.2-4.13,13.38-5.78,2.08-.84,4-1.69,6-2.41l5.47-2.07c1.73-.66,3.36-1.28,4.9-1.79l4.32-1.49c1.34-.46,2.55-.91,3.72-1.27l3.17-1,.46-.15c58.5-6.1,129.08-13.55,212.08-24.82-29.11,24.57-56.29,44.17-75.66,53.34a14.48,14.48,0,0,1-1.57,4.51c7-3.25,12.51-5.54,11.31-3.37-6.28,11.41-24.55,28.28-24.34,28.9.41,1.16,1.33.54,2.46,1.19.66.38,21.27-25.27,32.88-31.46,2.16-1.16-5.66,42-3.21,40.63,2-1.06,4.76-.9,4.92-3.31,1.34-19.88,9.69-41.47,19.43-48.83,18.7-14.13,37.63-29.57,55.35-44.58,43.46-6.09,90.13-13.23,140.12-21.75,36.48-6.22,14.44,26.08,17.07,25.46s6.06,4.23,8.75,3.61c9.68-26.3,31.07-34,47.45-40.84,139.47-57.94,211.13-131.15,270.61-195.9,1.45-1.57,12.35,24.15,13.84,63.93,0,.64-5.36,5.58-5.35,6.24,0,.91,1.73,2.16,1.75,3.09,0,.76,3.76-3.08,3.76-2.31,0,4.73-.05,9.64-.32,14.69,3.14-.9.22.42,3.74-.76,6-39.75-15.56-87.62-2.29-101.38,34.41-35.74,64.53-69.65,103.92-94.55l8.11-5.78q7.59-5.37,15.37-10.08c2.57-1.56-10.12,21.57-7.53,20.11,1.86-1,4.95,4.53,6.82,3.53,1.61-.85,17.27-32.92,18.88-33.74,72.5-36.74,206.92-51.8,299.27-30.09,40.27,12,81,23.26,122.48,33.06a1522.93,1522.93,0,0,0,156.71,29c26.61,3.42,52.91,6.05,80.2,7.88l10.28.68,9.65.51,9.59.49,2.39.12,4.28.1,4.15.11c11.06.28,22.4,1,33.92,2.21,46.11,4.61,94,14.66,141.57,26.77s95.41,26.73,142.95,42.45q21.6,7.17,43.15,14.69c-74.65,0-149.34.29-224.07,1.64a314.46,314.46,0,0,1,.55,31.59q69.63-1.29,139.34-1.52c-92.47,21.11-158.31,62.76-245.34,130.15a74.05,74.05,0,0,1-3.14,12.46c.28.2.55.37.83.58a16.92,16.92,0,0,1,5.47,7.25l1.85-.66c53.76-46.06,116.07-82.09,183.61-107.69,2.26-.86.9,8.2,3.17,7.37,2.64-1,4.37,1,4-1.79-.69-4.67,12.75-12.77,15.33-13.64a723.17,723.17,0,0,1,157.42-34.16q24.41,0,48.81.09,31.15,11.63,62.22,23.74c-2.4.36-4.8.72-7.2,1.13-30.66,2.77-109.07,18.58-110.53,19.67-5.19,3.89-28.68,35.2-33.66,39.6-7,6.17,45.44,8.32,39.81,12.7-20.87,16.2-40.9,32.16-55.94,44.15-8.47,6.89-17.13,13.64-25.44,20.67l-25,21L3721.81,2792c-8.16,7.14-16,14.46-24.08,21.68-31.88,29.06-84.66,78.95-115.13,108.68,0,0-168.15,35.45-220.37,45.51a291.69,291.69,0,0,1-36.08-2.79,131.52,131.52,0,0,1-20.16-12.45c-1,1-2,2-3.14,2.91,2.46,2,6.36,5.87,9,7.67-1,.2-3.39-1.63-4.41-1.42q-5-1.07-10-2.31l-.13.09c-4.1,2.52,2.8,6.47-.28,8,13.14,4,16.45,5.08,30.24,7.24q-17.52,3.6-35,7.46a11.7,11.7,0,0,1,2.25,6.43c.27.26.52.53.79.78l.48.49.41.3c.63.48,1.28.92,2,1.35a11.6,11.6,0,0,1,6.48,0c.14.05,24.41-4.7,21.78-4.44,11.28-2.37,15.06-2.63,26.37-4.87-2.25,2.78-7.12,10.37-9.24,13a190.83,190.83,0,0,0-11.17,15.89,11.43,11.43,0,0,1,4.66,3.1c1.34.18,4.12-3.54,5.18-3.44,1.72-2.31,3.47-4.57,5.3-6.77q5.52-6.63,11-13.29c5.95-7.29,17.7-7.38,23.9-9.92,34.11-6.39,68.33-12.3,102.63-18-15.65,7.48-16.41,6.55-30.69,16,3.24,0-7.8,9.67-4.59,10.22,4.09-.91,8.24-4.81,12.48-5,.2,0,37.21-18.28,37.42-18.28,13.83-7.75,30.38-9.12,42.62-7.44,1.83-.29-.38,7.26-8.25,14.17L3514.31,2991l-5.65,5.54-2.82,2.76c-.46.44-1,1-1.38,1.33l-1.23,1.07-9.81,8.65c-3.07,2.9-6.94,5.84-10.58,8.78s-7.26,6-11.08,8.77c-7.72,5.49-15.19,11.31-23.3,16.4-4,2.6-7.92,5.32-12,7.84l-12.38,7.41c-4.07,2.54-8.34,4.84-12.6,7.15l-12.78,7-13.1,6.52-6.55,3.27-6.71,3.05-13.41,6.1-13.67,5.72c-9.06,3.93-18.45,7.28-27.72,10.87-37.37,13.85-76.29,25-115.86,34.71-33.34,8.15-341.47,48.14-440.54,60.42a1040.62,1040.62,0,0,1-209.59-17c-1.16-.69-2.29-1.39-3.47-2.07-11.15-11.17-20.69-32.9-24-43.36a146.65,146.65,0,0,1-4.21-22.66,9.29,9.29,0,0,1,.56-2.77c.49-1.26,1-2.53,1.44-3.79.18-.49.38-1,.59-1.44a7.41,7.41,0,0,1,2.05-2.22c.79-.51,1.56-1,2.35-1.56.21-.15.45-.28.67-.43a7.15,7.15,0,0,1,1.19-1.26,5.58,5.58,0,0,1,.34-.75c.22-.42.75-.71,1.11-1a1.08,1.08,0,0,1-.11-.28,1.33,1.33,0,0,1-.51-.2c-1.53.93-3.18,1.62-4.69,2.62l-.24.15.3-.79a.85.85,0,0,0-.16,0,1.19,1.19,0,0,1-.85-.44.86.86,0,0,1-.17,0,1.17,1.17,0,0,1-1,0,1,1,0,0,1-.54,0l-.24.2c-.78,2-1.85,3.83-2.77,5.75-.12-2.56-.21-5.14-.21-7.75,0-1.24.06-2.48.1-3.71-1.14,1.87-.14-.22-1.66,1.3-.15,11.5.55,27.63,2.91,38.41,2.36,9.31,7.31,27.69,15.29,39.51-9.82-5.58-22.67-13.38-33-18.8q-7.9-4.17-16-8.25c-6.11-3.56-11.65-6.41-16.8-11.77q-17.72-18-34.93-36.52c-1.77-2.08-3.95-4.31-5.62-6-10.87-11.67-21.67-23.45-32.48-35.21-.35-.64-4.59-4.33-5.05-13.75-1.92.45-1.78-.83-3-.83.28,1.18-.63,4.28-.34,5.46-18.47-20-37.06-40-56.2-59.51a135.09,135.09,0,0,1-8.24-14.79c-2.39-4.64.23-8.33-.71-8.88-1.12-.27-.66-.64-1.43-1-.09,1.45-.42,2.74-.4,4.21-10-23.61-12.62-49.33-6.1-73.2a17.7,17.7,0,0,1-2.14-3.74,101.88,101.88,0,0,0-3.6,15.21,63.71,63.71,0,0,0-5.26-15.73c-.45.43-.9.84-1.36,1.24a62.34,62.34,0,0,1,5.52,24.89c-1.14,20.09,3.18,40.81,12,60-1.54-1.53-3.1-3.06-4.65-4.58a28.39,28.39,0,0,1-.4,3c11.52,12.21,15.09,22.28,4.65,15.6a13.47,13.47,0,0,0,.89,3.46c4,1.27,8.69,2.36,11.42,5.53,11.31,11.63,27.49,28.4,38.55,40.28,1.3,2.58-2.55.1-7.3-1.88,1.29,1.73,1.29,1.73,3.14,4,7.6,5.05,7.82,2.72,19.54,15q14.42,15.69,28.87,31.36c1.64,1.87,3.44,3.67,5.25,5.67q17.68,19.07,35.76,37.83-7.11-3.28-14.3-6.49a5.06,5.06,0,0,1-.69,1.68c-.59.9-1.12,1.84-1.73,2.72a35.91,35.91,0,0,0,1.29,3.51l.65,1.41c19.34,9,38.11,18.52,56.13,28.37,7.76,4.24,15.34,8.54,22.81,12.87q-25.84-5.67-51.25-12.69c-.82,1.33-1.73,2.59-2.61,3.87a8,8,0,0,1-1.31,4.13c-.32.48-.63.91-.95,1.35a15.29,15.29,0,0,1,.48,1.65,11.26,11.26,0,0,1-.64,6.75,62.1,62.1,0,0,1,7.81,8.48,8.08,8.08,0,0,1,1.49,6.11A1042.25,1042.25,0,0,0,2587.22,3226c-94.83,11.41-189.7,22.1-284.62,31.41-18.26-2-45.26-6.09-66.53-20.81q-19.43-13.45-39-26.69c-17.3-11.72-33.51-25.13-50.18-37.8a10.59,10.59,0,0,1-7.87-2.19c-.43-.32-.88-.59-1.33-.89a15.76,15.76,0,0,1-15.25,3.16c-.22,1.21-.43,2.41-.68,3.62a9.85,9.85,0,0,1,2.11,3.52,39.21,39.21,0,0,1,2.41,11.76,9.33,9.33,0,0,1,1.41,3.27c.92.74,1.82,1.52,2.7,2.33a9,9,0,0,1,2.87,6.91c18.52,15.21,36,31.71,55.89,45.49,7.56,5.26,15.33,11,23.37,16.65-67.91,5.95-135.88,11.12-203.93,15.14-1.65.89-3.34,1.69-5,2.54a23.72,23.72,0,0,1-8.8,6c-3.61,1.5-7.63,4.05-11.5,4.5a11.08,11.08,0,0,1-1.92,0c-.86,1.95-1.82,3.75-4.91,4.73-2.42.77-5.24.81-7.72,1.38-.33.07-.65.16-1,.24,6-.47,11.13,5.46,10.1,11.55a9.77,9.77,0,0,1,6.86,7.37,8.39,8.39,0,0,1,6.9,5.49,8.12,8.12,0,0,1,1.65,2.12c13.06-.6,26.11-1.21,39.15-1.92q64.62-4,129.2-9.25c-112.26,52.68-210.32,129.33-281.45,223.88a381.25,381.25,0,0,1-63.34,57.85q-4.12,10-8.87,19.64a393.21,393.21,0,0,0,37.65-26.6,591.79,591.79,0,0,0-35.81,68.89c3.51-1.69,7.77-.29,10.63,2.57a10.09,10.09,0,0,1,2.68.12c.54-1.35,1.05-2.72,1.62-4.06a8.37,8.37,0,0,1,4.51-4.44,10,10,0,0,1,4.32-1.59c62.24-126.46,169.26-227.62,299.55-293.84a367.12,367.12,0,0,0-58,91.85q7.86-5.31,16.14-10.12a356.55,356.55,0,0,1,74.79-97.51,801.07,801.07,0,0,1,93.18-35.12c156-14.5,311.42-33.11,466.6-52.54,17.66-3.12,8.31,1.93,2.21,5.62q-3.92,2.92-7.85,5.83a116.42,116.42,0,0,1,18.84,19.88c8.67-5.89,17.38-11.71,26.38-17,6.14-3.59,12.24-7.21,18.36-10.83,62.37-2.38,162.77-6.39,252.08-10.66-73.51,41.79-136.87,97.87-182.82,164.51a284,284,0,0,1-45.43,45c-1.84,5-3.83,10-6,14.91a288.2,288.2,0,0,0,27.22-21,444.75,444.75,0,0,0-28.4,62.33,77,77,0,0,1,17.46-7.17c41.62-100.2,120-182.1,218-237.1a273.13,273.13,0,0,0-40.37,70.21c3.78-2.79,7.7-5.47,11.71-8a265.34,265.34,0,0,1,52.71-74.95q11.61-5.82,23.54-11.14c69.37-3.57,124.91-7.15,138.52-10,42.7-8.83,85.42-19.44,127.71-33.39,10.54-3.63,21.13-7,31.6-11.1l15.73-5.93,15.62-6.44,7.82-3.23,7.73-3.51,15.48-7c5.12-2.48,10.2-5.08,15.3-7.61s10.22-5.08,15.21-7.93l15.06-8.32c5-2.83,9.88-5.93,14.82-8.9,10-5.81,19.47-12.55,29.13-19,4.8-3.27,9.41-6.89,14.12-10.34s9.34-6.82,14.15-10.93l14.28-11.86c2.57-2.08,4.19-3.69,6.22-5.51l5.85-5.33,46.73-43.07,46.37-42.53c30.93-28.1,62-55.7,93.41-82.38,7.89-6.59,15.7-13.35,23.66-19.82l23.84-19.41,24.1-18.88c32.14-25.29,107-85.8,133.21-97.18,66.72-29,174.49-35.92,418.37,45.95l10.33,4.36,35.22,14.5c12.55,5.07,25,10.48,37.67,15.26a1313.61,1313.61,0,0,0,154.66,49.22,1481.27,1481.27,0,0,0,196.83,35.4c-77.71,9-158.07,17.87-222.2,24.75-28.3,4.81-57.43-9.75-84.38-20.75-7,2.56-16.37,11.72-19.81,14.32,84.25,10.44,21.42,47.92-92.68,61.93a186.73,186.73,0,0,1-11.1,17.64c14.85-1.24,29.69-2.48,44.53-3.82-130.1,62.55-243.42,152.85-325.15,263.66-39.1,45.47-86.25,82.23-137.92,107,.73,4.14,1.3,8.3,1.77,12.5a436.46,436.46,0,0,0,96.45-59.89,695.1,695.1,0,0,0-47.43,95.84,119.84,119.84,0,0,1,27.61-10.33c69.92-154.28,196.3-278.17,352-359.1-6.47,7.66-10.37,15.92-16.26,23.94,5.61,1.57,4.78-2.4,11.83,1.06,7.4,1.19,9.68-29.7,42.58-43.74a929.69,929.69,0,0,1,108.06-41.89c173.55-17.75,346.44-39.91,519.05-63.05q-33.06,26.45-66.55,52.42c-5.78,4.09-12.09,9.2-16.95,13.13q-49.33,38.11-99.05,75.86a33.42,33.42,0,0,1-5.43,1.86c-5.45,1.32-10.88,2.69-16.31,4.07-4.49,1.14-9,2-13.6,2.85a50.62,50.62,0,0,1,.22,12.11c3.17-.44,6.34-.86,9.5-1.32q-43.33,33.14-86.4,66.71a69.55,69.55,0,0,1,1.75,24.15q22.72-17.88,45.63-35.58a447.59,447.59,0,0,0-54,97q-6.47,5.45-12.9,11.08c-5.6,4.32-10.32,8.36-17.21,11.12-15.54,6.42-31.19,12.56-46.92,18.58-2.58.86-5.46,2-7.68,2.93-14.89,5.67-29.83,11.23-44.78,16.81a12.28,12.28,0,0,1-2.19.08c-2.15-.12-4.29-.22-6.44-.32-1.77-.08-3.54-.27-5.31-.47a20.22,20.22,0,0,1-1.27,4.47c1.22.19,2.42.39,3.63.57q-19.58,7.34-39.11,14.86a26.72,26.72,0,0,1-2,9.05q10.32-4,20.7-8c-22.1,16.69-39.86,38-50.65,62.38q4-3.55,8-7.07l.64-.55c15.33-27.85,40.22-50.42,70.1-65.34q19.92-7.44,39.86-14.91c2.35-.82,4.68-1.81,7.21-2.73,16.2-6.13,32.35-12.37,48.43-18.86q-5.72,5.33-11.37,10.79a4.69,4.69,0,0,1,1.29,1.26c.62.89,1.29,1.73,1.87,2.63a35.84,35.84,0,0,0,3.73.12l1.55-.07q16.88-15.69,34.08-30.22a383.26,383.26,0,0,0-18.43,78.83q7.23-11.88,14.61-23.67c.38-.63.8-1.25,1.2-1.87,17.18-81.13,62.2-156.32,125.5-216.17q44.08-33.66,88.2-67.4c5.24-3.83,10.32-8.06,15.93-12.27,35.77-27.57,71.38-55.38,106.6-83.75q-10.21,17.64-20.21,35.56a12.45,12.45,0,0,1,4.19,2.15c2.2,1.76,4.5,3.34,6.65,5.14a92.5,92.5,0,0,0,9.41-2.51l3.78-1.36c2.54-4.37,5.12-8.69,7.69-13,32.27-34.06,61.36-42.75,75.46-45.75q40.24-2.74,80.27-6.68c168.09-16.65,332.5-47.09,494.46-80.65-16.75,11.35-31.9,22.06-45,31.8a1452.07,1452.07,0,0,0-216,213.52,133.19,133.19,0,0,1-5.84,34.19A61.5,61.5,0,0,1,5517.4,3121q20.36-24.61,41.45-48.16c-5,20.53-8.24,41.37-14.62,61.49.24,1,.44,2.11.65,3.11a9.72,9.72,0,0,1,4,3.54,11.23,11.23,0,0,1,7.46,5.58,11,11,0,0,1,1.52,1,11.48,11.48,0,0,1,9.28,1.86,14.9,14.9,0,0,1,1.16,1c.9-2.66,1.83-5.32,2.67-8,.3.92.61,1.87.91,2.73,5.4,17,13.73,32.66,19.66,49.33a12.53,12.53,0,0,1,5.19,1.67,11.92,11.92,0,0,1,2.64-1.58c-.89-4.47-3.16-10-2.28-14.58a66.82,66.82,0,0,1,2.1-7.9c-1.55-5.59-1.13-11.07-1.28-17.18-.83-2.45-1.75-4.93-2.53-7.43-2.75-8.9-5.48-17.77-8.32-26.65-3.18-10-3.05-20.6-2-29.74,1.4-5,2.87-9.89,4.49-14.75,4.21-12.67,8.42-25.36,12.54-38.09a89.76,89.76,0,0,1,13-24.75,1445.49,1445.49,0,0,1,173.44-148.12c28.2-18.67,67.94-42,113.94-65.76,5.08-1.1,12.49-3.21,19.82-4.28,88.24-19.05,175.95-38.15,263.27-55.66q74.34-14.93,148.33-27.86c24.59-4.24-72.35,77.57-48,73.87l23.49,6.46,42.88-1.76,39.34-9.4s140.65-96,170.81-97.54a1317.59,1317.59,0,0,1,202.15,4.63c94.25,9.32,187.48,29.94,283.14,56.43s194.13,57.79,296.73,84.43c8.06,2.1,16.17,4.12,24.27,6.16-84.53,8-245.75,23.76-333,33.3a658.51,658.51,0,0,1-80.7-12.91,298.11,298.11,0,0,1-43.08-31.72c-2.46,2.08-5,4.09-7.6,6q7.76,7.26,16.07,14c-2.31.3-4.64.58-7,.87q-11.09-3.3-22-7a1.87,1.87,0,0,1-.31.17c-9.69,4.91-17.55,8.59-24.78,11.5a665.78,665.78,0,0,0,89.42,28.35q-40.09,4.85-80.1,10.34a26.74,26.74,0,0,1,3.89,14.89c.53.64,1.05,1.3,1.61,1.91s.75.87,1,1.17l.87.77c1.33,1.2,2.72,2.31,4.14,3.39a26.21,26.21,0,0,1,14.6,1.12c8.52,3.25,17.15,4.68,25.53,7.48q38.73-4.91,77.51-9.37c-5.55,5.86-10.89,11.8-16.14,17.24-10.18,10.62-19.08,22.21-28.06,33.71a26.07,26.07,0,0,1,9.91,7.83c3,.66,5.95,1.36,8.9,2.14.46.12.9.29,1.36.42a28.55,28.55,0,0,1,7.43.37c4.29-4.86,8.64-9.65,13.17-14.26q13.64-13.91,27.12-27.89c14.74-15.31,35.82-23.08,50.23-27.66,77.94-8.12,156.05-15.12,234.3-21.55-36.6,14-38.14,11.74-72,30.26,7.3.62-19.32,20.33-12.21,22.15a169.93,169.93,0,0,1,28.38-1.74c.46,0,107.72-39.92,108.18-39.9,66.49-18.18,22.94-9.44,92.51-22.19l42-3.2-.26-.33.93.19c52.85,10.45,105.42,19.07,160.64,26.12l38.12,4.46,4.76.55,2.38.28c1.08.12-.31,0,1.08.17l6.92,1c4.61.6,9.27,1.67,13.91,2.43a406.73,406.73,0,0,1,56.55,16c38.07,13.84,76.57,33.62,114.51,57.26,48.64,30.46,96.22,66.83,142.91,106.55q-25.32-1.17-51-1.55c-77.51-32.89-163.16-72.78-185.72-96.69-12.78,13.34-16.46,1.64-12.78,13.34,67.17,46.65,97.56,71.24,54,58.15-35.77-6.29-71.37-11.14-106.57-14.49l-6.42-.5c-35.24-11.52-73.38-23.84-114.09-36.43-48.73-15-101.2-30.3-156.57-44.45-18.68-10.31-38.47-29.2-54.28-47.12-4.75-.66-9.46-1.48-14.1-2.36l-2.64-.52a517.3,517.3,0,0,0,32.65,40.49q-27-6.47-54.74-12.46,5.16,12.51,10.09,25.14c71.36,17,276.43,78.57,273.87,78.27-8.64-1-76.91,2.05-95.17,3.92,10.17,6.28,25.8,7,26.55,7.32,18.44,8.65.69,8.2,17.29,20.25,3.53-.11,7.07-.18,10.62-.23,10-.09,20-.19,30,.19,1.25,0,27.41,1.17,30.52,1.34,20.53.9,41.18,2.94,62,4.73q17.42,1.84,34.94,4.17c2.27.78,6.57,1.35,6.46.86q25.26,3.47,50.69,7.95l-5.64,1.23c-5.25,1.24-10.57,2.47-15.75,3.78-3.18-.15-35.16,9.47-38.46,10.43-40.61,15.48-84,25.52-121.35,47.67-205.44,121.64-503-4.71-520.55-9.49-9.39-2.56-18.7-5.41-28-8.37l-1.85-.61c-30.28-9.14-99.23-30.58-109.69-34.19-11,10.25,9.35,10.88-1.26,22.22-7.74,8.29-3.4,5.38-3.43,10.79,9.5,3.62,29.94,10.42,41.81,15.08a51.37,51.37,0,0,1,5.31,2.17c-17-2.26-33.45-4.58-64.35-9.19-11.78-.78-65.75-50.82-72.88-59a125.24,125.24,0,0,0-27.35-1.4,22.81,22.81,0,0,1,.83,2.82,4.46,4.46,0,0,1,0,2.09,16.87,16.87,0,0,1,1.5,4.33,78.4,78.4,0,0,1,6.52,6.5,4,4,0,0,1,.24,5.31l1.39,1.15c7.41,8.9,37.7,30.88,18.67,27.43-90.57-13.91-194.08-30.58-232.35-38.22-26.59-3.64-48.9-23.18-70.05-41-.61-.2-1.22-.43-1.81-.68a4.42,4.42,0,0,1-4-.5,7.33,7.33,0,0,1-1.36-1.3,7.67,7.67,0,0,1-3.06-.56,4,4,0,0,1-3.54-.72c-1,.31-2,.62-3,1a3.38,3.38,0,0,1-.75,1c-.44.4-.9.8-1.37,1.17,0,0-1.27,1.08-.58.46a4.39,4.39,0,0,1-.51.37,3.6,3.6,0,0,1-1.58,2.25c-.07,0-.15.05-.22.09a9,9,0,0,1,.53,1.31,3.66,3.66,0,0,1-.39,2.88c65.24,33.36-6.67,48.69-118.42,28.12a191.62,191.62,0,0,1-16.31,13.88q22.4,5,44.84,10a953.55,953.55,0,0,0-211.6,55.66q-9.22,1-18.44,2c-1.35.15-28.65-23.52-50.79-47.78-.42-.45,6.95-14,6.54-14.41s-1.45,0-1.87-.44c-.62-.67-7.42,13-8.13,12.41-7.74-6-19.44-20-24.77-27.31-12.8-17.55-17.83-31.44-18.64-31.35-1.32.17-1.18.92-.34,3.09.15.37,13.7,23,14.41,27.2.13.83.29,2.57.42,3.3.33,1.93-15.29-14.51-15.22-14.32.72,1.89-2.87-1.83-4-1.71-1.75.18,93.5,92.1,91.79,92.34-2.6.3-15.9,2-18.5,2.31q-33.54,3.91-67,7.93c-42.14.53-83.43-7.13-120.6-22.94-.69-.3-14.08-28.36-14.78-28.66s-.24,4.33-.89,4c-1.05-.47,9.49,21.9,8.44,21.41q-6.23-2.85-12.26-6a4.34,4.34,0,0,1-3.72,5.19c-1.06.2-2,.37-2.87.47,28.64,16,60.52,26.88,93.88,32.64q-19.53,2.2-39.06,4.22a47.35,47.35,0,0,1,10.57,12.61c24.57-2.62,49.11-5.44,73.63-8.31-1.76,1.26-3.5,2.55-5.25,3.84a35.11,35.11,0,0,1,5.61,6c2.62-1.74,5.25-3.47,8-5q5-2.85,9.87-5.72a21.65,21.65,0,0,1,3.52-1.66q28.22-3.36,56.39-6.64-33.06,15.09-64.48,32.82c11.4,2.89,22.69,6.4,33.78,10.42,74-37.54,154.76-64,239-79-8.7,5.53-15.07,12.42-23.3,18.48,5,3.27,5.42-.89,11.27,4.68,6.88,3.45,18.63-26.14,55.22-29.79a958.93,958.93,0,0,1,118.88-7.81c33.78,6.92,89.17,17.69,148.33,29q-15,5.79-30.17,11.47c-4.87,1.59-10.32,3.78-14.53,5.44-28.16,10.51-56.42,20.83-84.68,31.18a24.94,24.94,0,0,1-4.15.13c-4-.25-8.09-.48-12.15-.69-3.34-.16-6.67-.56-10-.94a37.41,37.41,0,0,1-2.44,8.41l6.84,1.13q-37,13.6-74,27.58a49.93,49.93,0,0,1-4,17.05q19.55-7.49,39.16-14.8c-41.9,31.22-75.65,71.2-96.3,117.08q7.55-6.66,15.17-13.22l1.22-1c29.27-52.36,76.48-94.66,133.05-122.45q28.38-10.42,56.8-20.83c-15.52,24.45-30.76,44.8-42.74,55.74a11.12,11.12,0,0,1-.1,3.69c4.35-3.92,7.82-6.8,7.46-4.93-1.94,9.8-11.35,26.23-11,26.64.56.77,1.09.12,2.05.36.58.12,9.66-23.29,16.68-30.38,1.3-1.32,5.57,32.31,7,30.8,1.18-1.2,3.25-1.69,2.82-3.5-3.62-15-2.53-32.83,2.86-40.37,9.95-13.93,19.75-28.79,28.88-43.17l4.65-1.72c4.44-1.51,8.85-3.36,13.64-5q37.53-14,74.88-28.48c2.68.51,5.35,1,8,1.53q-6.46,6-12.9,12.16a9.06,9.06,0,0,1,2.43,2.39c1.15,1.69,2.4,3.27,3.5,5,2.34.21,4.68.29,7,.28l2.91-.13q8.7-8,17.46-15.82c78.75,14.88,154.46,28.88,186.46,34.43-70.41,68.75-93.64,85.12-161.32,136.67-110.31,84-232.79,146.47-363.28,192.21-43.69,14.33-61.57,7.64-92.34,11.47-122.68,2.25-242.1-29-339.38-93.57-1-.25-2.05-.45-3.06-.71-12.7-3-2.1,11.32-14.75,8.11,89.09,52.5,147.37,82.74,247.72,99.49q-40.49,4.78-81,9.24c9,7.35,12.78,5.62,18.64,15.5,34-3.82,114.24-15.34,113.3-4-116.72,31.21-261.25,63.53-398.37,89.92-5.4,1-30.1-13.93-35.5-12.91-5.93,1.13-6.75,3.4-12.69,4.53-6.72,1.26,26.13,12.89,19.42,14.14-77.42,14.41-152.64,27.4-223.32,38.91-5.42.88-42-1.7-151.41-162.43-1.11-1.64,3.54-22.67,2.41-24.34-.76-1.13-3.46,2.15-4.23,1s-5.55,12.43-6.4,11.16q-9-13.35-18.53-28.08c-3.22-5-.65,6.12-6.43,7.05,12.29,25.2,27.72,49.6,43.71,72.25.39.54-11.95-1.5-27.81-4.26l-14.52-2.53c-6-1.06-24.66,5.5-30.49,4.48-18.65-3.26-39.5,1.39-39.07,2,1.07,1.49-3.5,3.74-2.43,5.21.39.54,23.82-2.93,45,1.43,6,1.25,24.82-5.11,31-3.84l12.69,2.61c19,3.92,34.44,7.19,34.8,7.68,49.1,66.9,98.75,115.79,75.63,119.56-218.53,36.64-384.19,52.9-417.56,52.27-18.54-.34-36.88-.54-55.11-.44-28.72,2.21-282.64-56.17-310.45-62.44-13.51,12.78-14.41,16.7-29,26.11-.73.13,184,49,184.73,49.14,29.14,7.25,29.89,31.77,11.79,31.48-128.85,1.83-161,9.15-279.47-28.39-8.63,9.08-2.48,2.81-10.36,13.79,23.68,6.49,91.31,24.2,71.77,26-19.13,4.62-68.27,16.17-96.24,23-20.45,4.5-43.17,9.52-68,15s-51.73,11.69-80.75,16.85c-31,6.08-64.28,12.3-99.7,18-5.82,1.46-47.17-14.29-88.29-30.64-8.36-3.33-15-22.29-23.05-25.53-33.14-13.34-61-24.75-62.65-24.5-3.33.53.88,2.29-2.49,2.8-1.62.24,26.67,11.09,61.07,26,8.42,3.64,17.71,27.33,26.36,30.66,38.84,14.94,62.7,25.41,57.77,26.11-20.57,3-43.88,6.09-65.73,8.56-18.22,2-36.87,4.17-55.91,6q-28.62,1.77-58.42,3.57c-19.83,1.68-40.1,1.2-60.74,1.54q-15.46.14-31.21.31c-10.49-.07-21.1-.72-31.75-1.07-30.69-.92-62.15-2.87-94.25-5.55a11.34,11.34,0,0,1-4.5,2,29.64,29.64,0,0,1-7.09.36h-.68a9.29,9.29,0,0,1-5.47,3.82,29,29,0,0,1-11.68,5.12c-10.22,2.11-20.55,4-30.93,5.62a129.26,129.26,0,0,0-7.62,15.48c-.06.15-.15.27-.22.42a31.14,31.14,0,0,0,9.77,9.43,10.74,10.74,0,0,1,4.82,7.58c49.72,5.26,98.36,9,145.59,10.48,11,.35,22,1,32.85,1.16l32.33-.31c21.39-.34,42.44.19,63-1.51l60.47-3.64c19.65-1.87,38.84-4.13,57.6-6.12,25.35-2.86,49.73-6.14,73.24-9.66-134.37,56.76-256.26,133.61-377.08,224.7-18.76-7.58-45-17.76-65.06-21.73-25.25-5.29-51.54-7.22-77.33-3.51s-48.72,18.15-70.6,31-37.75,26.63-55.74,43.08-29.79,31.06-46.4,47.63c-10.6,10.6-23.73,26.35-34.47,36.29,3.9,2.85,22.7-21,32.85-31,16.8-16.56,33.52-33.49,51.15-49.51s37.12-28.44,57.68-40.31,43-20.31,66.57-23.52,48.68,1.06,72.44,6.13c15.72,3.1,38.09,11.64,53.24,17.47-32.79,25.28-89.45,76.93-89.26,77.12-24,22.76-29.21,25.67-39.06,34.21a311.18,311.18,0,0,1-25.21,19.64,8.07,8.07,0,0,1-.28,3.83,12.23,12.23,0,0,1-.69,2.33,46,46,0,0,1-2.72,5.58,40.06,40.06,0,0,1,2.7,3c45.71-21.89-14.28,33.92-24.6,44.71,12.11,4.11,2.6-.7,12.11,4.11,1.42-3.14,45.44-47.22,52-57.25,9.25-14.28,115.49-105.51,145.55-127.11l19.81,11.75,17.29,8.07,8.64,4c2.9,1.28,5.93,2.36,8.87,3.51,47,19.39,96.95,32.54,147.35,34.16,6.28.08,12.56.66,18.8.31s12.51-.78,18.76-1.18c3.1-.24,6.23-.3,9.33-.71l9.19-1.45c6.16-1,12.26-2,18.37-3q9-2.3,17.9-4.63l8.89-2.28c2.92-.94,5.77-2,8.65-3,5.73-2.05,11.44-4.11,17.13-6.12,5.57-2.35,11-4.94,16.49-7.4,43.74-20,80.72-48.46,113.62-77.25,3.41-3-5.4,105.93-2.08,102.9s4.32-14,7.47-17c1.75-1.64-5.39-85.94,19.47-108.74,2.61-2.4,5.12-4.88,7.64-7.33,19.93-19.3,38.42-38.62,56-57.09,26.81-28.17,51.68-54.49,75.46-77.39a718.54,718.54,0,0,1,67.18-58.13q7.95-5.7,15.38-11c4.91-3.58,10-6.38,14.67-9.43a215.71,215.71,0,0,1,19.81-11.43q31.32-5.88,62.85-10.67c62-5.14,123.67-10.66,186.09-14.9,11.93-.81,39.06-3.19,78.08-7.08,1.62,0,3.24-.08,4.86-.1l-.72-.32c114-11.46,324.62-35.44,557.09-71.37-13.27,8.5-24.62,16.55-40.5,21.34-36.24,11.35-72.69,22.07-109.25,32.5-6,1.41-12.69,3.48-17.86,5.06-34.63,9.79-69.35,19.35-104.09,28.94a28.5,28.5,0,0,1-5-.26q-7.21-1-14.42-2c-4-.53-7.92-1.3-11.84-2.11a44.86,44.86,0,0,1-3.74,9.81c2.69.66,5.36,1.35,8.05,2q-45.51,12.62-91,25.67a60,60,0,0,1-6.41,20q24-7,48.17-13.84c-53.05,33.16-97.21,77.56-126.33,130.29q9.64-7.2,19.39-14.29c.51-.38,1-.74,1.56-1.12,40-59.62,100.48-105.48,170.68-133.11,30.87-8.54,61.76-17,92.64-25.65,5.44-1.37,10.9-3.14,16.77-4.71,37.64-10.57,75.23-21.41,112.69-32.83q-13.9,10.88-27.73,22a10.76,10.76,0,0,1,2.67,3.08c1.2,2.12,2.54,4.15,3.69,6.27a81.41,81.41,0,0,0,8.37,1l3.48.12c38-29.52,76.38-57.39,114.68-83.43l3.55-2.39c81.25-13,164.5-27.4,246.65-43.2,29-5.59,0,65.67,8.88,64,11-2.06,1.38,15.59,12.31,13.5,9.86-1.9,18.25-67.31,73-78.65,171.59-35.58,330-85,454.12-125.09-6.34,3.73-12.66,7.65-18.84,11.85a246.24,246.24,0,0,0-31.35,25.07c-1.07,1-5.06,4.14-13.21,3.48-.74-.06-1.5,2.61-2,3.13-.78.79,8.89-.33,8.12.47a222.53,222.53,0,0,0-19.12,22.85l-2.89,4c-1,1.31-1.81,2.7-2.72,4l-.05.07a12.17,12.17,0,0,1,2.78,4.75,10.24,10.24,0,0,1,2.39,4.17l2.5-3.7c.89-1.29,1.72-2.62,2.66-3.87l2.82-3.77a213.23,213.23,0,0,1,25.39-28.4,237.47,237.47,0,0,1,30.27-23.82c10.69-7.17,21.84-13.58,33-19.62,8-4.34,16-8.49,23.91-12.6-6.15,5.57-12,11.35-17.56,17.44l-3.2,3.45c-1.06,1.16-2,2.39-3.06,3.58-2,2.4-4.06,4.74-6,7.17-3.76,5-7.58,9.8-10.9,14.92-.86,1.27-1.71,2.52-2.57,3.77l-1.27,1.89-1.18,1.94-4.66,7.72c-1.61,2.53-2.9,5.2-4.32,7.79s-2.79,5.19-4.13,7.79a355.11,355.11,0,0,0-23.34,62c-1.68,6-3.15,11.92-4.5,17.72-.26,1.1-.52,2.2-.76,3.29s-1.29,4.81-8.13,4.49c-.82,0-1.82,2.68-2,3.47s8.45-.54,8.27.29q-2.2,10.29-4.3,20c.15.11.31.2.46.33,3.61,2.75,7.77,4.5,11.9,6.32a.15.15,0,0,1,.09,0l5.79-23.32c2.32-9.26,4.74-18.69,7.67-28.29a352.47,352.47,0,0,1,23.54-58.7c.49-.93,1-1.87,1.54-2.8q-.29.89-.57,1.8c-.77,2.61-1.35,5.31-2,8-.31,1.34-.71,2.68-.94,4s-.49,2.75-.73,4.13c-.47,2.75-1.05,5.51-1.27,8.34a134.07,134.07,0,0,0,3.28,50.83,8.71,8.71,0,0,1,.85.32l2.94,1.27a62.55,62.55,0,0,1,7.76,2.6,126.16,126.16,0,0,1-5-24.28c-.14-1.37,8.61,4.29,8.51,2.9-.07-1,.89-3.46,0-3.86-9.12-4-9.15-9.23-9.16-10.79a120.56,120.56,0,0,1,1.1-17.65c.22-2.62.77-5.18,1.23-7.76.23-1.28.47-2.56.7-3.84s.61-2.51.9-3.78c.66-2.49,1.21-5,1.94-7.45s1.56-4.84,2.34-7.24c.2-.6.37-1.2.59-1.79l.69-1.75,1.37-3.48c.45-1.16.91-2.31,1.36-3.45s1-2.23,1.51-3.36l3.06-6.58c1.1-2.12,2.27-4.19,3.37-6.26A193.43,193.43,0,0,1,6560.2,3642c14.92-14.84,32.31-28,50.52-41.4,7.09-5.23,14.32-10.54,21.5-16.09,27.74-12.76,53.83-26.26,79.88-40.93,33.67-19,66.51-38.24,97.86-60.88,16.73-12.08,67.89-34.5,66.05-13.41-1.33,15.22-41.67,138.94-30.37,137.18,19.06-3,32,9.3,43.82-9.14,18.32-71.94,43.09-168.64,79.71-205.74,8.67-9.84,65.85-60.43,75.36-69.49,15.65-14.94,40.33-33.25,61.53-31.63,147.81,11.33,235.9,39.92,366.6,50.84,116.38-10.58,208.31-58.13,320.07-77.55q-18.45,10.32-37,20.54c-5.49,2.71-11.58,6.22-16.28,8.93q-47.35,25.88-95,51.42a27.59,27.59,0,0,1-4.9.85c-4.84.39-9.67.83-14.51,1.27-4,.37-8,.49-12,.59a44.66,44.66,0,0,1-1.45,10.39c2.77.05,5.53.13,8.3.16q-41.55,22.46-82.95,45.32a59.89,59.89,0,0,1-1.79,20.89q21.89-12.21,43.86-24.23c-44.3,44.15-77.45,97.29-94.07,155.18q7.8-9.17,15.71-18.24c.41-.5.85-1,1.28-1.45,25.7-67,74.41-125.24,136.68-167.83q42.27-22.8,84.58-45.67c5-2.55,9.92-5.48,15.29-8.33q50.41-27.47,100.38-55.92l1.26-.12q-10.68,13.17-21.22,26.56a10.67,10.67,0,0,1,3.29,2.42c1.65,1.8,3.4,3.46,5,5.29a81.21,81.21,0,0,0,8.38-.87c1.14-.22,2.29-.42,3.43-.65q14.28-17.47,28.79-34.45c59.66-2.13,126.28,5.75,205,31.23,69.45,22.47,137.22,21.24,191.61,42a491,491,0,0,1,67.15,31.4l1.71,1.74c35.73,36.74,71.86,73.84,109,110.89,2.54,2.54,5.14,5.07,7.7,7.62,21.88,38,44.45,93,64.15,160.07C8527.32,3548.06,8531.05,3453.72,8529.24,3362.05ZM2535.3,1792.75c0-.81.08-1.62.11-2.43.79.93,3.15,3.32,6.29,6.44Q2538.48,1794.78,2535.3,1792.75Zm640,427.56c3.18-1.14,6.44-2.28,9.84-3.42,4.61-1.53,9.43-3,14.45-4.44q11.52,8.09,22.9,16.16A443.51,443.51,0,0,0,3175.3,2220.31ZM1627.37,2829.57c-7.35.32-14.89.71-22.56,1.19-8.47-3.59-16.48-7.5-24.1-11.26l-.52-.26c18.34,2.91,36,6.17,52.7,9.57l2.16.45Zm30,10.17a42.26,42.26,0,0,1-9.28,1.41,62.17,62.17,0,0,1-14.93-1.21c9-.33,17.68-.57,26.08-.75C1658.59,2839.39,1658,2839.6,1657.34,2839.74Zm46.55-11.9-5.64.07c2.34-.47,4.71-.85,7.09-1.1a77.42,77.42,0,0,1,20.1.55l.76.14C1719.37,2827.65,1711.91,2827.75,1703.89,2827.84ZM4718.31,3930.08c-21.64,16.27-44.87,36.3-68.94,59.64s-49.17,49.82-75.88,77.94-55.25,57.78-87.27,86.17c-32.07,28.15-67.7,55.67-109.11,74.65-5.17,2.34-10.34,4.79-15.6,7.07-5.36,1.92-10.76,3.87-16.16,5.82l-8.16,2.89-8.38,2.17c-5.59,1.48-11.22,2.93-16.84,4.41-22.85,4.06-46.35,7.25-70.2,5.89-47.68-1.36-95.71-13.69-141.4-32.35-2.85-1.13-5.77-2.17-8.62-3.36l-8.44-3.9-30.75-16.68c204.1-143.15,444-227,675.07-277Z" transform="translate(-504.37 -432.46)"/></svg>