<?xml version="1.0" encoding="utf-8"?>
<!-- Generator: Adobe Illustrator 25.3.0, SVG Export Plug-In . SVG Version: 6.00 Build 0)  -->
<svg version="1.1" id="Branch" xmlns="http://www.w3.org/2000/svg" xmlns:xlink="http://www.w3.org/1999/xlink" x="0px" y="0px"
	 viewBox="0 0 8025.3 3963" style="enable-background:new 0 0 8025.3 3963;" xml:space="preserve">
<style type="text/css">
	.st0{fill:#5B2E2E;}
</style>
<path class="st0" d="M6667.3,1211.9l0.7,0.3l0.9-0.3L6667.3,1211.9z"/>
<path class="st0" d="M7420.8,1596.7l1.3-0.2l-2.2-0.3L7420.8,1596.7z"/>
<path d="M0.4,2929.6c2.3-114.3,12.3-232.8,41.1-345.4c25.9,33.4,68.6,41.1,133.5,9.5c21.9-20.4,44.2-40.7,66.8-60.8
	c39.9-35.4,81.2-70.2,124.8-103.7s89.6-65.6,139.2-94.8c37.2-21.8,76.6-42.1,118.8-59.1c27.2-19.6,239.4-186.8,239.4-186.8h88.8
	c46.4-4.8-152.7,188.8,34.7,118.8c45.5-17,95.8-18,143.9-29.2c96.2-22.2,193.5-50.4,295.9-75.9c51.2-12.7,103.6-24.4,157.1-33.9
	c53.9-9.7,108.2-16.6,162.8-20.7c109.8-8.2,220.3-3.8,327.5,10.9l17.3,2.3c106.1-10,226-24.4,254.4-22.6c47.9,3,95.2-5.9,146-9.7
	c25.4-1.8,51.1-4.8,76.9-9.1c12.6-2.1,25.2-4.4,37.9-7.1c11.7-9.9,23.8-20,36.2-30.1c14-18.9,23.2-53,25.8-69.2
	c0.1-0.9,0.2-1.8,0.3-2.7c2.4-1.3,4.7-2.7,7.1-4.1c-1.5,14.3-6.4,39.6-12.7,59.7c13.2-10.4,26.9-20.7,40.9-31
	c7.2-5.2,14.4-10.5,21.8-15.7c8.2-6.6,15.8-12,22.2-21.1c14.8-20.3,29.2-40.8,43.4-61.5c2.1-3.4,4.9-7.2,7-10.1
	c2.4-3.5,4.7-6.9,7.1-10.4c2.5-3.3,2.8-7.8,0.7-11.3c-0.8-1.3,1.9-3.6,2.8-4.8c1.1-1.6,3.4,6.1,4.5,4.5
	c8.4-12.3,81.2-119.4,105.1-152.4c3.5-7.7,5.6-11.6,8.1-19.6c0-0.1,1.2-2.2,1.2-2.3c2-0.6,3.5-3.1,5.2-3.6c0.6-0.2,1.2-0.4,1.9-0.6
	c-0.5,2-1.1,4.1-1.7,6.1c1.8-2.5,11-13,12.8-15.4c6.7-2.2,6,3.5,12.5,1c-8.2,10.7-16.4,21.6-24.4,32.5c2.4-0.6,4.8-1.1,7.1-1.7
	c7.6-1.9,15.4-2.3,23-4c0.9,1.7,2,3.2,3.3,4.7c-0.6,1.1-1.1,2.3-1.5,3.5c-6.2,1.4-12.5,2.3-18.6,3.9c-3.9,1-7.7,2-11.6,3
	c-6.4,1.6-11.7,6-15.1,9.2c-14.1,19.6-28,39.4-41.6,59.4c9.4-7.7,19.3-14.7,29.7-21.1c-0.1,2.8,0.2,5.6,1,8.3
	c-21,13.8-39.8,30.6-55.9,49.9c-11.9,17.5-23.7,35.1-35.6,52.6c-2,3.1-4.3,6.2-6.5,9.5c-14.6,21.3-29.3,42.6-44.4,63.6
	c-13.8,20.8,7.9,0.7,15-1.9c2.5,1.5,7.8,1.7,5.1,3.7c-4.4,3.2-9.1,6.4-17,12.1c-19.7,13.5-38.7,27.2-57.2,41.2
	c-25.4,19.2-49.5,38.8-72.4,58.2c1.8-0.5,3.6-0.9,5.4-1.4c3.2-0.9,6.5-1.6,9.7-2.6s6.5-1.9,9.7-2.9c6.5-1.9,13-3.7,19.4-6
	s12.9-4.2,19.4-6.5l19.3-7.2c26-10.1,51.4-21.5,76.2-34.2c25-13.1,49.6-27.7,73.9-43.7c24.1-16.2,47.6-33.8,70.6-52.7l17-14.6
	c2.8-2.4,5.7-4.9,8.5-7.4l8.3-7.7c5.5-5.1,11.1-10.2,16.6-15.4l16.2-16.1c11.3-11.2,22.7-22.9,34.1-34.4
	c11.6-11.6,23.7-23.4,35.6-35.1c47.7-46.3,97.1-91.6,148.3-136c6.8-5.9,13.7-11.9,20.6-17.8c25.7-22.3,52.3-44.7,79.9-67.4
	c28.6-39.4,47.3-110.1,52.3-143.5c2.5-23.6,3.2-47.4,2-71.1c-0.6-2.9-1.6-5.6-3-8.2c-2.1-3.6-4.2-7.2-6.2-10.8
	c-0.8-1.4-1.6-2.8-2.5-4.1c-2-2.4-4.5-4.4-7.3-5.8c-2.7-1.2-5.3-2.4-7.9-3.6c-0.8-0.3-1.5-0.7-2.3-1c-1.3-1.3-2.7-2.4-4.2-3.3
	c-0.4-0.7-0.9-1.5-1.4-2.1c-0.9-1.2-2.6-1.8-3.8-2.5c0.1-0.3,0.2-0.6,0.2-0.9c0.5-0.2,1-0.5,1.5-0.8c5.1,2.1,10.5,3.4,15.5,5.8
	l0.8,0.3c-0.4-0.7-0.9-1.5-1.3-2.3c0.2,0,0.3,0,0.5-0.1c1-0.2,1.9-0.9,2.4-1.8c1.1-0.3,2.2-0.6,3.4-0.7c0.6,0.1,1.1,0,1.6-0.2
	c0.3,0.2,0.6,0.3,0.9,0.5c3.3,5.7,7.5,10.8,11.2,16.2c-0.8-7.9-1.8-15.8-3.1-23.7c-0.6-3.8-1.4-7.5-2.1-11.3
	c4.4,5.1,0.3-0.7,5.7,3.2c6,35,11.5,84.4,9.5,118.4c-2.7,29-8.9,86-26.9,125.8c14.6-11.6,29.2-23,44-34.4c16-13,32.2-25.9,46.7-36.7
	c14.7-11,29.6-21.9,44.8-32.7c16.9-13.8,32.4-25.1,45.6-43.9c9.7-13.5,19.3-27.1,28.8-40.7c8.3,2.3,16.6,4.1,25.1,5.6
	c-3.8,5.4-7.6,10.8-11.4,16.2c45.8-32.2,91.9-63.6,138.4-94.3c4.3-4.8,8.6-9.7,13-14.6c10.6-20.2,14.4-54.2,14.4-70
	c-0.4-11.1-1.8-22.1-4-33c-0.5-1.3-1.1-2.5-2-3.6c-1.2-1.5-2.4-3.1-3.6-4.6c-0.5-0.6-0.9-1.2-1.4-1.7c-1.1-1-2.4-1.7-3.8-2.2
	l-3.9-1.2c-0.4-0.1-0.7-0.2-1.1-0.3c-0.7-0.5-1.4-0.9-2.2-1.2c-0.2-0.3-0.5-0.6-0.8-0.9c-0.6-0.4-1.2-0.7-2-0.9c0-0.1,0-0.3,0-0.4
	c0.2-0.1,0.4-0.3,0.6-0.5c2.5,0.6,5.1,0.9,7.6,1.6l0.4,0.1c-0.3-0.3-0.5-0.7-0.8-1l0.2-0.1c0.5-0.2,0.8-0.5,1-1
	c0.1,0,0.2-0.1,0.2-0.1c0.5,0,0.9-0.1,1.3-0.4c0.3,0,0.5-0.1,0.8-0.2l0.4,0.2c1.9,2.4,4.2,4.5,6.3,6.7c-0.9-3.6-1.9-7.2-3-10.8
	c-0.5-1.7-1.1-3.4-1.7-5.1c2.4,2.1,0.1-0.3,2.8,1.1c5.1,15.8,11.1,38.3,12.5,54.1c0.7,13.8,1.8,41.3-4.1,61
	c11.1-11.9,25.5-28.1,37.4-40c6.1-6.1,12.2-12.1,18.5-18.2c6.9-7.5,13.3-13.8,18.1-23.4c11.1-21.6,21.9-43.4,32.4-65.3
	c1.5-3.6,3.6-7.6,5.1-10.7c10-20.8,19.8-41.6,29.6-62.4c0.2-1,4.5-7.9,1.1-21.1c2.8-0.2,2.1-1.9,3.8-2.4c0.1,1.8,2.7,5.6,2.8,7.4
	c16.8-35.5,33.9-71,51.9-106c2.2-7.9,3.8-15.8,5-23.9c1.3-7.4-3.9-11.4-2.8-12.5c1.4-0.8,0.6-1.2,1.5-2c0.7,2,1.8,3.6,2.4,5.6
	c3.6-36.8-3.8-73.3-23-103.4c0.7-2,1.1-4,1.4-6.1c4.3,6.2,8.2,12.6,11.5,19.4c-0.9-8-0.7-16,0.5-23.9c0.8,0.4,1.6,0.8,2.4,1.1
	c-1.5,12.3-0.5,24.8,3.1,36.7c10.2,27.2,13.1,57.5,9.2,87.7c1.5-2.8,3-5.5,4.4-8.3c0.5,1.4,1.1,2.7,1.8,4
	c-10.6,21.8-11.2,37.2,0.3,23.5c0.1,0.9,0.6,3.6,0.2,5.1c-5,3.5-11,7-13.4,12.5c-10.6,20.9-25.7,50.9-35.8,72
	c-0.7,4.1,3.5-1,9.2-5.7c-1,3-1,3-2.6,6.9c-8.3,10.2-9.6,7.1-20.5,29c-8.8,18.5-17.5,37-26.3,55.6c-1.5,3.3-3.2,6.5-4.8,10
	c-10.8,22.6-21.7,45.1-33,67.4c5.6-5.1,11.2-10.1,16.9-15.1c0.4,0.8,1,1.4,1.7,2c1.2,1,2.3,2.1,3.5,3c0,1.8-0.1,3.6-0.3,5.4
	c-0.1,0.7-0.2,1.5-0.3,2.2c-22.8,20.7-44.5,41.8-65.1,63.1c-8.8,9.1-17.3,18.2-25.7,27.3c37.5-24.3,75.1-48.2,112.7-71.6
	c58.4-36.5,116.8-71.9,174.5-106.5c8.6-11,16-22.2,31.9-39.7c16.8-9.7,16.8-9.7,29.5-16.5c-7.5,12.4-15.5,23.6-20.8,31.9
	c11.7-7,37.6-23.2,69.6-43.7c0.9-2.8,1.8-5.5,2.7-8.3c24.4-77,47-156.7,67.3-238.1c1.6-1.2,3.3-2.4,4.9-3.6
	c4.1-2.8,8.3-5.3,12.6-7.6c3.9,1.7,7.9,3,11.8,4.6c2.2,0.9,4.6,1.4,7,1.4c-4.6,20.2-9.3,40.2-14.2,60.1
	c39-56.1,78.7-111.6,119.1-166.6c6.4-8.5,11.9-16.8,17.9-24.5c33-45.1,66.1-90.2,99.4-135.1c66.4-113.6,99.9-241.7,90.4-366.6
	c0.3-1.1,0.6-2.1,0.9-3.2c3.8-13.5,7.5-27,11.2-40.5c17,103.7,4.3,212.2-32.7,314.9c17.2-23.5,34.2-47.1,51.1-70.8
	c2.2,12.1,6.5,23.7,12.8,34.3c-32.1,44.7-64.4,89.1-97,133.3c4.4-2,8.8-4,13.2-5.9c1.1,6,3,11.9,5.5,17.5
	c-6.2,3.2-12.5,6.3-18.5,9.9c-7.3,4.3-14.6,8.6-21.9,12.8c-2.5,1.5-4.9,3.1-7.1,5c-37.3,50.6-74.4,101.3-111.5,152
	c-5.4,7.8-12.4,17.8-19,26.2c-38.9,53.7-77.1,107.9-114.7,162.4c-16.8,23.9-23.6,47.5-32.8,73.8c-2.9,10.5-5.9,20.9-8.9,31.3
	c72.5-46.7,155-100.7,184.9-122c23.6-14.7,35.3-43.9,47.8-69.1c6.7-2.6,19.4-2,23.5-2.3c-54.3,61.5,15.2,48.4,106.8-14.6
	c6.3,2.2,12.8,4.1,19.3,5.7c-11.5,8.6-23.1,17.2-34.7,25.8c66.2-18.9,134.3-30.2,203-33.5c5.5-1.8,11.1-3.6,16.6-5.3
	c1.2-0.4,15.6-31.2,25.3-60.5c0.2-0.5-11.3-9.3-11.1-9.9s1.2-0.6,1.4-1.1c0.3-0.8,11.4,8.3,11.7,7.5c4.3-8.1,9-24.7,10.8-33
	c4.3-20,3.2-33.8,4-34.1c1.2-0.4,1.4,0.3,1.5,2.5c0,0.4-2.9,25-1.9,28.9c0.2,0.8,0.7,2.3,0.9,3c0.5,1.8,7.5-18.3,7.6-18.1
	c0.1,1.9,1.8-2.7,2.8-3c1.6-0.5-44.9,115-43.4,114.5c2.4-0.7,14.4-4.4,16.8-5.1c20.2-6.3,40.4-12.6,60.6-18.9
	c36.4-15.7,68.9-38.2,94.8-66c0.5-0.5,1.2-29.8,1.7-30.3c0.5-0.5,1.9,3.6,2.3,3.1c0.7-0.8,0.3,22.4,1,21.6c2.8-3.2,5.6-6.5,8.2-9.9
	c0.5,2.2,2.7,3.6,4.9,3.1c0.1,0,0.2-0.1,0.3-0.1c1-0.2,1.8-0.4,2.6-0.7c-18.9,25-42,46.7-68.1,64.1c11.7-3.7,23.5-7.5,35.2-11.4
	c-2.3,4.7-3.7,9.7-4.2,14.9c-22.1,7.2-44.3,14.2-66.4,21.1l6,1.3c-1.1,2.3-2,4.8-2.5,7.3c-2.9-0.5-5.8-1-8.8-1.3
	c-3.6-0.4-7.1-0.7-10.7-1.1c-1.2-0.1-2.4-0.1-3.7-0.1c-17,5.3-34,10.6-51,15.9c52.5,0.3,104.9,6,156.2,16.9
	c57.5,7.9,115.2,4.3,168.5-10.9c2.1,3.5,4.4,6.9,6.7,10.2c-35.1,10.8-71.5,17-108.2,18.4c32.9,10.5,64.9,23.6,95.8,39
	c-9.3,2.3-18.2,5.7-26.6,10.2c-23.9-10.7-48.4-19.9-73.4-27.7c13.1,9.1,24.9,16.4,34.9,21.1c0.3,1.7,0.9,3.3,1.7,4.9
	c-7.6-3.5-13.5-6-12.2-3.6c6.8,12.3,26.5,30.5,26.3,31.1c-0.4,1.2-1.4,0.6-2.6,1.3c-0.7,0.4-23-27.2-35.5-33.9
	c-2.3-1.2,6.2,45.2,3.5,43.8c-2.1-1.2-5.1-1-5.3-3.6c-1.5-21.4-10.5-44.7-21-52.7c-7.7-5.8-15.4-11.8-23.1-17.9
	c-121.4-31.1-251.7-29-378.2,2.6c9.6,1.4,17.7,4.9,27.1,6.9c-3.1,4.7-5,1.3-7.9,8.3c-4.6,5.6-26-15.3-58.9-4.4
	c-35.8,10.8-70.9,23.8-105.1,38.9c-26.4,18.9-69.8,49.4-116.3,81.8c10.1-0.5,20.2-1.1,30.3-1.7c4.8-0.5,10.3-0.7,14.6-0.9
	c28.2-1.8,56.5-3.8,84.7-5.7c1.2-0.4,2.4-0.9,3.6-1.5c3.4-1.8,6.8-3.5,10.2-5.2c2.8-1.4,5.5-3,8.2-4.7c1.5,2.3,3.3,4.4,5.3,6.3
	l-5.4,3.6c24.7-1.7,49.4-3.3,74.1-4.7c2.5,4.9,5.9,9.4,10,13.1c-13.1,0.7-26.2,1.5-39.3,2.3c48,10.7,92.3,32.1,127.6,63.6
	c-6-1.9-12.1-3.7-18.1-5.5c-0.5-0.2-1-0.3-1.4-0.4c-45.2-33.8-102-52-161.3-54.1c-18.9,1.3-37.8,2.6-56.8,3.9
	c22.7,15,43.6,26.7,58.1,31.5c0.3,1.1,0.8,2.2,1.5,3.1c-5.2-1.7-9.3-2.8-8.3-1.4c5.4,7.7,19.8,18.2,19.7,18.7
	c-0.2,0.9-0.9,0.5-1.6,1.1c-0.4,0.3-17.2-16.3-26-19.7c-1.6-0.6,7.6,29.9,5.8,29.2c-1.5-0.6-3.4-0.2-3.8-1.9
	c-2.7-14.3-10.4-29.2-17.9-33.6c-13.9-8.2-28-17.1-41.4-26l-4.7,0.3c-4.4,0.4-8.9,0.5-13.6,0.9c-25.1,1.6-50.1,3.1-75.2,4.3
	l-6.3,4.4c5.2,1.8,10.5,3.6,15.7,5.5c-0.6,0.9-1,1.9-1.2,3c-0.3,1.9-0.8,3.7-1.1,5.6c-1.9,1.1-3.9,2.1-5.9,3l-2.5,1
	c-7-2.3-14-4.6-21.1-6.9c-71.6,49.7-140.2,96.9-156.2,107.3c-43.4,29.4-86.8,58.6-130.4,87.7c8.1-0.7,27.4,8.4,35.4,7.8
	c-1.3,7.9-9.5,5.7-8.5,18.8c-62.1-6.6-90.5,17.4-95.1,19c-44.7,29.9-89.4,59.8-134.1,89.7c-77.9,54.8-155.2,111.4-230.7,170.2
	c-36.4,28.3-72.3,57.2-107.8,86.5c7.8-0.3,15.6-0.6,23.4-0.9c18.3-1.8,34.5-2.5,52.6-9.5c41-15.5,81.8-31.7,122.5-48.2
	c6.4-3,14-5.9,19.9-8.1c38.5-15.8,76.8-31.8,115.2-47.8c1.6-1.1,3-2.4,4.3-3.8c3.9-4,7.8-8.1,11.7-12.1c3.2-3.3,6.3-6.8,9.3-10.3
	c3.2,2.5,6.7,4.6,10.4,6.2c-2,2.5-3.9,5.1-5.9,7.6c33.6-14,67.2-27.8,101-41.4c5.8,5.7,12.6,10.3,20,13.6
	c-17.9,7.2-35.8,14.4-53.6,21.7c36.9-4,74.2-3.4,111,1.8c5.3-1.9,10.7-3.8,16-5.6c6.5-2.7,12.4-4.8,18.2-9.3
	c13.3-10.2,26.5-20.7,39.6-31.3c2-1.8,4.5-3.7,6.4-5.2c12.4-10.1,24.7-20.2,37-30.4c0.4-0.6,0.8-1.2,1.2-1.9c1-1.9,2-3.8,2.9-5.7
	c0.8-1.6,1.5-3.2,2.2-4.8c1.5,0.6,3,0.9,4.5,1.1c-0.4,1.2-0.9,2.3-1.3,3.4c10.8-8.9,21.6-17.7,32.4-26.4c2.8,1.4,5.8,2.4,8.9,2.8
	c-5.8,4.6-11.5,9.3-17.3,13.9c25.5-10.8,52.8-15.5,79.3-12.7c-3.4,1.1-6.7,2.2-10.1,3.4l-0.8,0.3c-31.8-0.7-63.8,9.6-91.6,28
	c-10.9,9-21.9,18-32.9,27.1c-1.9,1.6-3.9,3.2-6,4.9c-13.4,11-26.9,21.8-40.5,32.5c5-1.5,10-3,15-4.4c0,0.6,0.2,1.2,0.4,1.8
	c0.5,1,0.9,2,1.3,2.9c-0.5,1.1-1.1,2.2-1.8,3.3l-0.8,1.3c-14.7,4.5-29.1,9.3-43.2,14.4c26.6,5.1,52.5,13,77.5,23.5
	c-9.3,0.2-18.5,0.5-27.8,0.8c-0.7,0-1.5,0.1-2.2,0.1c-78.8-25.7-166.5-24.3-250,0.5c-34.1,14.2-68.3,28.4-102.5,42.7
	c-5.9,2.6-12.1,4.9-18.6,7.7c-41.8,17.2-83.7,34.1-125.8,50.4c13.6,0,27.2,0.1,40.9,0.3c-0.4,1.5-0.5,3.1-0.2,4.7
	c0.4,2.8,0.6,5.6,1.1,8.3c-2.2,2.4-4.5,4.7-6.9,6.9c-1,0.9-2,1.7-3.1,2.6c-55.5,0.2-110.3,2.2-163.7,5.8c-4,0.3-8,0.6-12,0.8
	c-56.4,47.5-111.2,96.1-164,145.9c-47.9,45.1-94,91-138.5,137.6l-32.6,34.9c-11,12-21.7,23.9-32.9,35.9l-17.4,18.6
	c-5.9,6.1-12,12-17.9,18l-9,9c-3,2.9-6.2,5.8-9.2,8.7c-6.2,5.8-12.3,11.6-18.5,17.2c-25.2,22.4-51.3,43.6-78.2,63.4
	c-26.9,19.4-54.8,37.4-83.5,54c-28.4,16-57.6,30.6-87.4,43.6l-22.2,9.3c-7.4,3-14.9,5.7-22.4,8.5s-15,5.4-22.4,7.9l-11.2,3.8
	c-3.7,1.3-7.5,2.3-11.3,3.5c-29.5,9.2-59.5,16.9-89.8,23c-11.7,2.4-23.4,4.5-35,6.5c41.9,10.1,83.6,20.6,125,32
	c29.2,8,87.4-53.8,96-51.7c17.2,4.2,20.5,12.3,37.6,16.5c12.9,3.1-103,45.1-17.7,63.4c11.7,2.5,23.3,5.5,35,8.3
	c94.6,22.2,189,42.7,283.5,59.6c55.7-38.4,114.3-77.1,171.9-112.5c33.4-20.5,66.7-86.9,77.1-150.1c1.3-7.7,10.2-6.3,16.7-9.1
	c8.3-3.5-30,131.9-22.7,128.9c39-16.2,112.7-91.8,114.8-90.4c3.4,2.4,6.5,0.7,7.5,4.5c0.5,2.1-63.1,50.4-86.7,84.9
	c-4.5,6.6,13.8,1,37.2-7.3c-2.9,4.2-5.1,9-6.4,13.9c-64.4,23.2-156.7,77.1-256.7,146.2c34.9,5.7,69.8,10.8,104.7,15.4
	c98.5,12.6,197.1,19.8,295,18.6s194.9-10.9,289.2-31.8c19.9-4.3,39.6-9.3,59.2-14.7c27.6-21.1,56.1-40.8,85.5-59.2
	c174.7-127.9,275.8-336.3,217.8-549.2c-2.6-9.2-5.5-18.3-8.7-27.4c-2.1-6-4.1-12-6-18.1c-0.3-1.1-16.6-10.9-16.9-12s1.2-0.7,0.9-1.7
	c-0.3-1.1,13.6,5.4,13.3,4.3c-2.2-8-4.2-16.1-6-24.3c3.7-1.2,6.9-3.6,9.1-6.9c4.5,18.9,10.1,37.5,16.9,55.6
	c32.3,89,35.3,179.6,15.5,265.2c3.3-3.9,6.7-7.7,10.1-11.4c17.1-21.3,29.7-45.8,36.9-72.2c2,0,3.9-0.1,5.9-0.3
	c-4.2,17.1-10.6,33.7-19,49.2c12.4-11,25.6-21,39.6-29.9c-1.3,4.4-2.1,8.9-2.3,13.5c-10.3,7.2-20.1,15.1-29.5,23.5
	c6-2.6,11.8-5.7,17.2-9.2c0.8,0.3,1.6,0.5,2.4,0.5c-3.3,2.3-5.8,4.1-4.5,4.1c6.7,0.2,19.1-3.4,19.3-3.2c0.4,0.5-0.1,0.7-0.1,1.4
	c0,0.4-16.9,2.8-22.7,6.3c-1.1,0.7,20.2,8.6,18.9,9.3c-1,0.6-1.7,1.9-2.8,1.3c-9.2-4.7-21-6.6-26.9-4.3c-4.3,1.8-8.7,3.5-13.1,5.1
	c-13.3,13.3-25.6,27.7-36.5,43c0-0.1,0-0.2,0-0.3c-25.4,87.7-74.5,169.6-140.2,238.5c45.3-22.3,92.3-41.1,140.5-56.2
	c-7.4,11.9-13.3,24.6-17.6,37.9c-64.3,23.3-126,53.3-184,89.6l0.7-0.2l36-14l70.8-28.2c94.7-38.1,190.1-76.8,286.4-113.6
	s193.8-72.1,293.6-103.1c49.9-15.4,100.5-29.8,152.2-41.9c26.5-6.2,53.3-11.8,80.6-16.5c69-20.1,137.7-54.1,202.5-107.1
	c9-7.4,24.6-18.6,44.7-32.1c0.6-1.5,1.1-3,1.7-4.5l0.7-2c0.3-0.8,2.1-8.6-1-11.8c-1-1,0-0.4,0.1-1.3c0.3-2.6,4,3.2,4.7,0.8
	c1.9-6.9,3.3-13.9,4.2-20.9c0.6-4.3,0.9-8.6,1-12.9c0.1-4.6-0.1-9.3-0.6-13.9c-0.7-6.5-2.3-12.9-4.7-19.1l0.4-0.4
	c0.4-0.5,0.9-1,1.3-1.4l0,0l0.1-0.2c0.3-0.4,0.6-0.8,0.9-1.1c3.2,6.9,5.3,14.2,6.4,21.7c0.2,1.6,16.2-10.8,17.5-11.8
	c1.5-1.2,1,1,1.1,2.2c0.1,1.4-18.8,8.5-17.5,22.1c0.1,0.7,0,1.4,0,2.1c0,1.5,0,2.9,0,4.3c-0.1,3.1-0.3,6.2-0.6,9.1
	c-0.8,7.3-2,14.6-3.7,21.8c-0.9,3.7-1.9,7.5-3.1,11.4c85-57,236.2-150.4,320.4-199.1c25.4-34.1,56.7-74.7,88.1-110.8
	c10-11.5,14.7-40.2,11.2-64.9c-0.4-3,3.1-3.5,5.2-5.3c2.7-2.3,4.2,52.6,6.6,50.7c12.6-10.6,31.3-47.4,32.2-47.1
	c1.5,0.5,2.5-0.5,3.3,0.8c0.4,0.7-17.6,26.1-22.4,41.7c-0.9,3,5.2-1.2,13-7c-0.6,1.9-0.8,3.9-0.8,5.9
	c-26.8,20.4-64.5,64.1-101.5,114.9c105.9-61.4,316.5-146.3,318.9-146.8c24.5-6,91.3-51.4,111.2-60.1c-0.3-6.4-0.5-12.8-0.9-19.2
	c0.4-0.5,0.8-1,1.1-1.5c0.9-1.2,1.9-2.3,3-3.4c1.3,0.2,2.6,0.2,3.9,0.3c0.7,0.1,1.5,0,2.2-0.2c0.5,6.4,0.9,12.8,1.3,19.2
	c6.5-20.3,13.2-40.4,20.1-60.5c1.1-3.1,2-6.1,3.1-9c5.7-16.5,11.4-32.9,17.2-49.3c9.3-39.9,7.5-81.1-6.8-117.4c0-0.3,0-0.7,0-1
	c-0.1-4.4-0.2-8.7-0.4-13.1c14.6,29.3,20.8,62.8,19.2,96.7c2.9-8.6,5.8-17.2,8.7-25.8c1.8,3.4,4.1,6.4,6.9,9
	c-5.4,16.2-11,32.4-16.6,48.6l3.4-3c0.9,1.7,2,3.3,3.2,4.7c-1.6,1.5-3.1,3-4.6,4.6c-1.8,1.9-3.6,3.9-5.3,5.8
	c-0.6,0.7-1.2,1.4-1.7,2.1c-6.4,18.5-12.9,37-19.2,55.5c-0.9,2.8-2.1,6.4-3.2,9.6c-3.9,11.4-7.6,22.8-11.4,34.2
	c68.9-50.8,121.4-121.5,163-198.8c0.7-24.8-1.5-49.7-6.7-74c2-4.3,4-8.4,6.1-12.6c3.7,14.2,6.2,28.6,7.7,43.2
	c1.4-6.3,20.9-53.5,23.2-58.2c0.6,1.9,1.3,3.9,2.1,5.8c-0.3,0.3-0.5,0.6-0.8,0.9c-10.7,23.9-15.8,43.3-19,68.7
	c-0.5,10.9,4.4,4,5.1,2.4c25.8-51.4,42.3-105.9,60.9-158c3-8.5,14.7-37.8,28.4-86.5c0.5-1.9-5.6-26.4-5-28.4c0.5-1.8,2-0.4,2.5-2.2
	s6.7,15.9,7.2,14.2c6.3-22.2,15.5-54.6,24.8-87.6c-0.2-17.9-2.4-43.8-8.7-81.4c-0.1-0.6-2.9-2.7-5.5-4.7c-0.5-1.1-0.8-2.2-1.2-3.4
	c-0.1-0.5-0.2-1.1-0.2-1.6c1.9,0.7,5.7,2.5,5.6,1.8c-1-5.7-2.1-11.7-3.2-18c-0.6-3.2,2.5,2.2,5.2,0.3c4.5,14.6,7.8,29.6,9.9,44.8
	c0.1,0.5,2.3-1.9,4.6-4.2c-0.2,0.4-0.3,0.8-0.3,1.2c0,0.2,0,0.4,0,0.6c0,0.2,0,0.3,0,0.5c0,0.5,0.1,1,0.3,1.4
	c-0.1,0.7-0.2,1.4-0.4,2.2c-0.3,1-0.6,2-0.7,3c-0.9,1.2-1.7,2.4-2.3,3.8c1.4,11.1,2.4,21.7,3.3,31.4
	c21.1-62.8,44.5-148.7,48.9-196.8c-0.2-5.5-0.4-11-0.5-16.7c-0.3-11.2-0.4-22.9-0.4-34.9l2.7-2.1c0.6,0.2,1.2,0.3,1.9,0.3
	c0.4,0,0.7,0,1.1-0.1c0,11.9,0.1,23.6,0.4,34.8c0,0.7,0,1.5,0.1,2.2l1.6-7.5c1.6-7.2,3.3-14.5,5.1-22c-0.6-2.6-1.3-5.2-2-7.7
	c0.3-0.1,0.6-0.2,0.9-0.3c0.2,0.8,0.5,1.7,0.7,2.5c0.3-1.1,0.5-2.1,0.8-3.2c0.6-0.3,1.2-0.7,1.7-1.2c3.2,0.6,6.5,0.4,9.6-0.7
	c-2.5,10-4.8,19.8-7,29.3c0.4,2.9-13.1,64.3-14.5,71.7c5.7-11.1,11.9-22,18.2-32.5c7.7-12.8,15.5-25.1,23-37.2
	c1.7-0.2,3.4-0.6,5-1.4l0.4-0.2c0.6,0.1,1.3,0.2,1.9,0.2c-0.1,3,0.6,6,2.1,8.6c-4.9,8.2-10,16.5-15,24.9c9.4-10,19.1-19.6,28.8-28.9
	c0.8,0.4,1.5,0.8,2.3,1.2c-1.6,2.6-3.2,5.2-4.8,7.8c-0.8,1.3-1.5,2.6-2,4.1c-8.2,8.2-16.4,16.5-24.2,25.3
	c-5.9,6.5-11.6,13.3-17.1,20.2c-4.8,8.8-9.3,17.8-13.5,26.9c-6.1,13.1-11.5,26.6-16.3,40.2c-7.2,22-14.8,48.1-23.5,78.2l4.4-6.6
	c6.1-8.8,13.4-18.6,22-28.8c20-23.9,42.6-45.5,67.2-64.5c10-7.8,20.7-15.3,32-22.6c-0.1,1.3,0,2.5,0.3,3.8c-0.4,0.6-0.9,1.2-1.3,1.8
	c-1.1,1.6-1.7,3.5-1.9,5.4l-0.1,0.1c-0.4,0.4-1,1.2-1.2,1.4l-0.5,0.4l-0.1,0.1c-2,1.3-3.9,2.7-5.7,4.4c-0.7,0.7-1.3,1.5-1.8,2.3
	c-4.8,3.4-9.5,6.9-14,10.4c-4,3.1-7.9,6.3-11.8,9.4c-1.9,1.6-7.9,4.3-5.5,4.7c3.9,0.6,7.7,1.6,11.3,3l-1.8,0.7
	c-0.6,0.2-1.2,0.7-1.5,1.3c-0.2,0.1-0.5,0.2-0.7,0.4c-0.2,0.1-0.3,0.3-0.4,0.4l-2,1c-5.6-0.4-11.5-0.9-12.1-0.3
	c-14.7,13.2-28.4,27.5-41.1,42.6c-8.4,10-15.5,19.6-21.4,28.1c-2.9,4.3-5.7,8.3-8,12.2c-1.2,1.9-2.4,3.7-3.4,5.5s-2.1,3.4-3,5
	c-1,1.6-1.8,3.1-2.6,4.5s-1.5,2.8-2.2,4s-1.3,2.4-1.9,3.4s-1.1,2.1-1.5,3l-0.2,0.4c-16.1,56.6-35.7,124.8-61.2,204.5
	c29.2-24.4,53.3-47.8,65.7-65.2c1.6,0,3.2-0.3,4.7-0.8c-4.4,6.3-7.6,11.4-5.3,10.6c12.3-4.2,32.1-19.3,32.7-19
	c1.1,0.6,0.3,1.4,0.8,2.6c0.3,0.7-28.6,16.6-36.7,26.9c-1.5,1.9,42.3,1.7,40.6,3.9c-1.4,1.7-1.7,4.5-4.1,4.3
	c-19.8-2.1-42.5,2.3-51.5,10.7c-17.2,16-35.6,31.9-53.5,46.8c-13.5,41.7-28.7,86.5-45.8,134.2c-12.5,34.8,23.2,18.7,22.1,21.2
	s3.1,6.7,2,9.2c-27.6,5-38.9,24.7-48.5,39.7c-66.7,104.4-135.6,162.1-199.1,205.6c39.8-5.9,106.2-26.1,167.6-46.7
	c33.6-13.3,67.1-26.5,100.7-39.7c60.5-31.6,115.4-71.5,162.1-118.3c2.6-1,5.2-1.9,7.8-2.8c0.5-0.2,0.8-0.3,1.1-0.4l0.3-0.1l0.6-0.2
	c2-0.1,4-0.3,6-0.6c2.1-0.2,4.2-0.5,6.4-0.7c0.2,0,0.5,0,0.9,0c3.1-0.1,6.2-0.7,9.1-1.8c-26.8,30.2-56.4,57.9-88.2,82.8
	c57.2-23,114.1-46.3,170.7-70.5c9.7-6.8,23.7-17.5,31.2-32.4c4.6-9.1,9.2-18.1,13.9-27.2c2.3-4.5,4.5-9.1,6.6-13.8
	c1.9-0.2,3.8-0.7,5.7-1.4c0.4,0,0.8,0,1.1,0c2.4-0.1,4.8-0.2,7.2-0.4c2.7,1.9,5.9,3.2,9.2,3.6c-4.1,10.7-8,21.4-13.2,31.8
	c-2.7,5.3-5.3,11-8.1,16.7c18.7-8.2,37.3-16.6,55.9-25c6.9,0.2,13.7-0.8,20.9-0.3c3.9,0.2,7.8-0.7,11.2-2.6c1.3,0.5,2.6,1,3.9,1.6
	l0.8,0.4l1,0.6c0.6,0.3,1.1,0.7,1.7,1.1c1.1,4,3.3,7.5,6.4,10.2c-19.2,8.9-38.4,17.7-57.7,26.3c79.7-5,158.8,7.9,228.1,39.3
	c79.4,29,168.9,16.7,225.5-48.2c2.4-2.9,4.8-5.8,7-8.8c1.5-2,3-3.9,4.6-5.8c0.3-0.3,0-7.8,0.2-8.1c0.2-0.3,0.5,0.2,0.7-0.1
	c0.2-0.3,1.2,5.6,1.5,5.2c2.1-2.5,4.3-4.9,6.6-7.2c1.2,0.9,2.7,1.5,4.2,1.4c-5.2,5.5-10,11.4-14.4,17.5
	c-46.9,63.8-125.1,85.3-200.7,72.1c17.1,9.9,33.3,21,48.7,33.4c-5.5,0.2-10.9,1-16.1,2.5c-72.6-53.6-163.1-79.3-256.5-78.3l-5,2.3
	c20,8,38.8,18.7,55.9,31.9c-4-0.4-8.1-0.6-12.2-0.7c-22-14.8-46.5-25.6-72.3-32c-21.3,1.7-42.5,4.7-63.5,9
	c-62.3,27-125.1,52.8-188,78.2c25.3,7.2,49.4,17.3,64.3,23.7c26.6,12.6,61.9,37.4,86,56.5c0.7,5.7-2,0.2,0.1,5.6
	c-2.5-2.1-5.1-4.2-7.7-6.2c-5.5-4.3-11.1-8.3-16.8-12.2c2.6,5.1,4.8,10.4,7.7,15.2c0,0.3,0,0.6,0,0.9c-0.4,0.3-0.7,0.7-0.8,1.2
	c-0.8,0.4-1.4,1.1-1.6,1.9c-0.1,0.1-0.2,0.2-0.3,0.3c-0.9,0-1.7,0.4-2.3,1.1c-0.1,0.1-0.2,0.2-0.2,0.3c-0.4-0.6-0.8-1.3-1.2-1.9
	c0,0.3,0,0.5-0.1,0.8c-0.4,4.8-1.6,9.4-2.1,14.2c-0.5,0.2-0.9,0.4-1.3,0.8c-0.3-0.1-0.5-0.2-0.8-0.2c0-1.2,0.2-2.8-0.3-4
	c-0.3-0.7-0.6-1.3-1-1.9c-0.1-1.6-0.3-3.1-0.7-4.6c0.1-0.7,0.2-1.4,0.2-2.1c0.2-2.5,0.3-5,0.5-7.5c0.1-2.7-0.3-5.4-1.3-7.9
	c-0.7-1.2-1.4-2.4-2.1-3.6c-1.9-3.1-3.8-6.1-5.7-9.2c-1.4-2.1-3-4.1-5-5.7c-17.5-10.8-35.8-20.2-54.8-28.1
	c-16.6-6.1-45.4-14-74.9-18.2c-17,6.8-33.9,13.5-50.9,20.3c0.8,1-42.2,14.8-12.2,12.2c-2.2,5.5-3.7,11.2-4.5,17.1
	c-6.7-0.6-13.4-1.2-20.1-1.4c-8.1-0.2-16.3-0.5-24.5-0.8c-1,0-2.1,0-3.1,0c-73.3,27.7-143.1,57.7-218.9,84.7
	c-11.8,4.2-23.7,8.6-35.8,12.8c4.8,1.4,9.9,2.7,15.4,3.9c0.6,0.1,6.4-4.3,7.1-4.2c0.9,0.2,1.8,2.1,2.7,2.2c0.9,0.2-3.7,3.2-2.9,3.3
	c4.6,0.9,9.5,1.6,14.5,2.2c-1.4,2.9,0.4,0.3-1.4,3.5c-14.2-0.3-28.7-4.2-42.3-8.7c-14.4,4.9-29.2,8.7-44.2,11.4
	c-75.1,12.4-157.5,43.2-242.3,84.3c17.6-3.8,35.6-8,53.8-12.7c19.4-5,39-10.5,58.8-16.6c8.1-2.3,12.9-3.8,17.4-5
	c2.7-0.8,0,2.9-0.3,5.5c-5.6,3.5-30.9,7.3-9.3,9.2c22.4,1.1,44.7,2.6,67.1,4.2c3.5,0.3,6.8,0.4,9.9,0.7c18.3,1.3,36.6,2.8,54.9,4.2
	c21.8-0.6,43.3-4.3,64-11.1c1.4,2,3,3.7,5,5.2c-9.9,3.6-20,6.6-30.3,8.8c20.9,1.5,41.8,2.8,62.7,3.8c4-0.6,9.9-1.8,14.4-5.3
	c2.8-2.1,5.5-4.2,8.3-6.3c4.4-3.3,8.4-7.1,12.6-10.5c1,0.4,2.1,0.6,3.2,0.8c0.3,1.6,0.8,3.2,1.4,4.7c-5.2,4.2-9.7,9.3-15.1,13.4
	c-1.6,1.2-3.2,2.6-4.9,3.9c15,0.6,29.9,1,44.9,1.1c4.5,2.1,9.1,3.8,13.9,5c0.4,1.7,1.2,3.3,2.1,4.8c-6.9,0.1-13.8,0.1-20.7,0.1
	c-9.5-0.1-19-0.3-28.4-0.6c25.2,10.3,47.5,26.1,64.1,46c4.4,4.5,9.2,8.6,14.5,12c0.7,1.4,1.4,2.9,2.2,4.2c-3-1.6-5.8-3.4-8.5-5.4
	c3.8,5.6,7.1,11.4,10,17.5c-1.7-0.8-3.5-1.3-5.3-1.6c-14.9-28.3-40-50.2-70.2-63.7c5.5,5.8,10.1,12.4,13.7,19.5
	c-1.2-0.7-2.4-1.4-3.6-2c-4.6-7.8-10.5-14.8-17.5-20.6c-6.8-2.7-13.7-4.9-20.8-6.7c-35.2-1.5-147.1-9.8-160-10.8
	c-1.7-0.1,2.3,5.6,0.6,5.4c-1.3-0.1-4.3,0.5-4.8-0.7c-1.3-3.4-4.5-5.6-8.1-5.7l-10.9-0.8c-3.1-0.2-7.1-0.3-10.6-0.7
	c-21.7-1.5-43.4-2.8-65.1-3.7c-9.6-0.5-17.3,1.7-26.2,3.7c-7.5,2.2-14.9,4.3-22.4,6.3c-14.5,4-28.9,7.7-43.1,11
	c17.1,6.6,37,16.9,47.4,23.6c10.9,7.5,21,16.2,30.1,25.8c0.2,1.5,0.5,3,1.1,4.4c-0.8,0.5-1.6,1.1-2.2,1.9c-1.9-2-3.9-4-5.8-5.9
	c0.8,2.6,1.5,5.3,2.5,7.9c0,0.1,0,0.3-0.1,0.4c-0.2,0.1-0.4,0.3-0.5,0.5c-0.4,0.1-0.7,0.4-0.9,0.8c-0.1,0-0.1,0.1-0.2,0.1
	c-0.4-0.1-0.9,0.1-1.2,0.3c-0.1,0-0.1,0.1-0.1,0.1c-0.1-0.3-0.3-0.7-0.4-1l-0.1,0.4c-0.5,2.3-1.5,4.4-2.1,6.6
	c-0.2,0-0.5,0.1-0.7,0.3c-0.1-0.1-0.2-0.1-0.4-0.2c0.2-0.6,0.2-1.3,0.2-1.9c-0.1-0.3-0.2-0.7-0.3-1c0.1-0.7,0.1-1.5,0-2.2
	c0.1-0.3,0.2-0.6,0.3-1c0.3-1.2,0.5-2.4,0.8-3.5c0.3-1.3,0.3-2.6,0-3.9c-0.2-0.6-0.5-1.3-0.7-1.9c-0.7-1.6-1.3-3.2-2-4.8
	c-0.5-1.1-1.1-2.2-1.9-3.1c-7.5-6.5-15.5-12.4-23.9-17.7c-12.3-7-40.5-19.1-60.8-19.8c-12.9,2.9-25.7,5.5-38.2,8
	c-73,38.2-147.1,83-219.1,129.5c-19.8,12.7,1.8,13-2,15.5c-8.6,5.7,1.8-0.6-8.3,6.2c-4.9,3.3-12.8-6.4-25.4,2.1
	c-22.3,15-44.4,30.1-66.1,45.3c3.8,1.2,7.4,2.4,10.9,3.6c6.3,2.2,12.2,4.5,17.8,6.7c28.8-2.8,57.7-2.9,86.5-0.2
	c5.2,0.5,49.3,2.6,65.5,1.9c1.1,0,7.1-7.9,8.2-7.9c1.1,0,3.8-0.6,4.9-0.6c1.3-0.1-3.8,8-2.5,8c15.5-1,30.9-2.9,46.1-5.6
	c-2.1,2.2-3.1,5.3-2.6,8.4c-34,7-114.5,7.8-119.6,7.4c-9.4-0.7-18.7-1.2-28.1-1.4c-10.8-0.1-21.5,0.2-32.1,0.8
	c5.3,2.1,11,4.4,17.1,6.7c13.3,5,28.3,10,42.8,12.3c4.6,0.8,18.5,1.6,20.7,1.4c5.8-0.2,11.5-1.1,17-2.6c3.8-1.1,7.5-2.5,11-4.2
	l3.8-2.1l-3.8,2.2c-3.5,1.8-7.1,3.4-10.9,4.6c-5.5,1.7-11.2,2.8-17,3.1c-2.2,0.2-16.4-0.2-20.9-0.8c-14.7-1.9-30-6.5-43.5-11.1
	c-9.1-3.1-17.5-6.3-24.5-8.9c-36.9,2.9-73.2,10.3-108.2,22.1c-39.4,28.4-77.2,56.4-112.5,82.8c-5.6,4.2-11.1,8.2-16.6,12.3
	c13.3-0.9,26.6-1.9,39.9-3.2c49-4.9,97.6-12.4,145.8-22.4c97.1-19.8,193.8-48.7,292-77.9c98.2-29.2,198.6-58.4,302.8-76.7
	c42.9-7.6,86.1-13.1,129.5-16.4c-0.4-0.6-0.7-1.1-1.1-1.7c3.6,0.4,7.2,0.6,10.9,1c6.3-0.4,12.5-0.8,18.8-1.1
	c50.1-2.5,100.4-1.5,150.4,3.1c37.2-2.2,75.4-6,114.7-11.5c7.9-3.5,16.4-7.3,25.8-12.2c6.4-3.3,12.9-6.3,19.9-10.3
	c7-4,14.3-8,21.9-12.1c8.1-4.7,16.6-9.7,25.4-15c9.3,0.5,18.7,0.3,28-0.5c-20.5,13-39.7,24.7-57.5,34.9l-13.3,7.4
	c31-5.4,204.1,20.7,363.8-95.3c2.5-1.8-16-66.3-13.4-67.9c2.1-1.3,0.6-5.6,2.7-7c1.7-1.1,20.4,67.7,22.1,66.6
	c8.1-5.4,16-11.2,23.7-17.2c4.1,2.7-2,7.2,3.2,7.6c9,0.6-9.8,18.3-1.1,17.8c-34.8,23.6-76.5,59.5-102.2,74.2
	c20.7-2,250.7-30.5,397.7-147.3c3.6-0.7,7.3-1.4,11-2.1l1.6-0.3c0.1,0,0.2,0,0.4,0c0.3,0,0.6-0.1,0.9-0.1c2.7,0.2,5.4,0.4,8.1,0.6
	c2.9,0.2,5.8,0.2,8.7,0.4l1.2,0.2c4.2,0.6,8.4,0.4,12.6-0.4c-42.4,34.5-87.9,65.1-135.8,91.3c81.4-18.2,162.5-37,243.3-56.9
	c14.5-6.9,35.5-18.2,48.8-36.4c8.1-11.1,16.3-22.2,24.5-33.3c4.1-5.5,8-11.2,11.8-16.9c2.6,0.1,5.3-0.1,7.9-0.7
	c0.5,0.1,1,0.2,1.5,0.2c3.2,0.4,6.4,0.7,9.7,0.9c3.2,3.2,7.2,5.5,11.6,6.8c-7.8,13.4-15.4,26.9-24.6,39.6
	c-4.7,6.5-9.5,13.5-14.4,20.5c26.8-6.9,53.5-13.9,80.1-21.2c9.2,1.7,18.5,2,28,4.1c5.2,1.1,10.5,0.8,15.5-1c1.6,0.9,3.3,1.9,4.9,3
	l1,0.7c0.3,0.3,0.7,0.6,1.2,1.1s1.3,1.2,2,1.8c0.6,5.5,2.7,10.8,6.3,15.1c-27.5,7.7-55.1,15.2-82.7,22.6
	c107.6,10.5,210.4,45,296.1,102c99.7,56,221.9,59.1,311.6-15.3c3.9-3.3,7.6-6.6,11.3-10.2c2.4-2.3,4.9-4.6,7.4-6.8
	c0.4-0.4,1.6-10.4,2.1-10.8c0.4-0.4,0.6,0.4,1,0.1s0.4,7.7,0.8,7.3c3.4-2.8,6.8-5.6,10.4-8.2c1.4,1.5,3.3,2.5,5.3,2.9
	c-8.1,6.3-15.8,13-23.1,20.3c-76.5,74.9-185.6,86.6-283.7,52.5c20.6,16.9,39.9,35.3,57.7,55.2c-7.3-1-14.7-1-22.1-0.2
	c-85.3-87.5-200.5-141.5-325.4-160.5l-7.2,1.9c25,15.1,47.7,33.5,67.7,54.7c-5.3-1.4-10.7-2.6-16.2-3.6
	c-26.2-24.5-56.5-44.3-89.6-58.4c-28.9-2.4-57.8-3-86.8-1.8c-89.1,22.4-178.5,43.3-268,63.4c32.2,15.1,62.2,33.9,80.7,45.6
	c32.8,22.6,74.6,63.4,102.6,94.2c-0.3,7.8-2.8-0.2-1.1,7.5c-2.9-3.4-5.9-6.7-8.9-10c-6.4-6.9-13-13.5-19.7-20
	c2.4,7.4,4.1,14.9,6.9,22c-0.1,0.4-0.1,0.8-0.2,1.1c-0.6,0.3-1.1,0.8-1.4,1.4c-1.1,0.3-2.1,1.2-2.6,2.2c-0.2,0.1-0.3,0.2-0.5,0.4
	c-1.2-0.2-2.4,0.2-3.4,0.9c-0.1,0.1-0.3,0.2-0.4,0.4c-0.4-1-0.8-1.9-1.2-2.8c-0.1,0.3-0.2,0.7-0.3,1c-1.5,6.3-4.1,12.2-5.9,18.5
	c-0.7,0.1-1.3,0.4-1.9,0.8c-0.3-0.2-0.6-0.4-1-0.5c0.2-1.6,0.9-3.7,0.4-5.4c-0.3-1-0.6-1.9-1-2.8c0.3-2.1,0.3-4.2,0-6.3
	c0.2-0.9,0.5-1.8,0.7-2.8c0.8-3.3,1.5-6.6,2.3-9.9c0.8-3.6,0.8-7.3,0-10.9c-0.6-1.8-1.3-3.5-2-5.3c-1.9-4.5-3.7-9-5.6-13.6
	c-1.3-3.2-3.1-6.1-5.4-8.7c-21-18.2-43.5-34.8-67.1-49.4c-20.8-11.7-57.6-28.6-96.1-40.6c-24.1,5.4-48.2,10.7-72.4,16
	c0.8,1.5-59.6,10.5-19,13.7c-4.1,6.9-7.4,14.2-9.8,21.8c-8.8-2.3-17.7-4.6-26.6-6.3c-10.8-2.1-21.7-4.2-32.5-6.4
	c-1.4-0.3-2.8-0.5-4.2-0.6c-15.9,3.2-249.3,54.3-295.8,61.3c-5,0.6-9.9,1.4-14.9,2.1c9,1.4,17.9,2.8,26.9,4.1
	c44,6.6,88,13.6,132.1,20.1c0.5,4,1.7,7.9,3.6,11.5c-6.4,0.7-12.3,3.3-17.2,7.5h-0.2c-7.2,1-14.4,1.8-21.7,2.4
	c-9.5,0.8-21.6,2.2-31.8,0.5c-223.5-37.4-304.3-17.9-304.3-17.9c28.6,18.8,85,63.9,106.8,89.4c4.4,2.2,5.3,8.4,10.3,11
	c-23.5,5.6-42.5,6.1-65,9.8c-58.5-54.2-137.5-88.2-233.4-100.7c-13,0.5-26,1.3-39,2.4c-49.1,4.1-98,11.2-146.2,21.4
	c-86.8,18-172.6,44.7-259.1,73.1c40.2,8.3,76.2,20.6,123.3,54.5c12.6,0.8,25.2,1.7,37.9,2.7c11.9-1.6,23.8-3.8,35.4-6.9
	c10.9-2.5,13.3-11.8,15.5-11.1c2,1.5,1.9,0.2,3.6,1c-2.2,2.1-3.9,4.4-6.3,6.4c52.2-16.2,97.8-47.2,127.7-90.6c3.1-0.2,6.1-0.7,9-1.6
	c-5.9,9.4-12.5,18.4-19.8,26.8c10.3-5.7,21.4-10.1,32.9-13c-0.1,1.3-0.1,2.6-0.1,3.9c-17.6,5-34,13.6-48.2,25.2
	c-31.2,29.4-70.9,50.9-114.2,62.8c4.6,0.4,9.2,0.8,13.9,1.3c-1.5,1.5-3,3.1-4.4,4.8c-35.8-2-57.1,6-31.8,13.9
	c-1.2,0.6-4.6,2.9-6.9,3.3c-6.3-4-12.9-8.8-20.1-10.4c41.8,33.9,92.6,84.1,160.9,160.2c3.1,3.4,14.1,10.3,20.9,8
	c2,2.3,1.4,1.8,3.5,4.2c-14.1,3.3-4.9,9.6-3,11.8c1.7,1.9,3.5,3.9,5.2,5.8c7.1-1.5,14.3-3.1,21.5-4.8l1.7,0.9
	c1.3,0.7,2.6,1.5,3.9,2.4c0.1,1.3,0.3,2.6,0.4,3.9c0.1,0.7,0.3,1.5,0.6,2.1c-6.2,1.6-12.5,3.1-18.7,4.6c21.1,2.9,42.1,6,63.1,9.3
	c3.3,0.6,6.4,0.9,9.4,1.5c17.2,2.7,34.4,5.6,51.6,8.3c40.9,2.3,81.2-6.7,114.5-27.1l1-0.2c4.3-0.9,8.6-1.8,12.8-2.7
	c-26.3,19.4-58.2,31.4-91.9,35.7c9,1.4,17.9,2.8,26.9,4.1c-3,2.3-5.6,5.2-7.7,8.4c-16.9-2.5-33.9-5.2-50.7-7.9l3.5,2.8
	c-1.5,1.2-2.9,2.5-4.1,4c-1.8-1.3-3.5-2.6-5.4-3.7c-2.2-1.4-4.5-2.8-6.7-4.2c-0.8-0.5-1.6-0.9-2.4-1.3c-19.3-3.1-38.6-6.3-58-9.3
	c-2.9-0.4-6.7-0.9-10-1.5c-11.9-1.8-23.8-3.6-35.6-5.2c62,59.1,140.7,98.4,224.1,126c24.6-3.6,48.6-10.1,71.7-19.4
	c4.6,1.2,9,2.5,13.4,3.8c-13.3,6.1-27.1,11.1-41.2,15.1c6.4,0.3,56.4,11.3,61.3,12.7c-1.8,1-3.6,2-5.3,3l-1-0.6
	c-25.4-6.4-45.4-8-71-6.8c-10.8,1.4-3.1,5-1.5,5.5c55.1,16.5,111.6,23.3,166.2,32.6c8.9,1.5,39.8,7.9,90.1,13
	c2,0.2,25-10.1,27.1-9.9c1.8,0.2,0.7,1.9,2.6,2.1c1.9,0.2-14.5,9.3-12.8,9.5l90.6,9.2c17.6-3.3,42.7-10,78.7-22.7
	c1-0.4,5.8-11.1,6.8-11.4c0.7-0.2,0.8,2.1,1.5,1.8c0.7-0.3-1.6,7.2-0.8,6.9c5.5-2,11.2-4.1,17.2-6.3c3-1.1-1.7,2.9,0.5,5.2
	c-13.6,7-27.8,12.8-42.4,17.6c-0.9,0.3,10.5,7,9.5,7.4c-0.9,0.4,0,2.1-1,2.4s-15.9-7.4-16.7-7.1c-10.7,3.3-21,6.2-30.3,8.7
	c55.7,5.7,107.2,11.1,110.6,11.7c5.1-1.4,10.2-2.6,15.4-3.4c7-1.1,14.1-1.3,21.2-0.5c7,0.8,13.8,2.4,20.4,4.9l1.8,0.7
	c10.4,0.1,21.4,0.3,32.9,0.7c5.3-1.1,10.8-2.3,16.4-3.4c19.9-4.1,41.3-7.9,63.5-11.2c5.8-2.9,11.4-5.7,16.8-8.3
	c8.5-4.1,16.4-7.7,23.5-10.6c9.5-3.9,19.4-7.1,29.4-9.5c6.2-1.4,12.6-2.3,19-2.6c3.3-0.1,6.6-0.1,9.8,0.1l2.4,0.3
	c0.8,0.1,1.6,0.1,2.4,0.3c1.6,0.3,3.2,0.5,4.7,0.9s3.3,0.8,5,1.3c0,0,0,0.1,0,0.1c0,0.3,0,0.6-0.1,0.9c-1.7-0.4-3.4-0.9-5.1-1.2
	c-3.1-0.6-6.3-1-9.4-1.2l-2.4-0.1c-0.8,0-1.6-0.1-2.4,0c-1.6,0-3.2,0-4.8,0.2c-6.3,0.4-12.6,1.4-18.7,2.9c-9.9,2.5-19.6,5.9-28.9,10
	c-7,3-14.7,6.6-23.1,10.9c-2.7,1.3-5.5,2.7-8.4,4.2c5.8-0.8,11.6-1.6,17.6-2.3l7.6-0.9c0,1.1,0.1,2.3,0.3,3.4
	c-2.5,0.3-5.1,0.6-7.6,0.9c-9.2,1.1-18.3,2.4-27.3,3.7c-3.1,1.6-6.2,3.2-9.4,4.8c-5.7,2.9-11.7,5.9-18,8.8l4.7,0.3
	c-0.3,3.7,0.5,7.4,2.3,10.7c-10.3-0.7-20.3-1.3-30.1-1.8c-2.8,0.9-5.6,1.7-8.4,2.4c-6.4,1.6-13,2.4-19.6,2.2
	c-3.4-0.1-6.8-0.6-10.1-1.5c-0.8-0.2-1.7-0.4-2.5-0.7c-0.8-0.3-1.7-0.5-2.5-0.9l-2.5-1l-2.2-1.1l-0.6-0.3l-0.5-0.3l-0.4-0.2
	c-8.3-0.1-16.2-0.2-23.8-0.3c12,3.7,23.7,7.9,35.1,12.2c14,5.3,27.5,10.9,40.6,16.2c0.5,1.7,1.2,3.2,2.2,4.6l0.3,0.4
	c0,0.6,0,1.3,0.1,1.9c-3,0.4-5.8,1.7-8.1,3.6c-9-3.4-18-7-27.1-10.5c11.5,7.5,22.6,15.4,33.5,23.3c-0.3,0.8-0.6,1.6-0.8,2.5
	c-2.9-1.1-5.7-2.2-8.5-3.4c-1.4-0.6-2.9-1-4.4-1.2c-9.5-6.7-19.1-13.2-29.1-19.4c-7.5-4.7-15.1-9.1-22.9-13.4
	c-9.5-3.1-19.1-6.1-28.8-8.6c-14-3.7-28.2-6.7-42.4-9.1c-22.9-3.2-49.9-6.3-81.1-9.6l7.2,3.2c9.7,4.5,20.6,10,32.2,16.7
	c27,15.6,52.2,34,75.2,55c9.4,8.5,18.7,17.7,27.8,27.6c-1.3,0.2-2.5,0.5-3.6,1c-0.7-0.3-1.3-0.6-2-0.9c-1.8-0.8-3.7-1.1-5.7-0.9
	l-0.1-0.1c-0.5-0.3-1.4-0.8-1.6-0.9l-0.5-0.4l-0.1-0.1c-1.6-1.8-3.4-3.4-5.3-4.9c-0.8-0.6-1.7-1-2.6-1.4c-4.2-4.1-8.5-8.1-12.7-12
	c-3.8-3.4-7.5-6.7-11.3-9.9c-1.9-1.6-5.6-7.1-5.6-4.6c0,14.6-2.9,17.4-4.1,16.5s-2.1-21.5-3.4-22.5c-15.6-12.2-32-23.2-49.1-33.1
	c-11.3-6.5-21.9-11.9-31.4-16.2c-4.8-2.1-9.2-4.1-13.4-5.8c-2.1-0.8-4-1.7-6-2.4l-5.5-2.1c-1.7-0.7-3.4-1.3-4.9-1.8l-4.3-1.5
	c-1.3-0.5-2.5-0.9-3.7-1.3l-3.2-1l-0.5-0.1c-58.5-6.1-129.1-13.6-212.1-24.8c29.1,24.6,56.3,44.2,75.7,53.3c0.3,1.6,0.8,3.1,1.6,4.5
	c-7-3.2-12.5-5.5-11.3-3.4c6.3,11.4,24.5,28.3,24.3,28.9c-0.4,1.2-1.3,0.5-2.5,1.2c-0.7,0.4-21.3-25.3-32.9-31.5
	c-2.2-1.2,5.7,42,3.2,40.6c-2-1.1-4.8-0.9-4.9-3.3c-1.3-19.9-9.7-41.5-19.4-48.8c-18.7-14.1-37.6-29.6-55.4-44.6
	c-43.5-6.1-90.1-13.2-140.1-21.8c-36.5-6.2-14.4,26.1-17.1,25.5c-2.6-0.6-6.1,4.2-8.8,3.6c-9.7-26.3-31.1-34-47.5-40.8
	c-139.5-57.9-211.1-131.1-270.6-195.9c-1.4-1.6-12.4,24.1-13.8,63.9c0,0.6,5.4,5.6,5.4,6.2c0,0.9-1.7,2.2-1.8,3.1
	c0,0.8-3.8-3.1-3.8-2.3c0,4.7,0.1,9.6,0.3,14.7c-3.1-0.9-0.2,0.4-3.7-0.8c-6-39.8,15.6-87.6,2.3-101.4
	c-34.4-35.7-64.5-69.6-103.9-94.6l-8.1-5.8c-5.1-3.6-10.2-6.9-15.4-10.1c-2.6-1.6,10.1,21.6,7.5,20.1c-1.9-1-4.9,4.5-6.8,3.5
	c-1.6-0.9-17.3-32.9-18.9-33.7c-72.5-36.7-206.9-51.8-299.3-30.1c-40.3,12-81,23.3-122.5,33.1c-51.7,12.4-104,22.1-156.7,29
	c-26.6,3.4-52.9,6.1-80.2,7.9l-10.3,0.7l-9.6,0.5l-9.6,0.5l-2.4,0.1l-4.3,0.1l-4.1,0.1c-11.1,0.3-22.4,1-33.9,2.2
	c-46.1,4.6-94,14.7-141.6,26.8c-47.6,12.1-95.4,26.7-143,42.4c-14.4,4.8-28.8,9.7-43.1,14.7c74.6,0,149.3,0.3,224.1,1.6
	c-0.7,10.5-0.9,21.1-0.6,31.6c-46.4-0.9-92.9-1.4-139.3-1.5c92.5,21.1,158.3,62.8,245.3,130.1c0.7,4.2,1.7,8.4,3.1,12.5
	c-0.3,0.2-0.6,0.4-0.8,0.6c-2.5,1.9-4.3,4.4-5.5,7.2l-1.9-0.7c-53.8-46.1-116.1-82.1-183.6-107.7c-2.3-0.9-0.9,8.2-3.2,7.4
	c-2.6-1-4.4,1-4-1.8c0.7-4.7-12.8-12.8-15.3-13.6c-51-17.2-103.8-28.7-157.4-34.2c-16.3,0-32.5,0-48.8,0.1
	c-20.8,7.8-41.5,15.7-62.2,23.7c2.4,0.4,4.8,0.7,7.2,1.1c30.7,2.8,109.1,18.6,110.5,19.7c5.2,3.9,28.7,35.2,33.7,39.6
	c7,6.2-45.4,8.3-39.8,12.7c20.9,16.2,40.9,32.2,55.9,44.1c8.5,6.9,17.1,13.6,25.4,20.7l25,21l24.7,21.4c8.2,7.1,16,14.5,24.1,21.7
	c31.9,29.1,84.7,78.9,115.1,108.7c0,0,168.1,35.4,220.4,45.5c12.1-0.2,24.1-1.1,36.1-2.8c7.1-3.5,13.8-7.7,20.2-12.4
	c1,1,2,2,3.1,2.9c-2.5,2-6.4,5.9-9,7.7c1,0.2,3.4-1.6,4.4-1.4c3.3-0.7,6.7-1.5,10-2.3l0.1,0.1c4.1,2.5-2.8,6.5,0.3,8
	c-13.1,4-16.4,5.1-30.2,7.2c11.7,2.4,23.3,4.9,35,7.5c-1.4,1.9-2.2,4.1-2.2,6.4c-0.3,0.3-0.5,0.5-0.8,0.8l-0.5,0.5l-0.4,0.3
	c-0.6,0.5-1.3,0.9-2,1.4c-2.1-0.6-4.4-0.6-6.5,0c-0.1,0.1-24.4-4.7-21.8-4.4c-11.3-2.4-15.1-2.6-26.4-4.9c2.2,2.8,7.1,10.4,9.2,13
	c4,5.1,7.7,10.4,11.2,15.9c-1.8,0.6-3.4,1.7-4.7,3.1c-1.3,0.2-4.1-3.5-5.2-3.4c-1.7-2.3-3.5-4.6-5.3-6.8c-3.7-4.4-7.3-8.8-11-13.3
	c-6-7.3-17.7-7.4-23.9-9.9c-34.1-6.4-68.3-12.3-102.6-18c15.6,7.5,16.4,6.6,30.7,16c-3.2,0,7.8,9.7,4.6,10.2
	c-4.1-0.9-8.2-4.8-12.5-5c-0.2,0-37.2-18.3-37.4-18.3c-13.8-7.8-30.4-9.1-42.6-7.4c-1.8-0.3,0.4,7.3,8.2,14.2l19.8,18.5l5.6,5.5
	l2.8,2.8c0.5,0.4,1,1,1.4,1.3l1.2,1.1l9.8,8.6c3.1,2.9,6.9,5.8,10.6,8.8s7.3,6,11.1,8.8c7.7,5.5,15.2,11.3,23.3,16.4
	c4,2.6,7.9,5.3,12,7.8l12.4,7.4c4.1,2.5,8.3,4.8,12.6,7.1l12.8,7l13.1,6.5l6.5,3.3l6.7,3.1l13.4,6.1l13.7,5.7
	c9.1,3.9,18.4,7.3,27.7,10.9c37.4,13.9,76.3,25,115.9,34.7c33.3,8.1,341.5,48.1,440.5,60.4c70.3,1.4,140.5-4.3,209.6-17
	c1.2-0.7,2.3-1.4,3.5-2.1c11.1-11.2,20.7-32.9,24-43.4c2-7.4,3.4-15,4.2-22.7c0-0.9-0.2-1.9-0.6-2.8c-0.5-1.3-1-2.5-1.4-3.8
	c-0.2-0.5-0.4-1-0.6-1.4c-0.5-0.9-1.2-1.6-2-2.2c-0.8-0.5-1.6-1-2.4-1.6c-0.2-0.1-0.5-0.3-0.7-0.4c-0.3-0.5-0.7-0.9-1.2-1.3
	c-0.1-0.3-0.2-0.5-0.3-0.8c-0.2-0.4-0.8-0.7-1.1-1c0-0.1,0.1-0.2,0.1-0.3c0.2,0,0.4-0.1,0.5-0.2c1.5,0.9,3.2,1.6,4.7,2.6l0.2,0.1
	l-0.3-0.8c0.1,0,0.1,0,0.2,0c0.3,0,0.6-0.2,0.9-0.4c0.1,0,0.1,0,0.2,0c0.3,0.1,0.7,0.1,1,0c0.2,0,0.4,0,0.5,0l0.2,0.2
	c0.8,2,1.9,3.8,2.8,5.8c0.1-2.6,0.2-5.1,0.2-7.8c0-1.2-0.1-2.5-0.1-3.7c1.1,1.9,0.1-0.2,1.7,1.3c0.1,11.5-0.5,27.6-2.9,38.4
	c-2.4,9.3-7.3,27.7-15.3,39.5c9.8-5.6,22.7-13.4,33-18.8c5.3-2.8,10.6-5.5,16-8.2c6.1-3.6,11.6-6.4,16.8-11.8
	c11.8-12,23.5-24.2,34.9-36.5c1.8-2.1,3.9-4.3,5.6-6c10.9-11.7,21.7-23.4,32.5-35.2c0.4-0.6,4.6-4.3,5-13.8c1.9,0.4,1.8-0.8,3-0.8
	c-0.3,1.2,0.6,4.3,0.3,5.5c18.5-20,37.1-40,56.2-59.5c3.1-4.8,5.8-9.7,8.2-14.8c2.4-4.6-0.2-8.3,0.7-8.9c1.1-0.3,0.7-0.6,1.4-1
	c0.1,1.4,0.4,2.7,0.4,4.2c10-23.6,12.6-49.3,6.1-73.2c0.9-1.2,1.6-2.4,2.1-3.7c1.6,5,2.8,10.1,3.6,15.2c1.1-5.5,2.8-10.7,5.3-15.7
	c0.5,0.4,0.9,0.8,1.4,1.2c-3.5,7.8-5.4,16.3-5.5,24.9c1.1,20.1-3.2,40.8-12,60c1.5-1.5,3.1-3.1,4.6-4.6c0.1,1,0.2,2,0.4,3
	c-11.5,12.2-15.1,22.3-4.6,15.6c-0.1,1.2-0.4,2.4-0.9,3.5c-4,1.3-8.7,2.4-11.4,5.5c-11.3,11.6-27.5,28.4-38.5,40.3
	c-1.3,2.6,2.5,0.1,7.3-1.9c-1.3,1.7-1.3,1.7-3.1,4c-7.6,5.1-7.8,2.7-19.5,15c-9.6,10.5-19.2,20.9-28.9,31.4
	c-1.6,1.9-3.4,3.7-5.2,5.7c-11.8,12.7-23.7,25.3-35.8,37.8c4.7-2.2,9.5-4.3,14.3-6.5c0.1,0.6,0.4,1.2,0.7,1.7
	c0.6,0.9,1.1,1.8,1.7,2.7c-0.4,1.2-0.8,2.4-1.3,3.5l-0.6,1.4c-19.3,9-38.1,18.5-56.1,28.4c-7.8,4.2-15.3,8.5-22.8,12.9
	c17.2-3.8,34.3-8,51.2-12.7c0.8,1.3,1.7,2.6,2.6,3.9c0,1.5,0.5,2.9,1.3,4.1c0.3,0.5,0.6,0.9,1,1.4c-0.2,0.5-0.4,1.1-0.5,1.6
	c-0.5,2.3-0.3,4.6,0.6,6.8c-2.9,2.6-5.5,5.4-7.8,8.5c-1.3,1.8-1.8,4-1.5,6.1c-37.4,10.5-75.5,18.9-113.8,25.2
	c94.8,11.4,189.7,22.1,284.6,31.4c18.3-2,45.3-6.1,66.5-20.8c13-9,26-17.9,39-26.7c17.3-11.7,33.5-25.1,50.2-37.8
	c2.8,0.4,5.6-0.4,7.9-2.2c0.4-0.3,0.9-0.6,1.3-0.9c4.2,3.7,10,4.9,15.2,3.2c0.2,1.2,0.4,2.4,0.7,3.6c-0.9,1-1.7,2.2-2.1,3.5
	c-1.4,3.8-2.2,7.7-2.4,11.8c-0.7,1-1.2,2.1-1.4,3.3c-0.9,0.7-1.8,1.5-2.7,2.3c-1.9,1.8-3,4.3-2.9,6.9c-18.5,15.2-36,31.7-55.9,45.5
	c-7.6,5.3-15.3,11-23.4,16.6c67.9,5.9,135.9,11.1,203.9,15.1c1.6,0.9,3.3,1.7,5,2.5c2.4,2.6,5.4,4.7,8.8,6c3.6,1.5,7.6,4.1,11.5,4.5
	c0.6,0.1,1.3,0.1,1.9,0c0.9,1.9,1.8,3.8,4.9,4.7c2.4,0.8,5.2,0.8,7.7,1.4c0.3,0.1,0.6,0.2,1,0.2c-6-0.5-11.1,5.5-10.1,11.6
	c-3.5,1-6.1,3.8-6.9,7.4c-3.2,0.4-5.8,2.5-6.9,5.5c-0.7,0.6-1.2,1.3-1.6,2.1c-13.1-0.6-26.1-1.2-39.1-1.9
	c-43.1-2.7-86.1-5.8-129.2-9.2c112.3,52.7,210.3,129.3,281.5,223.9c18.9,21.6,40.1,41,63.3,57.9c2.7,6.7,5.7,13.2,8.9,19.6
	c-13.1-8.1-25.6-17-37.7-26.6c13.4,22.2,25.4,45.2,35.8,68.9c-3.5-1.7-7.8-0.3-10.6,2.6c-0.9-0.1-1.8,0-2.7,0.1
	c-0.5-1.4-1-2.7-1.6-4.1c-0.9-2-2.5-3.6-4.5-4.4c-1.3-0.9-2.8-1.4-4.3-1.6c-62.2-126.5-169.3-227.6-299.5-293.8
	c23.8,27.6,43.3,58.5,58,91.9c-5.2-3.5-10.6-6.9-16.1-10.1c-19.1-36.6-44.4-69.6-74.8-97.5c-30.3-13.6-61.4-25.4-93.2-35.1
	c-156-14.5-311.4-33.1-466.6-52.5c-17.7-3.1-8.3,1.9-2.2,5.6c2.6,1.9,5.2,3.9,7.9,5.8c-7,5.9-13.4,12.5-18.8,19.9
	c-8.7-5.9-17.4-11.7-26.4-17c-6.1-3.6-12.2-7.2-18.4-10.8c-62.4-2.4-162.8-6.4-252.1-10.7c73.5,41.8,136.9,97.9,182.8,164.5
	c13.4,16.7,28.6,31.8,45.4,45c1.8,5,3.8,10,6,14.9c-9.5-6.5-18.6-13.5-27.2-21c11.1,20,20.5,40.9,28.4,62.3
	c-5.5-3.1-11.4-5.5-17.5-7.2c-41.6-100.2-120-182.1-218-237.1c16.9,21.3,30.5,44.9,40.4,70.2c-3.8-2.8-7.7-5.5-11.7-8
	c-13.1-27.9-30.9-53.2-52.7-74.9c-7.7-3.9-15.6-7.6-23.5-11.1c-69.4-3.6-124.9-7.1-138.5-10c-42.7-8.8-85.4-19.4-127.7-33.4
	c-10.5-3.6-21.1-7-31.6-11.1l-15.7-5.9l-15.6-6.4l-7.8-3.2l-7.7-3.5l-15.5-7c-5.1-2.5-10.2-5.1-15.3-7.6s-10.2-5.1-15.2-7.9
	l-15.1-8.3c-5-2.8-9.9-5.9-14.8-8.9c-10-5.8-19.5-12.6-29.1-19c-4.8-3.3-9.4-6.9-14.1-10.3c-4.7-3.5-9.3-6.8-14.1-10.9l-14.3-11.9
	c-2.6-2.1-4.2-3.7-6.2-5.5l-5.9-5.3l-46.7-43.1l-46.4-42.5c-30.9-28.1-62-55.7-93.4-82.4c-7.9-6.6-15.7-13.4-23.7-19.8l-23.8-19.4
	l-24.1-18.9c-32.1-25.3-107-85.8-133.2-97.2c-66.7-29-174.5-35.9-418.4,45.9l-10.3,4.4l-35.2,14.5c-12.5,5.1-25,10.5-37.7,15.3
	c-50.5,19.6-102.1,36-154.7,49.2c-64.7,16.2-130.5,28-196.8,35.4c77.7,9,158.1,17.9,222.2,24.8c28.3,4.8,57.4-9.8,84.4-20.8
	c7,2.6,16.4,11.7,19.8,14.3c-84.2,10.4-21.4,47.9,92.7,61.9c3.4,6.1,7.1,12,11.1,17.6c-14.9-1.2-29.7-2.5-44.5-3.8
	c130.1,62.6,243.4,152.9,325.1,263.7c39.1,45.5,86.2,82.2,137.9,107c-0.7,4.1-1.3,8.3-1.8,12.5c-34.6-15.7-67-35.8-96.4-59.9
	c18.2,30.7,34.1,62.7,47.4,95.8c-8.7-4.6-18-8-27.6-10.3c-69.9-154.3-196.3-278.2-352-359.1c6.5,7.7,10.4,15.9,16.3,23.9
	c-5.6,1.6-4.8-2.4-11.8,1.1c-7.4,1.2-9.7-29.7-42.6-43.7c-35.1-16.2-71.2-30.2-108.1-41.9c-173.5-17.8-346.4-39.9-519-63.1
	c22,17.6,44.2,35.1,66.5,52.4c5.8,4.1,12.1,9.2,17,13.1c32.9,25.4,65.9,50.7,99,75.9c1.8,0.8,3.6,1.4,5.4,1.9
	c5.5,1.3,10.9,2.7,16.3,4.1c4.5,1.1,9,2,13.6,2.9c-0.6,4-0.6,8.1-0.2,12.1c-3.2-0.4-6.3-0.9-9.5-1.3c28.9,22.1,57.7,44.3,86.4,66.7
	c-2,7.9-2.6,16.1-1.8,24.1c-15.1-11.9-30.4-23.8-45.6-35.6c22,30,40.1,62.6,54,97c4.3,3.6,8.6,7.3,12.9,11.1
	c5.6,4.3,10.3,8.4,17.2,11.1c15.5,6.4,31.2,12.6,46.9,18.6c2.6,0.9,5.5,2,7.7,2.9c14.9,5.7,29.8,11.2,44.8,16.8
	c0.7,0.1,1.5,0.1,2.2,0.1c2.1-0.1,4.3-0.2,6.4-0.3c1.8-0.1,3.5-0.3,5.3-0.5c0.2,1.5,0.7,3,1.3,4.5c-1.2,0.2-2.4,0.4-3.6,0.6
	c13.1,4.9,26.1,9.8,39.1,14.9c0.1,3.1,0.8,6.2,2,9.1c-6.9-2.7-13.8-5.3-20.7-8c22.1,16.7,39.9,38,50.6,62.4c-2.7-2.4-5.3-4.7-8-7.1
	l-0.6-0.6c-15.3-27.9-40.2-50.4-70.1-65.3c-13.3-5-26.6-9.9-39.9-14.9c-2.4-0.8-4.7-1.8-7.2-2.7c-16.2-6.1-32.4-12.4-48.4-18.9
	c3.8,3.6,7.6,7.1,11.4,10.8c-0.5,0.3-0.9,0.8-1.3,1.3c-0.6,0.9-1.3,1.7-1.9,2.6c-1.2,0.1-2.5,0.1-3.7,0.1l-1.5-0.1
	c-11.3-10.5-22.6-20.5-34.1-30.2c8.9,25.6,15.1,52,18.4,78.8c-4.8-7.9-9.7-15.8-14.6-23.7c-0.4-0.6-0.8-1.2-1.2-1.9
	c-17.2-81.1-62.2-156.3-125.5-216.2c-29.4-22.4-58.8-44.9-88.2-67.4c-5.2-3.8-10.3-8.1-15.9-12.3c-35.8-27.6-71.4-55.4-106.6-83.8
	c6.8,11.8,13.5,23.6,20.2,35.6c-1.5,0.4-2.9,1.2-4.2,2.1c-2.2,1.8-4.5,3.3-6.6,5.1c-3.2-0.7-6.3-1.5-9.4-2.5l-3.8-1.4
	c-2.5-4.4-5.1-8.7-7.7-13c-32.3-34.1-61.4-42.8-75.5-45.8c-26.8-1.8-53.6-4.1-80.3-6.7c-168.1-16.6-332.5-47.1-494.5-80.6
	c16.8,11.4,31.9,22.1,45,31.8c79.3,63.4,151.7,135,216,213.5c0.4,11.6,2.4,23.1,5.8,34.2c-6.7,3.3-12.7,7.8-17.7,13.2
	c-13.6-16.4-27.4-32.5-41.5-48.2c5,20.5,8.2,41.4,14.6,61.5c-0.2,1-0.4,2.1-0.6,3.1c-1.6,0.8-3,2-4,3.5c-3.2,0.7-5.9,2.7-7.5,5.6
	c-0.5,0.3-1,0.6-1.5,1c-3.2-0.7-6.6-0.1-9.3,1.9c-0.4,0.3-0.8,0.6-1.2,1c-0.9-2.7-1.8-5.3-2.7-8c-0.3,0.9-0.6,1.9-0.9,2.7
	c-5.4,17-13.7,32.7-19.7,49.3c-1.8,0.2-3.6,0.7-5.2,1.7c-0.8-0.6-1.7-1.2-2.6-1.6c0.9-4.5,3.2-10,2.3-14.6c-0.5-2.7-1.2-5.3-2.1-7.9
	c1.5-5.6,1.1-11.1,1.3-17.2c0.8-2.4,1.8-4.9,2.5-7.4c2.8-8.9,5.5-17.8,8.3-26.6c3.2-10,3-20.6,2-29.7c-1.4-5-2.9-9.9-4.5-14.8
	c-4.2-12.7-8.4-25.4-12.5-38.1c-3-8.9-7.4-17.2-13-24.8c-53.8-53.9-111.8-103.4-173.4-148.1c-28.2-18.7-67.9-42-113.9-65.8
	c-5.1-1.1-12.5-3.2-19.8-4.3c-88.2-19.1-176-38.1-263.3-55.7c-49.6-10-99-19.2-148.3-27.9c-24.6-4.2,72.4,77.6,48,73.9l-23.5,6.5
	l-42.9-1.8l-39.3-9.4c0,0-140.6-96-170.8-97.5c-67.4-3.6-135-2.1-202.1,4.6c-94.2,9.3-187.5,29.9-283.1,56.4s-194.1,57.8-296.7,84.4
	c-8.1,2.1-16.2,4.1-24.3,6.2c84.5,8,245.8,23.8,333,33.3c27.1-2.6,54.1-6.9,80.7-12.9c15.3-9.3,29.7-19.9,43.1-31.7
	c2.5,2.1,5,4.1,7.6,6c-5.2,4.8-10.5,9.5-16.1,14c2.3,0.3,4.6,0.6,7,0.9c7.4-2.2,14.7-4.5,22-7c0.1,0.1,0.2,0.1,0.3,0.2
	c9.7,4.9,17.5,8.6,24.8,11.5c-29.1,11.5-59,21-89.4,28.4c26.7,3.2,53.4,6.7,80.1,10.3c-2.7,4.5-4.1,9.7-3.9,14.9
	c-0.5,0.6-1,1.3-1.6,1.9s-0.8,0.9-1,1.2l-0.9,0.8c-1.3,1.2-2.7,2.3-4.1,3.4c-4.9-1-9.9-0.6-14.6,1.1c-8.5,3.2-17.1,4.7-25.5,7.5
	c-25.8-3.3-51.7-6.4-77.5-9.4c5.5,5.9,10.9,11.8,16.1,17.2c10.2,10.6,19.1,22.2,28.1,33.7c-3.9,1.8-7.3,4.4-9.9,7.8
	c-3,0.7-6,1.4-8.9,2.1c-0.5,0.1-0.9,0.3-1.4,0.4c-2.5-0.2-5-0.1-7.4,0.4c-4.3-4.9-8.6-9.6-13.2-14.3c-9.1-9.3-18.1-18.6-27.1-27.9
	c-14.7-15.3-35.8-23.1-50.2-27.7c-77.9-8.1-156-15.1-234.3-21.6c36.6,14,38.1,11.7,72,30.3c-7.3,0.6,19.3,20.3,12.2,22.1
	c-9.4-1.4-18.9-2-28.4-1.7c-0.5,0-107.7-39.9-108.2-39.9c-66.5-18.2-22.9-9.4-92.5-22.2l-42-3.2l0.3-0.3l-0.9,0.2
	c-52.9,10.4-105.4,19.1-160.6,26.1l-38.1,4.5l-4.8,0.6l-2.4,0.3c-1.1,0.1,0.3,0-1.1,0.2l-6.9,1c-4.6,0.6-9.3,1.7-13.9,2.4
	c-19.2,4-38.1,9.3-56.5,16c-38.1,13.8-76.6,33.6-114.5,57.3c-48.6,30.5-96.2,66.8-142.9,106.6c16.9-0.8,33.9-1.3,51-1.6
	c77.5-32.9,163.2-72.8,185.7-96.7c12.8,13.3,16.5,1.6,12.8,13.3c-67.2,46.6-97.6,71.2-54,58.1c35.8-6.3,71.4-11.1,106.6-14.5
	l6.4-0.5c35.2-11.5,73.4-23.8,114.1-36.4c48.7-15,101.2-30.3,156.6-44.4c18.7-10.3,38.5-29.2,54.3-47.1c4.8-0.7,9.5-1.5,14.1-2.4
	l2.6-0.5c-10.2,14-21.1,27.5-32.6,40.5c18-4.3,36.2-8.5,54.7-12.5c-3.4,8.3-6.8,16.7-10.1,25.1c-71.4,17-276.4,78.6-273.9,78.3
	c8.6-1,76.9,2.1,95.2,3.9c-10.2,6.3-25.8,7-26.5,7.3c-18.4,8.6-0.7,8.2-17.3,20.2c-3.5-0.1-7.1-0.2-10.6-0.2c-10-0.1-20-0.2-30,0.2
	c-1.2,0-27.4,1.2-30.5,1.3c-20.5,0.9-41.2,2.9-62,4.7c-11.6,1.2-23.3,2.6-34.9,4.2c-2.3,0.8-6.6,1.4-6.5,0.9
	c-16.8,2.3-33.7,5-50.7,7.9l5.6,1.2c5.2,1.2,10.6,2.5,15.8,3.8c3.2-0.1,35.2,9.5,38.5,10.4c40.6,15.5,84,25.5,121.4,47.7
	c205.4,121.6,503-4.7,520.5-9.5c9.4-2.6,18.7-5.4,28-8.4l1.9-0.6c30.3-9.1,99.2-30.6,109.7-34.2c11,10.2-9.4,10.9,1.3,22.2
	c7.7,8.3,3.4,5.4,3.4,10.8c-9.5,3.6-29.9,10.4-41.8,15.1c-1.8,0.6-3.6,1.3-5.3,2.2c17-2.3,33.5-4.6,64.4-9.2
	c11.8-0.8,65.8-50.8,72.9-59c9-1.5,18.2-1.9,27.4-1.4c-0.3,0.9-0.6,1.9-0.8,2.8c-0.2,0.7-0.2,1.4,0,2.1c-0.7,1.4-1.2,2.8-1.5,4.3
	c-2.3,2-4.5,4.2-6.5,6.5c-1.4,1.5-1.5,3.7-0.2,5.3l-1.4,1.1c-7.4,8.9-37.7,30.9-18.7,27.4c90.6-13.9,194.1-30.6,232.4-38.2
	c26.6-3.6,48.9-23.2,70-41c0.6-0.2,1.2-0.4,1.8-0.7c1.3,0.5,2.8,0.3,4-0.5c0.5-0.4,1-0.8,1.4-1.3c1,0,2.1-0.2,3.1-0.6
	c1.2,0.3,2.5,0.1,3.5-0.7c1,0.3,2,0.6,3,1c0.2,0.4,0.4,0.7,0.8,1c0.4,0.4,0.9,0.8,1.4,1.2c0,0,1.3,1.1,0.6,0.5
	c0.2,0.1,0.3,0.3,0.5,0.4c0.2,0.9,0.8,1.7,1.6,2.2c0.1,0,0.1,0.1,0.2,0.1c-0.2,0.4-0.4,0.9-0.5,1.3c-0.3,1-0.1,2,0.4,2.9
	c-65.2,33.4,6.7,48.7,118.4,28.1c5.2,4.9,10.6,9.6,16.3,13.9c-14.9,3.3-29.9,6.7-44.8,10c72.4,10.4,143.4,29,211.6,55.7
	c6.1,0.7,12.3,1.3,18.4,2c1.4,0.1,28.6-23.5,50.8-47.8c0.4-0.4-7-14-6.5-14.4s1.5,0,1.9-0.4c0.6-0.7,7.4,13,8.1,12.4
	c7.7-6,19.4-20,24.8-27.3c12.8-17.6,17.8-31.4,18.6-31.4c1.3,0.2,1.2,0.9,0.3,3.1c-0.1,0.4-13.7,23-14.4,27.2
	c-0.1,0.8-0.3,2.6-0.4,3.3c-0.3,1.9,15.3-14.5,15.2-14.3c-0.7,1.9,2.9-1.8,4-1.7c1.8,0.2-93.5,92.1-91.8,92.3
	c2.6,0.3,15.9,2,18.5,2.3c22.4,2.6,44.7,5.2,67,7.9c42.1,0.5,83.4-7.1,120.6-22.9c0.7-0.3,14.1-28.4,14.8-28.7s0.2,4.3,0.9,4
	c1-0.5-9.5,21.9-8.4,21.4c4.2-1.9,8.2-3.9,12.3-6c-0.5,2.3,1,4.6,3.4,5.1c0.1,0,0.2,0,0.4,0.1c1.1,0.2,2,0.4,2.9,0.5
	c-28.6,16-60.5,26.9-93.9,32.6c13,1.5,26,2.9,39.1,4.2c-4.2,3.6-7.8,7.8-10.6,12.6c-24.6-2.6-49.1-5.4-73.6-8.3
	c1.8,1.3,3.5,2.6,5.2,3.8c-2.1,1.8-4,3.8-5.6,6c-2.6-1.7-5.2-3.5-8-5c-3.3-1.9-6.6-3.8-9.9-5.7c-1.1-0.7-2.3-1.2-3.5-1.7
	c-18.8-2.2-37.6-4.5-56.4-6.6c22,10.1,43.5,21,64.5,32.8c-11.4,2.9-22.7,6.4-33.8,10.4c-74-37.5-154.8-64-239-79
	c8.7,5.5,15.1,12.4,23.3,18.5c-5,3.3-5.4-0.9-11.3,4.7c-6.9,3.4-18.6-26.1-55.2-29.8c-39.4-5.1-79.1-7.7-118.9-7.8
	c-33.8,6.9-89.2,17.7-148.3,29c10,3.9,20.1,7.7,30.2,11.5c4.9,1.6,10.3,3.8,14.5,5.4c28.2,10.5,56.4,20.8,84.7,31.2
	c1.4,0.2,2.8,0.2,4.1,0.1c4-0.2,8.1-0.5,12.1-0.7c3.3-0.2,6.7-0.6,10-0.9c0.5,2.9,1.3,5.7,2.4,8.4l-6.8,1.1
	c24.7,9.1,49.3,18.3,74,27.6c0.3,5.9,1.7,11.6,4,17.1c-13-5-26.1-9.9-39.2-14.8c41.9,31.2,75.6,71.2,96.3,117.1
	c-5-4.4-10.1-8.8-15.2-13.2l-1.2-1c-29.3-52.4-76.5-94.7-133-122.4c-18.9-6.9-37.9-13.9-56.8-20.8c15.5,24.4,30.8,44.8,42.7,55.7
	c-0.2,1.2-0.1,2.5,0.1,3.7c-4.4-3.9-7.8-6.8-7.5-4.9c1.9,9.8,11.4,26.2,11,26.6c-0.6,0.8-1.1,0.1-2,0.4c-0.6,0.1-9.7-23.3-16.7-30.4
	c-1.3-1.3-5.6,32.3-7,30.8c-1.2-1.2-3.2-1.7-2.8-3.5c3.6-15,2.5-32.8-2.9-40.4c-10-13.9-19.8-28.8-28.9-43.2l-4.6-1.7
	c-4.4-1.5-8.9-3.4-13.6-5c-25-9.3-50-18.8-74.9-28.5c-2.7,0.5-5.4,1-8,1.5c4.3,4,8.6,8.1,12.9,12.2c-1,0.6-1.8,1.4-2.4,2.4
	c-1.1,1.7-2.4,3.3-3.5,5c-2.3,0.2-4.7,0.3-7,0.3l-2.9-0.1c-5.8-5.3-11.6-10.6-17.5-15.8c-78.8,14.9-154.5,28.9-186.5,34.4
	c70.4,68.8,93.6,85.1,161.3,136.7c110.3,84,232.8,146.5,363.3,192.2c43.7,14.3,61.6,7.6,92.3,11.5c122.7,2.2,242.1-29,339.4-93.6
	c1-0.2,2-0.4,3.1-0.7c12.7-3,2.1,11.3,14.8,8.1c-89.1,52.5-147.4,82.7-247.7,99.5c27,3.2,54,6.3,81,9.2c-9,7.4-12.8,5.6-18.6,15.5
	c-34-3.8-114.2-15.3-113.3-4c116.7,31.2,261.2,63.5,398.4,89.9c5.4,1,30.1-13.9,35.5-12.9c5.9,1.1,6.8,3.4,12.7,4.5
	c6.7,1.3-26.1,12.9-19.4,14.1c77.4,14.4,152.6,27.4,223.3,38.9c5.4,0.9,42-1.7,151.4-162.4c1.1-1.6-3.5-22.7-2.4-24.3
	c0.8-1.1,3.5,2.1,4.2,1s5.5,12.4,6.4,11.2c6-8.9,12.2-18.3,18.5-28.1c3.2-5,0.6,6.1,6.4,7.1c-12.3,25.2-27.7,49.6-43.7,72.2
	c-0.4,0.5,12-1.5,27.8-4.3l14.5-2.5c6-1.1,24.7,5.5,30.5,4.5c18.6-3.3,39.5,1.4,39.1,2c-1.1,1.5,3.5,3.7,2.4,5.2
	c-0.4,0.5-23.8-2.9-45,1.4c-6,1.2-24.8-5.1-31-3.8l-12.7,2.6c-19,3.9-34.4,7.2-34.8,7.7c-49.1,66.9-98.8,115.8-75.6,119.6
	c218.5,36.6,384.2,52.9,417.6,52.3c18.5-0.3,36.9-0.5,55.1-0.4c28.7,2.2,282.6-56.2,310.5-62.4c13.5,12.8,14.4,16.7,29,26.1
	c0.7,0.1-184,49-184.7,49.1c-29.1,7.2-29.9,31.8-11.8,31.5c128.9,1.8,161,9.1,279.5-28.4c8.6,9.1,2.5,2.8,10.4,13.8
	c-23.7,6.5-91.3,24.2-71.8,26c19.1,4.6,68.3,16.2,96.2,23c20.5,4.5,43.2,9.5,68,15s51.7,11.7,80.8,16.9c31,6.1,64.3,12.3,99.7,18
	c5.8,1.5,47.2-14.3,88.3-30.6c8.4-3.3,15-22.3,23-25.5c33.1-13.3,61-24.8,62.6-24.5c3.3,0.5-0.9,2.3,2.5,2.8
	c1.6,0.2-26.7,11.1-61.1,26c-8.4,3.6-17.7,27.3-26.4,30.7c-38.8,14.9-62.7,25.4-57.8,26.1c20.6,3,43.9,6.1,65.7,8.6
	c18.2,2,36.9,4.2,55.9,6c19.1,1.2,38.6,2.4,58.4,3.6c19.8,1.7,40.1,1.2,60.7,1.5c10.3,0.1,20.7,0.2,31.2,0.3
	c10.5-0.1,21.1-0.7,31.8-1.1c30.7-0.9,62.1-2.9,94.2-5.6c1.3,1,2.9,1.7,4.5,2c2.3,0.4,4.7,0.5,7.1,0.4h0.7c1.3,1.9,3.2,3.3,5.5,3.8
	c3.5,2.6,7.5,4.3,11.7,5.1c10.2,2.1,20.6,4,30.9,5.6c2.9,5,5.4,10.2,7.6,15.5c0.1,0.1,0.1,0.3,0.2,0.4c-2.5,3.8-5.9,7-9.8,9.4
	c-2.6,1.7-4.4,4.5-4.8,7.6c-49.7,5.3-98.4,9-145.6,10.5c-11,0.4-22,1-32.9,1.2l-32.3-0.3c-21.4-0.3-42.4,0.2-63-1.5l-60.5-3.6
	c-19.6-1.9-38.8-4.1-57.6-6.1c-25.4-2.9-49.7-6.1-73.2-9.7c134.4,56.8,256.3,133.6,377.1,224.7c18.8-7.6,45-17.8,65.1-21.7
	c25.2-5.3,51.5-7.2,77.3-3.5s48.7,18.1,70.6,31c21.9,12.9,37.8,26.6,55.7,43.1c18,16.5,29.8,31.1,46.4,47.6
	c10.6,10.6,23.7,26.4,34.5,36.3c-3.9,2.9-22.7-21-32.9-31c-16.8-16.6-33.5-33.5-51.1-49.5s-37.1-28.4-57.7-40.3
	c-20.6-11.9-43-20.3-66.6-23.5c-23.6-3.2-48.7,1.1-72.4,6.1c-15.7,3.1-38.1,11.6-53.2,17.5c32.8,25.3,89.4,76.9,89.3,77.1
	c24,22.8,29.2,25.7,39.1,34.2c8.1,7,16.5,13.5,25.2,19.6c-0.2,1.3-0.1,2.6,0.3,3.8c0.2,0.8,0.4,1.6,0.7,2.3c0.8,1.9,1.7,3.8,2.7,5.6
	c-0.9,1-1.9,2-2.7,3c-45.7-21.9,14.3,33.9,24.6,44.7c-12.1,4.1-2.6-0.7-12.1,4.1c-1.4-3.1-45.4-47.2-52-57.2
	c-9.2-14.3-115.5-105.5-145.5-127.1l-19.8,11.8l-17.3,8.1l-8.6,4c-2.9,1.3-5.9,2.4-8.9,3.5c-47,19.4-97,32.5-147.4,34.2
	c-6.3,0.1-12.6,0.7-18.8,0.3s-12.5-0.8-18.8-1.2c-3.1-0.2-6.2-0.3-9.3-0.7l-9.2-1.5c-6.2-1-12.3-2-18.4-3c-6-1.5-12-3.1-17.9-4.6
	l-8.9-2.3c-2.9-0.9-5.8-2-8.6-3c-5.7-2-11.4-4.1-17.1-6.1c-5.6-2.4-11-4.9-16.5-7.4c-43.7-20-80.7-48.5-113.6-77.2
	c-3.4-3,5.4,105.9,2.1,102.9s-4.3-14-7.5-17c-1.8-1.6,5.4-85.9-19.5-108.7c-2.6-2.4-5.1-4.9-7.6-7.3c-19.9-19.3-38.4-38.6-56-57.1
	c-26.8-28.2-51.7-54.5-75.5-77.4c-21.2-20.7-43.6-40.2-67.2-58.1c-5.3-3.8-10.4-7.5-15.4-11c-4.9-3.6-10-6.4-14.7-9.4
	c-6.4-4.2-13-8-19.8-11.4c-20.9-3.9-41.8-7.5-62.9-10.7c-62-5.1-123.7-10.7-186.1-14.9c-11.9-0.8-39.1-3.2-78.1-7.1
	c-1.6,0-3.2-0.1-4.9-0.1l0.7-0.3c-114-11.5-324.6-35.4-557.1-71.4c13.3,8.5,24.6,16.6,40.5,21.3c36.2,11.4,72.7,22.1,109.2,32.5
	c6,1.4,12.7,3.5,17.9,5.1c34.6,9.8,69.4,19.4,104.1,28.9c1.7,0.1,3.3,0,5-0.3c4.8-0.7,9.6-1.3,14.4-2c4-0.5,7.9-1.3,11.8-2.1
	c0.9,3.4,2.1,6.7,3.7,9.8c-2.7,0.7-5.4,1.4-8,2c30.3,8.4,60.7,17,91,25.7c0.9,7,3.1,13.8,6.4,20c-16-4.7-32.1-9.3-48.2-13.8
	c53,33.2,97.2,77.6,126.3,130.3c-6.4-4.8-12.9-9.6-19.4-14.3c-0.5-0.4-1-0.7-1.6-1.1c-40-59.6-100.5-105.5-170.7-133.1
	c-30.9-8.5-61.8-17-92.6-25.6c-5.4-1.4-10.9-3.1-16.8-4.7c-37.6-10.6-75.2-21.4-112.7-32.8c9.3,7.3,18.5,14.6,27.7,22
	c-1.1,0.8-2,1.9-2.7,3.1c-1.2,2.1-2.5,4.1-3.7,6.3c-2.8,0.5-5.6,0.8-8.4,1l-3.5,0.1c-38-29.5-76.4-57.4-114.7-83.4l-3.5-2.4
	c-81.2-13-164.5-27.4-246.6-43.2c-29-5.6,0,65.7-8.9,64c-11-2.1-1.4,15.6-12.3,13.5c-9.9-1.9-18.2-67.3-73-78.6
	c-171.6-35.6-330-85-454.1-125.1c6.3,3.7,12.7,7.6,18.8,11.9c11.1,7.5,21.6,15.9,31.4,25.1c1.1,1,5.1,4.1,13.2,3.5
	c0.7-0.1,1.5,2.6,2,3.1c0.8,0.8-8.9-0.3-8.1,0.5c6.9,7.2,13.3,14.8,19.1,22.9l2.9,4c1,1.3,1.8,2.7,2.7,4l0,0.1
	c-1.3,1.4-2.2,3-2.8,4.8c-1.1,1.2-1.9,2.6-2.4,4.2l-2.5-3.7c-0.9-1.3-1.7-2.6-2.7-3.9l-2.8-3.8c-7.6-10.2-16.1-19.7-25.4-28.4
	c-9.4-8.7-19.6-16.7-30.3-23.8c-10.7-7.2-21.8-13.6-33-19.6c-8-4.3-16-8.5-23.9-12.6c6.1,5.6,12,11.4,17.6,17.4l3.2,3.4
	c1.1,1.2,2,2.4,3.1,3.6c2,2.4,4.1,4.7,6,7.2c3.8,5,7.6,9.8,10.9,14.9c0.9,1.3,1.7,2.5,2.6,3.8l1.3,1.9l1.2,1.9l4.7,7.7
	c1.6,2.5,2.9,5.2,4.3,7.8s2.8,5.2,4.1,7.8c9.7,19.9,17.5,40.7,23.3,62c1.7,6,3.1,11.9,4.5,17.7c0.3,1.1,0.5,2.2,0.8,3.3
	s1.3,4.8,8.1,4.5c0.8,0,1.8,2.7,2,3.5s-8.5-0.5-8.3,0.3c1.5,6.9,2.9,13.5,4.3,20c-0.1,0.1-0.3,0.2-0.5,0.3
	c-3.6,2.8-7.8,4.5-11.9,6.3c0,0-0.1,0-0.1,0l-5.8-23.3c-2.3-9.3-4.7-18.7-7.7-28.3c-6.1-20.2-14-39.9-23.5-58.7
	c-0.5-0.9-1-1.9-1.5-2.8c0.2,0.6,0.4,1.2,0.6,1.8c0.8,2.6,1.4,5.3,2,8c0.3,1.3,0.7,2.7,0.9,4s0.5,2.8,0.7,4.1c0.5,2.8,1,5.5,1.3,8.3
	c2.2,17,1.1,34.3-3.3,50.8c-0.3,0.1-0.6,0.2-0.9,0.3l-2.9,1.3c-2.6,0.7-5.2,1.6-7.8,2.6c2.5-7.9,4.1-16,5-24.3
	c0.1-1.4-8.6,4.3-8.5,2.9c0.1-1-0.9-3.5,0-3.9c9.1-4,9.1-9.2,9.2-10.8c0.1-5.9-0.3-11.8-1.1-17.6c-0.2-2.6-0.8-5.2-1.2-7.8
	c-0.2-1.3-0.5-2.6-0.7-3.8s-0.6-2.5-0.9-3.8c-0.7-2.5-1.2-5-1.9-7.4s-1.6-4.8-2.3-7.2c-0.2-0.6-0.4-1.2-0.6-1.8l-0.7-1.8l-1.4-3.5
	c-0.5-1.2-0.9-2.3-1.4-3.4s-1-2.2-1.5-3.4l-3.1-6.6c-1.1-2.1-2.3-4.2-3.4-6.3c-5.7-10.3-12.3-20-19.7-29.1
	c-14.9-14.8-32.3-28-50.5-41.4c-7.1-5.2-14.3-10.5-21.5-16.1c-27.7-12.8-53.8-26.3-79.9-40.9c-33.7-19-66.5-38.2-97.9-60.9
	c-16.7-12.1-67.9-34.5-66-13.4c1.3,15.2,41.7,138.9,30.4,137.2c-19.1-3-32,9.3-43.8-9.1c-18.3-71.9-43.1-168.6-79.7-205.7
	c-8.7-9.8-65.9-60.4-75.4-69.5c-15.6-14.9-40.3-33.2-61.5-31.6c-147.8,11.3-235.9,39.9-366.6,50.8
	c-116.4-10.6-208.3-58.1-320.1-77.6c12.3,6.9,24.6,13.7,37,20.5c5.5,2.7,11.6,6.2,16.3,8.9c31.6,17.3,63.2,34.4,95,51.4
	c1.6,0.4,3.2,0.7,4.9,0.9c4.8,0.4,9.7,0.8,14.5,1.3c4,0.4,8,0.5,12,0.6c0.1,3.5,0.6,7,1.5,10.4c-2.8,0.1-5.5,0.1-8.3,0.2
	c27.7,15,55.4,30.1,83,45.3c-0.6,7,0,14.1,1.8,20.9c-14.6-8.1-29.2-16.2-43.9-24.2c44.3,44.1,77.5,97.3,94.1,155.2
	c-5.2-6.1-10.4-12.2-15.7-18.2c-0.4-0.5-0.9-1-1.3-1.4c-25.7-67-74.4-125.2-136.7-167.8c-28.2-15.2-56.4-30.4-84.6-45.7
	c-5-2.6-9.9-5.5-15.3-8.3c-33.6-18.3-67.1-37-100.4-55.9l-1.3-0.1c7.1,8.8,14.2,17.6,21.2,26.6c-1.2,0.6-2.4,1.4-3.3,2.4
	c-1.6,1.8-3.4,3.5-5,5.3c-2.8-0.1-5.6-0.4-8.4-0.9c-1.1-0.2-2.3-0.4-3.4-0.6c-9.5-11.6-19.1-23.1-28.8-34.4
	c-59.7-2.1-126.3,5.8-205,31.2c-69.5,22.5-137.2,21.2-191.6,42c-23.1,8.8-45.6,19.3-67.2,31.4l-1.7,1.7
	c-35.7,36.7-71.9,73.8-109,110.9c-2.5,2.5-5.1,5.1-7.7,7.6c-21.9,38-44.5,93-64.2,160.1C2.4,3115.6-1.4,3021.3,0.4,2929.6z
	 M5994.4,1360.3c0-0.8-0.1-1.6-0.1-2.4c-0.8,0.9-3.1,3.3-6.3,6.4C5990.1,1363,5992.3,1361.6,5994.4,1360.3z M5354.4,1787.9
	c-3.2-1.1-6.4-2.3-9.8-3.4c-4.6-1.5-9.4-3-14.4-4.4c-7.7,5.4-15.3,10.8-22.9,16.2C5322.8,1792.5,5338.5,1789.8,5354.4,1787.9z
	 M6902.3,2397.1c7.4,0.3,14.9,0.7,22.6,1.2c8.5-3.6,16.5-7.5,24.1-11.3l0.5-0.3c-18.3,2.9-36,6.2-52.7,9.6l-2.2,0.4L6902.3,2397.1z
	 M6872.3,2407.3c3,0.8,6.1,1.3,9.3,1.4c5,0.2,10-0.2,14.9-1.2c-9-0.3-17.7-0.6-26.1-0.8C6871.1,2406.9,6871.7,2407.1,6872.3,2407.3
	L6872.3,2407.3z M6825.8,2395.4l5.6,0.1c-2.3-0.5-4.7-0.9-7.1-1.1c-6.7-0.7-13.5-0.5-20.1,0.6l-0.8,0.1
	C6810.3,2395.2,6817.8,2395.3,6825.8,2395.4L6825.8,2395.4z M3811.4,3497.6c21.6,16.3,44.9,36.3,68.9,59.6s49.2,49.8,75.9,77.9
	s55.2,57.8,87.3,86.2c32.1,28.1,67.7,55.7,109.1,74.6c5.2,2.3,10.3,4.8,15.6,7.1c5.4,1.9,10.8,3.9,16.2,5.8l8.2,2.9l8.4,2.2
	c5.6,1.5,11.2,2.9,16.8,4.4c22.9,4.1,46.4,7.2,70.2,5.9c47.7-1.4,95.7-13.7,141.4-32.4c2.9-1.1,5.8-2.2,8.6-3.4l8.4-3.9l30.8-16.7
	c-204.1-143.1-444-227-675.1-277L3811.4,3497.6z"/>
</svg>
