<svg id="Layer_1" data-name="Layer 1" xmlns="http://www.w3.org/2000/svg" xmlns:xlink="http://www.w3.org/1999/xlink" viewBox="0 0 4270.36 1920"><defs><style>.cls-1{fill:url(#radial-gradient);}.cls-10,.cls-11,.cls-12,.cls-13,.cls-14,.cls-15,.cls-16,.cls-17,.cls-18,.cls-2,.cls-21,.cls-22,.cls-23,.cls-24,.cls-25,.cls-26,.cls-27,.cls-28,.cls-29,.cls-3,.cls-4,.cls-5,.cls-6,.cls-7,.cls-8,.cls-9{fill-rule:evenodd;}.cls-2{fill:url(#radial-gradient-2);}.cls-3{fill:url(#radial-gradient-3);}.cls-4{fill:url(#radial-gradient-4);}.cls-5{fill:url(#radial-gradient-5);}.cls-6{fill:url(#radial-gradient-6);}.cls-7{fill:url(#radial-gradient-7);}.cls-8{fill:url(#radial-gradient-8);}.cls-9{fill:url(#radial-gradient-9);}.cls-10{fill:url(#radial-gradient-10);}.cls-11{fill:url(#radial-gradient-11);}.cls-12{fill:url(#radial-gradient-12);}.cls-13{fill:url(#radial-gradient-13);}.cls-14{fill:url(#radial-gradient-14);}.cls-15{fill:url(#radial-gradient-15);}.cls-16{fill:url(#radial-gradient-16);}.cls-17{fill:url(#radial-gradient-17);}.cls-18{fill:url(#radial-gradient-18);}.cls-19{fill:url(#radial-gradient-19);}.cls-20{fill:url(#radial-gradient-20);}.cls-21,.cls-31{fill:#fff;}.cls-21{opacity:0.17;}.cls-22{fill:url(#radial-gradient-21);}.cls-23{fill:url(#radial-gradient-22);}.cls-24{fill:url(#radial-gradient-23);}.cls-25{fill:url(#radial-gradient-24);}.cls-26{fill:url(#radial-gradient-25);}.cls-27{fill:url(#radial-gradient-26);}.cls-28{fill:url(#radial-gradient-27);}.cls-29{fill:url(#radial-gradient-28);}.cls-30{opacity:0.2;}.cls-32{fill:#cbeaf3;}</style><radialGradient id="radial-gradient" cx="1050.18" cy="1710.29" r="2258.59" gradientTransform="translate(-592.26 3.33) scale(2.43 1.2)" gradientUnits="userSpaceOnUse"><stop offset="0" stop-color="#fff"/><stop offset="0.12" stop-color="#f5fafd"/><stop offset="0.31" stop-color="#daebf7"/><stop offset="0.57" stop-color="#afd3ed"/><stop offset="0.87" stop-color="#73b3e0"/><stop offset="1" stop-color="#56a3d9"/></radialGradient><radialGradient id="radial-gradient-2" cx="1286.56" cy="1149.19" r="940.18" gradientTransform="translate(45.02 -1.76) scale(1.71 1.2)" gradientUnits="userSpaceOnUse"><stop offset="0" stop-color="#fff"/><stop offset="1" stop-color="#1da1f9"/></radialGradient><radialGradient id="radial-gradient-3" cx="2174.76" cy="676.13" r="837.49" gradientTransform="translate(61.93 -1.66) scale(1.7 1.2)" gradientUnits="userSpaceOnUse"><stop offset="0" stop-color="#fff"/><stop offset="0.02" stop-color="#feffff"/><stop offset="0.13" stop-color="#f3f9fd"/><stop offset="0.34" stop-color="#d7eaf6"/><stop offset="0.6" stop-color="#a9d0ec"/><stop offset="0.91" stop-color="#6aaedd"/><stop offset="1" stop-color="#56a3d9"/></radialGradient><radialGradient id="radial-gradient-4" cx="1417.15" cy="1224.85" r="978.96" xlink:href="#radial-gradient-2"/><radialGradient id="radial-gradient-5" cx="1201.12" cy="1116.84" r="1122.2" xlink:href="#radial-gradient-2"/><radialGradient id="radial-gradient-6" cx="2093.37" cy="962.84" r="923.61" gradientTransform="translate(61.93 -1.66) scale(1.7 1.2)" xlink:href="#radial-gradient-2"/><radialGradient id="radial-gradient-7" cx="2116.69" cy="804.7" r="1115.79" gradientTransform="translate(61.93 -1.66) scale(1.7 1.2)" xlink:href="#radial-gradient-2"/><radialGradient id="radial-gradient-8" cx="2109.79" cy="862.91" r="802.72" gradientTransform="translate(61.93 -1.66) scale(1.7 1.2)" xlink:href="#radial-gradient-2"/><radialGradient id="radial-gradient-9" cx="2002.4" cy="871.67" r="988.88" gradientTransform="translate(61.93 -68.06) scale(1.7 1.26)" xlink:href="#radial-gradient-2"/><radialGradient id="radial-gradient-10" cx="2058.33" cy="912.31" r="843.56" gradientTransform="translate(61.93 -68.06) scale(1.7 1.26)" xlink:href="#radial-gradient-2"/><radialGradient id="radial-gradient-11" cx="2177.93" cy="1037" r="1044.21" gradientTransform="translate(61.93 -68.06) scale(1.7 1.26)" xlink:href="#radial-gradient-2"/><radialGradient id="radial-gradient-12" cx="2111.68" cy="1047.25" r="577.65" gradientTransform="translate(61.93 -68.06) scale(1.7 1.26)" xlink:href="#radial-gradient-2"/><radialGradient id="radial-gradient-13" cx="2122.69" cy="1047.25" r="570.89" gradientTransform="translate(61.93 -68.06) scale(1.7 1.26)" xlink:href="#radial-gradient-2"/><radialGradient id="radial-gradient-14" cx="2122.68" cy="1580.34" r="134.91" gradientTransform="translate(61.93 -68.06) scale(1.7 1.26)" xlink:href="#radial-gradient-2"/><radialGradient id="radial-gradient-15" cx="2031.23" cy="1094.03" r="1576.92" gradientTransform="translate(61.93 -1.66) scale(1.7 1.2)" xlink:href="#radial-gradient-2"/><radialGradient id="radial-gradient-16" cx="2127.77" cy="1317.58" r="1121.27" gradientTransform="translate(61.93 -1.66) scale(1.7 1.2)" xlink:href="#radial-gradient-2"/><radialGradient id="radial-gradient-17" cx="2081.47" cy="1235.09" r="811.53" gradientTransform="translate(61.93 -1.66) scale(1.7 1.2)" xlink:href="#radial-gradient-2"/><radialGradient id="radial-gradient-18" cx="846.64" cy="984.62" r="1022.78" xlink:href="#radial-gradient-2"/><radialGradient id="radial-gradient-19" cx="837.15" cy="1209.32" r="652.87" xlink:href="#radial-gradient-2"/><radialGradient id="radial-gradient-20" cx="743.15" cy="1086.13" r="526.23" xlink:href="#radial-gradient-2"/><radialGradient id="radial-gradient-21" cx="351.74" cy="708.3" r="796.01" gradientTransform="translate(61.93 -1.66) scale(1.7 1.2)" gradientUnits="userSpaceOnUse"><stop offset="0" stop-color="#fff"/><stop offset="0.17" stop-color="#d8effe"/><stop offset="1" stop-color="#1da1f9"/></radialGradient><radialGradient id="radial-gradient-22" cx="454.82" cy="857.74" r="1572.31" gradientTransform="translate(61.93 -1.66) scale(1.7 1.2)" xlink:href="#radial-gradient-2"/><radialGradient id="radial-gradient-23" cx="240.48" cy="673.17" r="819.85" gradientTransform="translate(61.93 -1.66) scale(1.7 1.2)" xlink:href="#radial-gradient-2"/><radialGradient id="radial-gradient-24" cx="615.29" cy="1072.55" r="1373.18" gradientTransform="translate(61.93 -1.66) scale(1.7 1.2)" xlink:href="#radial-gradient-2"/><radialGradient id="radial-gradient-25" cx="594.24" cy="897.78" r="1264.04" gradientTransform="translate(61.93 -1.66) scale(1.7 1.2)" xlink:href="#radial-gradient-2"/><radialGradient id="radial-gradient-26" cx="522.18" cy="1072.55" r="1262.91" gradientTransform="translate(61.93 -1.66) scale(1.7 1.2)" xlink:href="#radial-gradient-2"/><radialGradient id="radial-gradient-27" cx="412.67" cy="1172.5" r="597.78" gradientTransform="translate(61.93 -1.66) scale(1.7 1.2)" xlink:href="#radial-gradient-2"/><radialGradient id="radial-gradient-28" cx="493.14" cy="1003.09" r="588.02" gradientTransform="translate(61.93 -1.66) scale(1.7 1.2)" xlink:href="#radial-gradient-2"/></defs><rect class="cls-1" width="4270.36" height="1920"/><path class="cls-2" d="M1528.05,1570.81s115.32-69.84,266.43-36.32,155.08,97.77,155.08,97.77,47.72-16.76,95.44,2.8a76.89,76.89,0,0,1,34.61,28.24c15.18,22.16,50.82,33.56,84.18,26.13,30.56-6.81,69.39-12.06,111.84-9.68,99.41,5.59,103.39,95,35.79,120.13,0,0,111.34-5.59,127.25,41.9,0,0,230.64-47.49,345.95,14S3007.31,1920,3007.31,1920H1134.38s55.28-150.2,240.38-171.48C1374.76,1748.52,1317.3,1607.12,1528.05,1570.81Z" transform="translate(0 0)"/><path class="cls-3" d="M4270.36,1919.69V664.4c-173.29,21.09-311,124.52-320.65,251.15-161.34,22.44-283,122.81-283,243.26a179.47,179.47,0,0,0,9.37,57.07c-89.78,35-150.59,102.45-150.59,179.94a149.36,149.36,0,0,0,9.29,51.68c-141.13,55.41-236.63,161.73-236.63,283.8,0,70.24,85.38,188.39,85.38,188.39Z" transform="translate(0 0)"/><path class="cls-4" d="M4270.36,1231.18c-298-62.36-347.21,185.27-449.33,115.89-109.14-74.16-302.61-117.91-475.6-.18-145.13,98.77-94.9,169.08-94.9,169.08s-84.33-74.15-168.67,33-124-61.8-307.57,74.15-491.12-4.12-699.48,144.19c-117.71,83.79-153.54,90-239.19,79.53v72.89H4270.36Z" transform="translate(0 0)"/><path class="cls-5" d="M4270.36,1599.92s-77-2.12-105.39-6.14q-59.05,44-139.23,62.39-78.78,29.22-169.8,26.79-119.33-.26-222.43-42.47l-89.2-48.63q-10.84-7.71-20.8-15.78-57.35,41-134,58.56-78.78,29.22-169.8,26.79-24.78-.06-48.87-1.93-27.45,49.07-84,86.14Q3026.94,1791.14,2945,1810q-78.78,29.22-169.8,26.79-103.92-.23-195.53-32.27c-8.09-2.83-17.79-1.72-24.39,2.61l-.11.07q-59.88,45.49-141.83,64.32-78.78,29.21-169.8,26.78-119.33-.26-222.43-42.46L1974,1830.12c-48.87,23.24-83.35,23.41-138.41,16.68v72.89H4270.36V1599.92Z" transform="translate(0 0)"/><path class="cls-6" d="M4270.36,785.32C4162.52,823.79,4033.2,889,3991.47,992.08c-78.44,193.77-143.81,87.66-163.42,235.29S3742,1331.1,3703.86,1375c-145.6,167.73-294.16,46.13-366.07,138.4s-274.54,92.27-274.54,92.27,189.57,27.68,339.91-41.52,254.94,9.23,326.84-78.43,241.86-36.91,294.16-101.49c51-63,81.47-191.64,246.2-206.65Z" transform="translate(0 0)"/><path class="cls-7" d="M3991.47,992.08c-78.44,193.77-143.81,87.66-163.42,235.29S3742,1331.1,3703.86,1375c-145.6,167.73-294.16,46.13-366.07,138.4-27.77,35.65-75.06,57.51-122.64,70.94,11.8-.39,23.6-.94,35.33-1.76a381.72,381.72,0,0,0,39.8-7.13,283.33,283.33,0,0,0,26.69-11.29c12.3-7.26,24.31-14.76,36.92-21.76,20.52-11.4,41.14-23.51,63.75-32.93q9.77-4.08,20.14-7.33c16-5,32.37-10.34,49.27-14,31.12-6.65,63.45-8,95.71-9.59q7.84-4.78,15.6-9.65c33.58-21.11,64.75-43.69,96.68-66a502.24,502.24,0,0,1,74.82-43.34c15.26-7.12,32.06-12.05,49-16.87a431.11,431.11,0,0,1,10.76-48.59c9.8-34.8,27.46-68.8,50.44-100.32,13.29-18.24,30.48-34,48.46-50.12A209.81,209.81,0,0,1,3966,1116.8a128.19,128.19,0,0,1,14.91-9c22.16-62.33,56.67-122.75,102.6-178.19,9.28-11.2,19.07-22.21,29.7-32.8,16.24-16.18,33.32-32.34,52.73-46.73a220.72,220.72,0,0,1,19.17-12.76c14.11-8.31,28.7-16.73,44.38-23.61,11.42-5,28.33-8.82,40.88-12.35v-16C4162.52,823.79,4033.2,889,3991.47,992.08Z" transform="translate(0 0)"/><path class="cls-8" d="M4228.62,967.3c-35.12,20.09-67.63,42.55-96.28,67.24-13.46,13.1-25.72,26.85-35.83,41.37-7.87,15.78-12.9,32.09-16.59,48.64-2.41,14.46-4.45,29-7,43.4-4.45,25.2-8.43,50.94-18,75.52a157.51,157.51,0,0,1-10.61,22c-7.92,13.63-15.45,27.71-26.43,40.33-11.17,12.85-24.58,24.93-39,36-14,10.79-31.12,19.56-47.68,28.14a165.69,165.69,0,0,1-25.35,10.52c-17.51,5.65-36.65,12-55.92,15a446,446,0,0,1-59.29,5.34c-16.4.3-33-1.41-49.26-3.17a88.76,88.76,0,0,1-8.75,6.51l-1.24.91c-18.94,19.83-35,41.36-61.45,57-11.93,7-27,16.19-42,21.36a387.32,387.32,0,0,1-43.66,12.61c-20.58,4.47-42.78,5.84-63.94,7.58-24.8,2-50.52.81-75.47-1.91-8.9,10.8-20.45,20.68-31.84,30a118.87,118.87,0,0,1-12.79,9.06c-12.4,7.65-25.65,14.8-39.21,21.41a236.49,236.49,0,0,1-32.74,12.77c-51.16,16.06-105.7,29.62-161.16,36.2,67.44-1,157.11-10.59,236-46.9,150.35-69.2,254.94,9.23,326.84-78.43s241.86-36.91,294.16-101.49c51-63,81.47-191.64,246.2-206.65V949.36C4257.57,955,4240.77,961,4228.62,967.3Z" transform="translate(0 0)"/><path class="cls-9" d="M4270.3,1919.69V1130.9a348.47,348.47,0,0,0-147.51,57c-150.7,103.13-131.86,203.48-131.86,203.48s-241.12,13.94-297.63,100.35-244.89,33.45-275,156.1-109.26,184-391.83,217.43c-262.59,31.09-341.29,54.47-341.29,54.47Z" transform="translate(0 0)"/><path class="cls-10" d="M4270.3,1919.69v-261.9c-.2,0,.2.1,0,.15-52.52,20.42-114.06,29.78-174.73,28.09a598,598,0,0,1-105.08-9.34q-27.45,52-84.45,91.17-59.88,47.69-141.83,67.42-78.78,30.62-169.8,28.08a586,586,0,0,1-132.09-14.92q-58.55,35.08-134.24,48.41-9.1,2.18-18.09,4.55-5.58,1.81-11.17,3.59c-15.41,4.88-46.23,14.7-46.23,14.7Z" transform="translate(0 0)"/><path class="cls-11" d="M4122.79,1187.86c-150.7,103.13-131.86,203.48-131.86,203.48s-241.12,13.94-297.63,100.35-244.89,33.45-275,156.1-109.26,184-391.83,217.43c-110.57,13.09-177.14,26.16-223.35,30.37,81,1.27,160.29-6.93,240.93-12.69a1073.65,1073.65,0,0,0,132.17-25.26c30.81-11.17,60.81-23.69,90.42-36.37,31.27-13.4,62-27.56,91.53-42.93,6-3.82,11.85-7.73,17.53-11.79,13.78-17.21,26-35.14,40.7-52,19.26-22.11,43.7-44.18,65.1-63.73a184.68,184.68,0,0,1,20.44-16.49,604.9,604.9,0,0,1,85.57-48.87c31.05-14.46,67.82-23.5,101.22-33q7.82-1.56,15.64-2.82,16.35-15.57,33.89-30.4a195.51,195.51,0,0,1,25-18c24.9-15,49.93-30.21,76.62-43.51q6.84-3.4,14.11-6.3a683.57,683.57,0,0,1,106-32.8q10.47-2.09,20.92-3.64c9.34-16.66,19-33.21,28.8-49.7a320.15,320.15,0,0,1,27.38-39.79,210.94,210.94,0,0,1,15.6-17.07c17.63-17.29,41.52-43.85,66.18-61.31,3.12-2.21,6.39-4.26,9.77-6.23,21.75-12.72,44.11-26.27,66.78-38.09,1.49-.78,3-1.52,4.56-2.24,14.6-6.7,33.73-11.34,48.05-15.81,5.35-1.67,15.83-3.78,22.3-5.92V1130.9A348.47,348.47,0,0,0,4122.79,1187.86Z" transform="translate(0 0)"/><path class="cls-12" d="M4270.3,1919.69v-28.76c-5.48,1.56-15.36,3-21,4.4-30.48,11.85-95.56,24.36-95.56,24.36Z" transform="translate(0 0)"/><path class="cls-13" d="M4013,1919.69s-86.34-14.67-126.82-29.31c-22.91,10.14-73.33,29.31-73.33,29.31H4013Z" transform="translate(0 0)"/><polygon class="cls-14" points="3449.89 1919.69 3447.44 1919.69 3444.95 1919.69 3449.89 1919.69"/><path class="cls-15" d="M4270.36,1437.79a454.74,454.74,0,0,0-133.91,18.14c-91.09,26.78-128.22,79-143.17,120.74-12.76,35.67-48.47,65-96.41,79.41-38.17,11.48-73.64,29.54-69.62,56.62,8.41,56.76,26.92,73.09-74.89,60s-132,4-137.74,57.52-111-12.2-195.45,43.72c-68.07,45.09-247.16,45.72-247.16,45.72H4270.36Z" transform="translate(0 0)"/><path class="cls-16" d="M3870.22,1749.15q14.18-30.74,48.43-53.2,29.64-22.52,69.46-32.73,2.67-3.95,5.57-7.84,26.66-57.84,91.12-100.1,59.88-45.49,141.83-64.31c12.89-4.78,30.36-8.92,43.73-12.42v-40.76a454.74,454.74,0,0,0-133.91,18.14c-91.09,26.78-128.22,79-143.17,120.74-12.76,35.67-48.47,65-96.41,79.41-38.17,11.48-73.64,29.54-69.63,56.62,8.42,56.76,26.93,73.09-74.88,60s-132,4-137.74,57.52-119.89-18.15-195.45,43.72c-64.35,52.7-247.16,45.72-247.16,45.72h194.75s62.45-28.18,98.49-36.45q68-25.23,145.2-26.85,10.47-4.86,21.42-9.13,4.26-3.19,8.87-6.22,31.83-24.18,75.38-34.18,41.87-15.52,90.24-14.24a336.81,336.81,0,0,1,44.33,3Q3853.87,1771.12,3870.22,1749.15Z" transform="translate(0 0)"/><path class="cls-17" d="M4213.24,1835.46q-64.07,23.74-138.07,21.78Q3986,1857,3907.89,1828q-40.92,24.95-92.62,36.84-64.07,23.76-138.07,21.78a498.65,498.65,0,0,1-108.59-11.83q-55.52,16.77-118.17,15.1-12.36,0-24.5-.61a179.71,179.71,0,0,0-48,4.17c-75.69,17-206,26.23-206,26.23H4270.36V1818.77C4253.82,1825.6,4231.89,1831.18,4213.24,1835.46Z" transform="translate(0 0)"/><path class="cls-18" d="M.47,975.12c44.94-9.81,100.27-15.33,148.75-16,224.5-3.11,422.08,98.55,527,251.38A445.08,445.08,0,0,1,771.06,1199c142.53-2,267.9,62.77,334.15,160A538.83,538.83,0,0,1,1210,1347.34c184.59-2.56,345.36,87.59,419.7,219.42,25.54,45.31,72.69,83.09,134.27,105.51,111.18,40.48,235.59,128.23,352.5,187.74,82,41.77,215.67,59.68,215.67,59.68H.47Z" transform="translate(0 0)"/><path class="cls-19" d="M475.32,1536c22.72-49.75,74.38-90.48,143.08-110,45.13-12.83,103.24-22.61,177.09-24.23,243.65-5.38,323.59,72.54,323.59,118.21s64.72-45.67,129.44,21.5,163.69-18.81,243.64,88.66,137,26.87,255.06,123.59,392.11,129,392.11,129l194.16,37H.47S-4,1724.17,254.91,1657C411.31,1616.42,460.72,1568,475.32,1536Z" transform="translate(0 0)"/><path class="cls-20" d="M2063.3,1885.62c-.91-.9-1.9-1.81-3-2.72-20.85-17.8-56.34-23.27-86.48-14.14q-8,2.41-16.39,4.34-45.14,16.74-97.28,15.35-68.37-.15-127.45-24.33-25.55-13.93-51.1-27.86a226.51,226.51,0,0,1-21.05-16.88c-15.76-14.31-40-22.54-65.79-23.19h-.44q-68.37-.15-127.45-24.33-25.55-13.93-51.1-27.86-25.71-18.27-42.72-40.13a268.66,268.66,0,0,1-66.35,6.2q-68.37-.15-127.44-24.33l-51.11-27.86a203,203,0,0,1-41.56-38.67q-51.88,17.35-111.09,15.79-84.4-.18-157.34-30l-63.09-34.4q-57.95-41.17-80.17-97.08l-11.1-58.31c-16.42,3.23-31.55,6.89-45.43,10.83-68.7,19.54-120.36,60.27-143.08,110-14.6,32-64,80.41-220.41,121C-4,1724.17.47,1919.69.47,1919.69h2333l-208.24-9.41C2100.32,1909.15,2077.84,1899.89,2063.3,1885.62Z" transform="translate(0 0)"/><path class="cls-21" d="M3997.24,653.59c-84,131.46-175.07,44.89-329.14,205.2S3142.87,1073.6,2841.74,1064s-140.06,89.77-483.21,176.34-51-139.28-561.25-87.27-447.19-95.48-734.31-82.66-567.25,28.86-749.33-105.8C201.41,881.59,75.72,832.71,0,807.41v46.32c37.8,9.88,94.17,31,152.57,75.59,126.05,96.19,196.08,131.46,448.19,169.93S1119,1073.6,1217,1121.69s266.12,102.6,553.24,80.16,266.12,169.92,532.23,137.86,245.11-243.67,567.25-234S3430,1173,3570.06,1038.33s105,51.3,343.15-176.34c185.33-177.18,260.35-251.41,357.15-249.91V529.36C4187.38,538.12,4053.33,565.86,3997.24,653.59Z" transform="translate(0 0)"/><path class="cls-22" d="M42.58,1321.8c36.12-3.91,73-8,109.62-9.58,53.15-2.3,105.17,3.47,157.75,8.9,32.25,3.34,63,9.51,93.9,16.58q48.15,11,97,20.49c56.93,11,114.59,20.19,172.86,26.81,65.48,4.91,131.53,6.06,197.09,1.74a728.16,728.16,0,0,0,77.92-13.42l1.11-.38c-138.94-10.12-214.57-24-307.5-92.87-99.77-73.93-114.74-7-129.7-88s-74.83-52.81-74.83-52.81C582.44,994.9,333,931.53,263.18,935.05s-39.91-10.57-89.8-77.46C136.66,808.34,43,808.71.47,812.33v513c1.57.1-1.61.2,0,.29C10.09,1324.14,32.85,1322.85,42.58,1321.8Z" transform="translate(0 0)"/><path class="cls-23" d="M104.8,869.07q45.55,32.37,63,76.32,1,5.11,1.94,10.22c2,0,4.1,0,6.16.1q66.36.13,123.7,23.61l49.6,27q45.56,32.37,63,76.33,4.38,23,8.75,46c.13,2.3.15,4.57.12,6.84l27.87,15.2q45.56,32.37,63,76.33,2,10.42,4,20.86l47.73,26q30.06,21.36,47.86,47.76,3.57,2.44,7,5A275.66,275.66,0,0,0,641.21,1344q5.17,2.2,10.5,4.28c27,6,54.78,10,82.76,13,49,4.37,98,8.48,147,13.17l-65.15-6.18c40.8,3.87,82.05,6.84,123.27,7.11,3.06-.67,6.1-1.36,9.14-2.07l1.12-.38c-138.94-10.12-214.58-24-307.51-92.87-99.77-73.93-114.74-7-129.7-88s-74.83-52.81-74.83-52.81C582.44,994.9,333,931.53,263.18,935.05s-39.91-10.57-89.8-77.46C136.66,808.34,43,808.71.47,812.33V827.2C16.4,831,40.18,835.87,55.19,842Z" transform="translate(0 0)"/><path class="cls-24" d="M42.58,1321.8c36.12-3.91,73-8,109.62-9.58,53.15-2.3,105.17,3.47,157.75,8.9,32.25,3.34,63,9.51,93.9,16.58q48.15,11,97,20.49c56.93,11,114.59,20.19,172.86,26.81,44.46,3.33,89.19,4.92,133.84,4.26q-16.92-4-33.47-8.7c-31.62-9.14-65.33-18-95.71-29.82a397.41,397.41,0,0,1-43.85-20.55,267.09,267.09,0,0,1-49.51,3.15q-66.36-.15-123.7-23.61l-49.61-27q-30.26-21.51-48.11-48.13a265.49,265.49,0,0,1-52.95,3.73q-66.36-.13-123.7-23.61l-49.6-27.05q-45.56-32.37-63-76.33-3.75-19.66-7.49-39.35c-20-1.39-47.63-4.44-66.32-9.17v262.54c1.57.1-1.61.2,0,.29C10.09,1324.14,32.85,1322.85,42.58,1321.8Z" transform="translate(0 0)"/><path class="cls-25" d="M.47,1893.47v26.22H56.86S16.5,1902.21.47,1893.47Z" transform="translate(0 0)"/><path class="cls-26" d="M1679.73,1919.69s-172.87-58.9-239.4-119.94c-130.74-120-294.16,55.36-366.07-73.82S754,1707.48,760.5,1606s52.67-139.73-163-245.84-313.93-19.67-313.93-19.67-13.28-85.11-209.39-94.34c-24.42-1.15-54.41-.79-73.66.71v672.85Z" transform="translate(0 0)"/><path class="cls-27" d="M931.39,1698.63l89.19,48.63q38.34,27.24,65.61,59a467,467,0,0,1,159.2-2.19q88,2.82,163.85,36.91c40.1,17.63,76.67,39.49,112.88,60.66,7.4,4.33,21.12,18,21.12,18h136.49s-172.87-58.9-239.4-119.94c-130.74-120-294.16,55.36-366.07-73.82S754,1707.48,760.5,1606s52.67-139.73-163-245.84-313.93-19.67-313.93-19.67-13.28-85.11-209.39-94.34c-24.42-1.15-54.41-.79-73.66.71v40.06c40.08,7,86.91,18.12,123.87,33.25l88.34,48.17a474,474,0,0,1,103.37-8.19q119.32.25,222.43,42.46l89.2,48.64q81.93,58.2,113.33,137.25,6.6,34.66,13.21,69.33Q848.09,1664.55,931.39,1698.63Z" transform="translate(0 0)"/><path class="cls-28" d="M1373.21,1894.77l-38.55-21q-62.39,16.61-131.92,14.77-119.33-.27-222.43-42.47l-38.18-20.81q-44.65,22.18-97.61,34.35Q757,1892,655.86,1889.35q-132.58-.28-247.15-47.18l-99.11-54q-52.23-37.11-86-81.85C148,1704,68,1691.16.47,1667.9v251.79h1449S1397.94,1904.89,1373.21,1894.77Z" transform="translate(0 0)"/><path class="cls-29" d="M288.49,1854.61l-21.94-20a495.61,495.61,0,0,1-61.66,2.13c-69.5-.15-143.17-11-204.42-32.47v115.46H423.56S328.34,1882.55,288.49,1854.61Z" transform="translate(0 0)"/><path class="cls-21" d="M4196.54,529.2c-65.37,64.59-69.73,70.74-148.17,80s-130.74-9.23-130.74,36.91-39.22,126.1-91.51,135.32-56.66,43.06-100.23,101.5-239.69,110.72-396.57,70.74S3102.71,969,3072.21,981.32c-28,11.28-99-49.23-158.13-38.24q20.79,6.64,41.1,13.88a182.92,182.92,0,0,1,19.75,8.38c39.46,19.43,79.05,39.19,114.94,61.84,39.44-18.93,91.86-46.11,230.73-42.79,257.12,6.16,396.57,6.16,457.58-76.89s30.51-92.27,113.31-141.48,13.07-104.57,139.45-123,239.42-129.18,239.42-129.18v-66.5S4226.78,499.32,4196.54,529.2Z" transform="translate(0 0)"/><path class="cls-21" d="M4270.36,106.12c-36.63,14.2-121.18,55.66-103.11,141.71,0,0-87.16-4.1-87.16,102.52s-58.1,69.71-81.34,123-122,41-162.68,139.42-34.87,135.32-197.55,184.53S3295.72,867,3295.72,867s151.06,12.3,278.89-20.51,226.59-90.21,267.27-131.22,63.91-8.2,116.2-61.51S4056.85,551.28,4144,539c84.82-12,58.42-66.67,126.35-103.61Z" transform="translate(0 0)"/><path class="cls-21" d="M73.83,631.74c65.36,64.59,69.72,70.74,148.16,80s130.74-9.23,130.74,36.91S392,874.72,444.24,883.94,500.9,927,544.48,985.44,784.16,1096.16,941,1056.18s226.61,15.38,257.12,27.68c28,11.29,99-49.23,158.12-38.24q-20.79,6.64-41.1,13.88a183.78,183.78,0,0,0-19.75,8.38c-39.46,19.43-79,39.19-114.93,61.84-39.45-18.92-91.87-46.11-230.74-42.79-257.12,6.16-396.57,6.16-457.58-76.89s-30.5-92.26-113.3-141.47S365.8,764,239.42,745.54,0,616.36,0,616.36V549.87S43.58,601.86,73.83,631.74Z" transform="translate(0 0)"/><path class="cls-21" d="M0,247.16c22.52,8.73,74.5,34.22,63.39,87.12,0,0,53.58-2.52,53.58,63s35.72,42.85,50,75.63,75,25.2,100,85.71,21.43,83.19,121.45,113.44S599.18,715,599.18,715s-92.87,7.56-171.45-12.61-139.31-55.46-164.31-80.67-39.29-5-71.44-37.81-60.72-63-114.3-70.59c-52.15-7.36-35.92-41-77.68-63.7Z" transform="translate(0 0)"/><g class="cls-30"><path class="cls-31" d="M3007.31,541.52c11.28-41.34,142.23-57.95,145.18-45.84,1.4-25.85,18.4-50.25,42.17-60.5s53.18-5.88,72.94,10.84c-1.88-9.53,4.44-20,13.75-22.73s20.3,2.54,23.92,11.55c1-29.53,27.07-72.69,94.6-81.13,57.6-7.2,71.23,54.41,61.77,82.79,32.16-45.41,102.16-22.7,96.49,26.49,20.81-34.06,75.67-26.49,73.78,15.13,43.52,37.84,118.06,43.63,126.76,62.44Z" transform="translate(0 0)"/><path class="cls-32" d="M3059.27,541.44s78.63.28,95.87-31.15c17,35.94,124.87,17,117.3-32.17,17,13.25,43.52,7.57,41.62-15.13,21,29.92,103.81,51.52,136.21,4.72,12.85,47.08,92.72,46.36,100.29,19.87,0,0,13.24,43.52,88.92,53.15Z" transform="translate(0 0)"/></g><g class="cls-30"><path class="cls-31" d="M2645.39,243.76l-26.3.06-236.72.48-40.58.09c39.6-16.23,64.54-45.95,72.68-22.84-1.3-10.81,23.94-33.33,41.49-12.08a12.67,12.67,0,0,1,24.18-7.19c.65-19,17.39-46.67,60.74-52.09,37-4.62,45.73,34.94,39.66,53.16C2610.59,197,2601,229.36,2645.39,243.76Z" transform="translate(0 0)"/><path class="cls-32" d="M2619.09,243.82l-236.72.48a52.65,52.65,0,0,0,18.87-16.83,17.55,17.55,0,0,0,20,7.51c3.93-1.3,14.2-2,20.2-11.62,18,8.4,31.37,4.14,36-7.2,1.44,3.68,11.34,4.37,15.26,3.92s7.32-11,7.88-14.87c4.46,9.75,25,8.46,28.46.15,1.2,10.8,8.86,13.36,15.6,15.6,7.2,2.4,13.32-.92,17.16-6.91-2.16,3.36,2.69,16.67,10.44,20.11,10.8,4.8,34.8,9.6,46.8,9.6Z" transform="translate(0 0)"/></g><g class="cls-30"><path class="cls-31" d="M2282.94,995.46l45.34.07,408,.52,69.94.09c-68.25-17.64-111.22-50-125.27-24.83,2.26-11.76-41.26-36.25-71.49-13.14,2.08-6.65-4.91-13.95-15.2-15.88s-22.47,1.77-26.48,8.06c-1.11-20.61-30-50.74-104.69-56.64-63.74-5-78.82,38-68.35,57.81C2342.92,944.57,2359.47,979.8,2282.94,995.46Z" transform="translate(0 0)"/><path class="cls-32" d="M2328.28,995.53l408,.52c-12.95-4.35-24.28-10.64-32.52-18.31-6.72,7.19-21.81,10.77-34.39,8.17-6.76-1.41-24.47-2.19-34.81-12.63-31,9.13-54.06,4.5-62-7.83-2.48,4-19.55,4.75-26.31,4.25s-12.61-11.92-13.57-16.16c-7.69,10.61-43.08,9.2-49.05.17-2.07,11.74-15.27,14.52-26.89,17-12.41,2.61-23-1-29.57-7.52,3.72,3.66-4.63,18.13-18,21.87-18.61,5.22-60,10.44-80.66,10.44A.56.56,0,0,0,2328.28,995.53Z" transform="translate(0 0)"/></g><g class="cls-30"><path class="cls-31" d="M1827,561.66l-105.84.1-501.5-.1h-22.27l-72.39.16c66.11-25.29,72.77-75.85,98.45-59.8,2.14-34.4,49.22-50.46,72.77-32.11-32.11-103.22,143.39-146.8,117.72-2.29,34.23-45.89,115.56-39,118.33,14.74,1.15-36.25,30.47-96.18,108.34-99.57,53.7-2.34,81.56,66.79,70.73,101.62C1764.93,472.2,1737.27,533.38,1827,561.66Z" transform="translate(0 0)"/><path class="cls-32" d="M1219.65,561.66c8.14-8.37,13.06-20,12.32-31.68,14.41,3.49,30.7-3.45,38.17-16.25a24.32,24.32,0,0,0,41.89-14.4,70.33,70.33,0,0,0,107.91.84c-1.62,9.17,12,13.69,20.45,9.9s15-11.71,24.08-13.9c10.23-2.47,20.6,3.1,29,9.38s16.65,13.72,27,15.86,23.23-4,23.55-14.52c19.58,9,45.22,1.79,57.18-16.15a56,56,0,0,0,88.07,31.74c5.28,18.4,17.37,29,31.88,39.28Z" transform="translate(0 0)"/></g><g class="cls-30"><path class="cls-31" d="M2865.2,610.82l-9.08,0h-94l-14,0c1.55-3.14,10.59-3.76,19-11.57.42-6.66,10.26-17.12,20.08-6.21-6.21-20,25-16.91,30.42-1.56,2.18-5.91,25.76.25,27,9.85C2851.75,611,2862.4,608,2865.2,610.82Z" transform="translate(0 0)"/><path class="cls-32" d="M2766.4,610.82a8.2,8.2,0,0,0,2.38-6.13,6.93,6.93,0,0,0,7.39-3.15,4.7,4.7,0,0,0,8.1-2.78,13.61,13.61,0,0,0,20.88.16c-.32,1.77,2.31,2.65,3.95,1.92s2.91-2.27,4.66-2.69c2-.48,4,.6,5.62,1.81s3.22,2.66,5.21,3.07,4.5-.78,4.56-2.81a6.19,6.19,0,0,0,9.41,3c1,3.56,3.36,5.61,6.17,7.59Z" transform="translate(0 0)"/></g><circle class="cls-31" cx="2928.59" cy="762.17" r="7.2"/><circle class="cls-31" cx="3263.39" cy="135.76" r="7.2"/><circle class="cls-31" cx="2230.19" cy="1200.16" r="7.2"/><circle class="cls-31" cx="3770.99" cy="142.96" r="7.2"/><path class="cls-31" d="M3822,585.34a7.2,7.2,0,1,1-4-9.38A7.21,7.21,0,0,1,3822,585.34Z" transform="translate(0 0)"/><circle class="cls-31" cx="2584.53" cy="41.26" r="7.2"/><circle class="cls-31" cx="1996.19" cy="582.16" r="7.2"/><circle class="cls-31" cx="2703.59" cy="1314.76" r="10.2"/><path class="cls-31" d="M3474.53,823.26a10.2,10.2,0,1,1-5.61-13.29A10.2,10.2,0,0,1,3474.53,823.26Z" transform="translate(0 0)"/><circle class="cls-31" cx="1539.59" cy="685.97" r="10.2"/><circle class="cls-31" cx="3316.19" cy="514.96" r="3.6"/><circle class="cls-31" cx="4130.99" cy="660.16" r="3.6"/><circle class="cls-31" cx="4054.19" cy="254.56" r="3.6"/><circle class="cls-31" cx="3203.19" cy="1160.16" r="3.6"/><circle class="cls-31" cx="2484.53" cy="893.55" r="3.6"/><circle class="cls-31" cx="1938.59" cy="266.56" r="3.6"/><circle class="cls-31" cx="2509.79" cy="589.36" r="3.6"/><circle class="cls-31" cx="2254.53" cy="349.66" r="3.6"/><circle class="cls-31" cx="1949.39" cy="932.97" r="3.6"/><g class="cls-30"><path class="cls-31" d="M595.78,196.39l-35,.08h-43.9l-301.78-.07H198.54l-54,.12c6-12.09,40.8-14.49,73.38-44.57,1.6-25.64,36.68-37.61,54.23-23.93-23.93-76.93,125.59-99.59,117.19-6,8.4-22.8,68.4-18,58.74,26.07,4.86-59.67,87.66-48.87,75.66,6.33C551.38,191.62,585,185.62,595.78,196.39Z" transform="translate(0 0)"/><path class="cls-32" d="M215.13,196.39c6.07-6.24,9.74-14.9,9.19-23.61a26.63,26.63,0,0,0,28.45-12.11A18.12,18.12,0,0,0,284,149.94a52.41,52.41,0,0,0,80.43.62c-1.21,6.84,8.9,10.2,15.24,7.38s11.19-8.73,18-10.36c7.62-1.84,15.35,2.31,21.64,7s12.41,10.23,20.1,11.82,17.31-3,17.55-10.82c6.89,16.85,25.23,19.9,36.25,11.62,3.94,13.72,12.95,21.61,23.77,29.27Z" transform="translate(0 0)"/></g><path class="cls-31" d="M1671.59,13.75a7.2,7.2,0,1,1-4-9.39A7.21,7.21,0,0,1,1671.59,13.75Z" transform="translate(0 0)"/><circle class="cls-31" cx="691.63" cy="378.89" r="10.2"/><path class="cls-31" d="M1538.9,174.16a10.2,10.2,0,1,1-5.6-13.3A10.2,10.2,0,0,1,1538.9,174.16Z" transform="translate(0 0)"/><circle class="cls-31" cx="1202.23" cy="264.29" r="3.6"/><g class="cls-30"><path class="cls-31" d="M687.43,645.55l-26.3.06-236.71.48-40.59.08c39.6-16.22,64.54-45.94,72.69-22.83C455.21,612.53,480.46,590,498,611.25a12.67,12.67,0,0,1,24.18-7.18c.65-19,17.39-46.67,60.74-52.1,37-4.62,45.74,34.95,39.66,53.16C652.63,598.75,643,631.15,687.43,645.55Z" transform="translate(0 0)"/><path class="cls-32" d="M661.13,645.61l-236.71.48a52.73,52.73,0,0,0,18.86-16.84,17.57,17.57,0,0,0,20,7.52c3.92-1.3,14.19-2,20.19-11.62,18,8.4,31.37,4.14,36-7.2,1.44,3.67,11.34,4.37,15.27,3.91s7.32-11,7.87-14.87c4.46,9.76,25,8.46,28.46.16,1.2,10.8,8.86,13.35,15.6,15.6,7.2,2.4,13.32-.92,17.16-6.91-2.16,3.36,2.69,16.66,10.44,20.11,10.8,4.8,34.8,9.6,46.8,9.6C661.07,645.56,661.09,645.59,661.13,645.61Z" transform="translate(0 0)"/></g><g class="cls-30"><path class="cls-31" d="M1079.06,1055.06l-9.08,0h-11.4l-78.33,0H976l-14,0c1.56-3.14,10.59-3.76,19-11.58.41-6.66,10.25-17.12,20.07-6.21-6.21-20,25-16.92,30.42-1.56,2.18-5.92,25.76.26,27,9.86C1065.61,1055.26,1076.25,1052.26,1079.06,1055.06Z" transform="translate(0 0)"/><path class="cls-32" d="M980.25,1055.06a8.21,8.21,0,0,0,2.39-6.13,6.91,6.91,0,0,0,7.38-3.15,4.7,4.7,0,0,0,8.1-2.79,13.6,13.6,0,0,0,20.88.17c-.31,1.77,2.31,2.65,4,1.91s2.9-2.27,4.65-2.69c2-.48,4,.6,5.62,1.82s3.22,2.65,5.22,3.07,4.49-.78,4.55-2.81a6.19,6.19,0,0,0,9.41,3c1,3.56,3.36,5.61,6.17,7.6Z" transform="translate(0 0)"/></g><circle class="cls-31" cx="1454.53" cy="1204.06" r="7.2"/><circle class="cls-31" cx="368.53" cy="828.06" r="7.2"/><circle class="cls-31" cx="164.23" cy="1179.95" r="7.2"/><circle class="cls-31" cx="122.53" cy="453.66" r="3.6"/><circle class="cls-31" cx="687.43" cy="1019.66" r="3.6"/></svg>