<svg xmlns="http://www.w3.org/2000/svg" xmlns:xlink="http://www.w3.org/1999/xlink" viewBox="0 0 1880.62 987.33"><defs><style>.cls-1,.cls-10,.cls-11,.cls-12,.cls-13,.cls-14,.cls-5,.cls-6,.cls-7,.cls-8,.cls-9{stroke:#999;}.cls-1,.cls-10,.cls-11,.cls-12,.cls-13,.cls-14,.cls-3,.cls-5,.cls-6,.cls-7,.cls-8,.cls-9{stroke-miterlimit:10;}.cls-1{fill:url(#Dégradé_sans_nom_32);}.cls-2{fill:#fff;}.cls-3{stroke:#000;stroke-width:3px;}.cls-4{fill:#cac9d9;}.cls-5{fill:url(#Dégradé_sans_nom_32-2);}.cls-6{fill:url(#Dégradé_sans_nom_32-3);}.cls-7{fill:url(#Dégradé_sans_nom_32-4);}.cls-8{fill:url(#Dégradé_sans_nom_32-5);}.cls-9{fill:url(#Dégradé_sans_nom_32-6);}.cls-10{fill:url(#Dégradé_sans_nom_32-7);}.cls-11{fill:url(#Dégradé_sans_nom_32-8);}.cls-12{fill:url(#Dégradé_sans_nom_32-9);}.cls-13{fill:url(#Dégradé_sans_nom_32-10);}.cls-14{fill:url(#Dégradé_sans_nom_32-11);}</style><linearGradient id="Dégradé_sans_nom_32" x1="1250.42" y1="37.5" x2="1250.42" y2="418.57" gradientTransform="matrix(-1, 0, 0, 1, 3011.6, 0)" gradientUnits="userSpaceOnUse"><stop offset="0.69" stop-color="#f7f5ff"/><stop offset="0.74" stop-color="#f3f1fb"/><stop offset="0.78" stop-color="#e7e5ee"/><stop offset="0.83" stop-color="#d2d1d9"/><stop offset="0.88" stop-color="#b6b5bb"/><stop offset="0.93" stop-color="#919094"/><stop offset="0.98" stop-color="#656466"/><stop offset="1" stop-color="#4c4c4c"/></linearGradient><linearGradient id="Dégradé_sans_nom_32-2" x1="1935.8" y1="621.47" x2="1935.8" y2="1005.15" gradientTransform="translate(-485.94)" xlink:href="#Dégradé_sans_nom_32"/><linearGradient id="Dégradé_sans_nom_32-3" x1="2246.68" y1="621.06" x2="2246.68" y2="1004.75" gradientTransform="translate(-485.94)" xlink:href="#Dégradé_sans_nom_32"/><linearGradient id="Dégradé_sans_nom_32-4" x1="184.54" y1="621" x2="184.54" y2="1004.68" gradientTransform="matrix(1, 0, 0, 1, 0, 0)" xlink:href="#Dégradé_sans_nom_32"/><linearGradient id="Dégradé_sans_nom_32-5" x1="498.23" y1="625.75" x2="498.23" y2="1009.43" gradientTransform="matrix(1, 0, 0, 1, 0, 0)" xlink:href="#Dégradé_sans_nom_32"/><linearGradient id="Dégradé_sans_nom_32-6" x1="812.15" y1="615.9" x2="812.15" y2="999.58" gradientTransform="matrix(1, 0, 0, 1, 0, 0)" xlink:href="#Dégradé_sans_nom_32"/><linearGradient id="Dégradé_sans_nom_32-7" x1="1129.58" y1="621.25" x2="1129.58" y2="1004.93" gradientTransform="matrix(1, 0, 0, 1, 0, 0)" xlink:href="#Dégradé_sans_nom_32"/><linearGradient id="Dégradé_sans_nom_32-8" x1="979.18" y1="24.36" x2="979.18" y2="431.86" gradientTransform="matrix(1, 0, 0, 1, 0, 0)" xlink:href="#Dégradé_sans_nom_32"/><linearGradient id="Dégradé_sans_nom_32-9" x1="1382.27" y1="23.1" x2="1382.27" y2="430.6" gradientTransform="matrix(1, 0, 0, 1, 0, 0)" xlink:href="#Dégradé_sans_nom_32"/><linearGradient id="Dégradé_sans_nom_32-10" x1="592.68" y1="24.5" x2="592.68" y2="432" gradientTransform="matrix(1, 0, 0, 1, 0, 0)" xlink:href="#Dégradé_sans_nom_32"/><linearGradient id="Dégradé_sans_nom_32-11" x1="198.21" y1="31.53" x2="198.21" y2="439.03" gradientTransform="matrix(1, 0, 0, 1, 0, 0)" xlink:href="#Dégradé_sans_nom_32"/></defs><g id="Monte"><path class="cls-1" d="M1755.5,37.5c-54.2.22-89,50-100,88-13.25,45.76-22,102-24,134-2.11,33.77-15,98,9,144,15,28,54-43,54-43s5.41,58.07,32.41,58.07,34.59-49.07,34.59-49.07,1.84,49.07,28.13,49.07,44.87-51.07,44.87-51.07,27,78,51,36c15.28-26.75,12.25-148.54,3-203C1879.5,147.5,1863.3,37.07,1755.5,37.5Z" transform="translate(-24.61 -22.6)"/><path class="cls-2" d="M1713.31,61c-3.26-24.33,91.34-25.83,90.93-.24C1804,76,1716,81,1713.31,61Z" transform="translate(-24.61 -22.6)"/><path class="cls-2" d="M1665,201c25.85-2.77,8.06,28.17,5,53-2.56,20.82.26,51.05-18,53C1634.1,308.92,1637.16,204,1665,201Z" transform="translate(-24.61 -22.6)"/><path class="cls-3" d="M1752.9,122.55s7.54-5.46,14.54-2.46,5,6.78,0,11.89-13.36,10.92-17.67,0C1747.44,126.09,1752.9,122.55,1752.9,122.55Z" transform="translate(-24.61 -22.6)"/><path class="cls-4" d="M1791.18,83.37c4.12,12.46,5.06,29.91-3.18,32.63s-22.54-10.31-26.66-22.76-.78-24.77,7.47-27.49S1787.07,70.91,1791.18,83.37Z" transform="translate(-24.61 -22.6)"/><path class="cls-3" d="M1771,70.29c13.24-2.53,23.89,33.21,10.53,35.21S1756.1,73.12,1771,70.29Z" transform="translate(-24.61 -22.6)"/><ellipse class="cls-2" cx="1747.41" cy="52.21" rx="5.75" ry="4"/><path class="cls-4" d="M1728.34,82.37c-4.12,12.46-4.58,29.91,3.66,32.63s22.07-10.31,26.18-22.76.78-24.77-7.46-27.49S1732.46,69.91,1728.34,82.37Z" transform="translate(-24.61 -22.6)"/><path class="cls-3" d="M1747.55,70.29c-13.24-2.53-22.41,33.21-9,35.21S1762.43,73.12,1747.55,70.29Z" transform="translate(-24.61 -22.6)"/><ellipse class="cls-2" cx="1720.91" cy="52.21" rx="5.75" ry="4"/></g><g id="Avance_Cote"><path class="cls-5" d="M1439.32,621.47c53,0,68.67,30.47,76.5,75.5,8,46,27,118,38,150s74,132,40,153c-29.68,9.32-48-21-48-21s-7,25-34,25-36-25-36-25-.44,25-26.72,25-49.28-27-49.28-27-.79,35-35,27c-30-7-49.48-66-63.24-119.5C1288,831.56,1287.26,621.47,1439.32,621.47Z" transform="translate(-24.61 -22.6)"/><path class="cls-2" d="M1509.66,762c-39.07,53.28,21.49,168.9,59,161,19-4-17.43-44.71-26-79C1532.66,804,1520.66,747,1509.66,762Z" transform="translate(-24.61 -22.6)"/><path class="cls-2" d="M1484.41,645.38c1.77-24.48-90.93-25.83-90.93-.24S1481.5,685.83,1484.41,645.38Z" transform="translate(-24.61 -22.6)"/><path class="cls-2" d="M1376.31,690.19c-.2-2.21-2.92-3.76-6.08-3.48" transform="translate(-24.61 -22.6)"/><ellipse class="cls-4" cx="1331.37" cy="728.28" rx="30.28" ry="12.28" transform="translate(376.65 1904.78) rotate(-80.88)"/><path class="cls-3" d="M1327.66,750.7c10.65,1.16,19.15-42.68,7.33-44.87-10.51-2-18,43.72-7.33,44.87" transform="translate(-24.61 -22.6)"/><ellipse class="cls-2" cx="1334.14" cy="712.54" rx="3.52" ry="4.42" transform="matrix(0.76, -0.65, 0.65, 0.76, -168.52, 1010.85)"/></g><g id="Dos"><path class="cls-2" d="M1672.49,697.84c-.2-2.2-2.93-3.76-6.09-3.48" transform="translate(-24.61 -22.6)"/><path class="cls-6" d="M1736.38,621.07c54.2.21,80.2,48.21,98.2,84.21,21.31,42.62,36.77,110.11,44,140,8,32.89,46.3,133.29,12.3,154.29-29.68,9.32-48-21-48-21s-7,25-34,25-36-25-36-25-.43,25-26.72,25-49.28-27-49.28-27-.79,35-35,27c-30-7-38.23-70.38-44.3-125.29C1612.52,832.5,1628.58,620.63,1736.38,621.07Z" transform="translate(-24.61 -22.6)"/><path class="cls-2" d="M1813.72,746.6c-39.07,53.28,21.5,168.9,59,161,19-4-4.07-49.53-12.64-83.82C1850.08,783.78,1824.72,731.6,1813.72,746.6Z" transform="translate(-24.61 -22.6)"/><path class="cls-2" d="M1780.48,650c1.76-24.48-90.93-25.83-90.93-.24S1777.56,690.43,1780.48,650Z" transform="translate(-24.61 -22.6)"/></g><g id="Avance_content"><path class="cls-7" d="M174,621c53,0,68.67,30.47,76.5,75.5,8,46,27,118,38,150s74,132,40,153c-29.68,9.33-48-21-48-21s-7,25-34,25-36-25-36-25-.43,25-26.72,25-49.28-27-49.28-27-.79,35-35,27c-30-7-49.48-66-63.24-119.5C22.65,831.09,22,621,174,621Z" transform="translate(-24.61 -22.6)"/><path class="cls-2" d="M55.93,808.15c25.85-2.77,13.17,19.71,16.83,44.46,3.08,20.87,15.62,48.61-2.64,50.57C52.23,905.09,28.09,811.13,55.93,808.15Z" transform="translate(-24.61 -22.6)"/><path class="cls-4" d="M91,689c12,3.06,22.91,21.27,16.57,35.55S85,748.81,70.91,739.31C56.71,729.7,77.54,685.55,91,689Z" transform="translate(-24.61 -22.6)"/><path class="cls-4" d="M131.41,685.61c9.06-8.38,30.4-7.44,42.19,21.9,12.1,30.11-31.86,63.52-48.17,27C121.89,726.6,114.72,700.47,131.41,685.61Z" transform="translate(-24.61 -22.6)"/><path d="M94,696c13,1,11,39-11,36C65.28,729.58,76.93,694.69,94,696Z" transform="translate(-24.61 -22.6)"/><path d="M141.91,689s15.65-5.68,17.91,20.47-27.15,34.41-28.23,6.92C130.52,689.52,141.91,689,141.91,689Z" transform="translate(-24.61 -22.6)"/><path class="cls-2" d="M122.4,645.65c-1.32-13.39,67.82-14.13,67.82-.13S124.57,667.78,122.4,645.65Z" transform="translate(-24.61 -22.6)"/><ellipse class="cls-2" cx="66.47" cy="681.05" rx="6.08" ry="4.25"/><ellipse class="cls-2" cx="144.56" cy="696.43" rx="7" ry="4.25" transform="translate(-61.93 -13.79) rotate(-3.09)"/><path d="M90.75,760.89c1-11,16.13-.47,23,0s15.75-6.1,20-1c5,6-1.05,14.27-12.43,15s-30.57-2.34-30.57-13" transform="translate(-24.61 -22.6)"/></g><g id="Avance_appeure"><path class="cls-8" d="M487.69,625.75c53,0,68.67,30.47,76.5,75.5,8,46,27,118,38,150s74,132,40,153c-29.68,9.33-48-21-48-21s-7,25-34,25-36-25-36-25-.44,25-26.72,25-49.28-27-49.28-27-.79,35-35,27c-30-7-49.48-66-63.24-119.5C336.34,835.84,335.64,625.75,487.69,625.75Z" transform="translate(-24.61 -22.6)"/><path class="cls-2" d="M369.62,811.9c25.85-2.77,13.17,19.71,16.83,44.46,3.08,20.87,15.62,48.61-2.64,50.56C365.91,908.84,341.78,814.88,369.62,811.9Z" transform="translate(-24.61 -22.6)"/><path class="cls-4" d="M411.69,695.75c10.66,6.22,14,30,4,42s-28.4,17.14-39.3,4.15S399.69,688.75,411.69,695.75Z" transform="translate(-24.61 -22.6)"/><path class="cls-4" d="M426.69,697.75c7-10.19,28-14,46,12,18.47,26.68-17,69-41,37C426.5,739.82,413.71,715.93,426.69,697.75Z" transform="translate(-24.61 -22.6)"/><path d="M405.69,703.75c13,1,11,39-11,36C377,737.33,388.62,702.44,405.69,703.75Z" transform="translate(-24.61 -22.6)"/><path d="M437.69,698.75s14-9,22,16-18.85,39.57-26,13C426.69,701.75,437.69,698.75,437.69,698.75Z" transform="translate(-24.61 -22.6)"/><path class="cls-2" d="M436.09,649.4c-1.32-13.39,67.82-14.13,67.82-.13S438.26,671.53,436.09,649.4Z" transform="translate(-24.61 -22.6)"/><ellipse class="cls-2" cx="378.16" cy="687.8" rx="6.08" ry="4.25"/><ellipse class="cls-2" cx="441.69" cy="704.4" rx="7" ry="4.25" transform="translate(-200.6 125.26) rotate(-15.89)"/><path d="M391.75,780c1,11,16.13.47,23,0s15.75,6.1,20,1c5-6-1.05-14.28-12.43-15s-30.57,2.34-30.57,13" transform="translate(-24.61 -22.6)"/></g><g id="Avance_Surpris"><path class="cls-9" d="M801.6,615.9c53,0,68.67,30.47,76.5,75.5,8,46,27,118,38,150s74,132,40,153c-29.68,9.33-48-21-48-21s-7,25-34,25-36-25-36-25-.43,25-26.71,25-49.29-27-49.29-27-.79,35-35,27c-30-7-49.48-66-63.24-119.5C650.25,826,649.55,615.9,801.6,615.9Z" transform="translate(-24.61 -22.6)"/><path class="cls-2" d="M698.53,807.05c25.85-2.77,13.17,19.71,16.83,44.46,3.08,20.87,15.62,48.61-2.63,50.57C694.83,904,670.69,810,698.53,807.05Z" transform="translate(-24.61 -22.6)"/><path class="cls-2" d="M765,644.55c-1.32-13.39,67.83-14.13,67.83-.13S767.17,666.68,765,644.55Z" transform="translate(-24.61 -22.6)"/><ellipse class="cls-4" cx="711.51" cy="721.13" rx="33.95" ry="22.46" transform="translate(-132.68 1293.97) rotate(-81.38)"/><path class="cls-3" d="M708.54,746.29c-19.15-4.17-13.55-54,8.12-50.31,19.29,3.28,11,54.48-8.12,50.31" transform="translate(-24.61 -22.6)"/><ellipse class="cls-2" cx="690.41" cy="683.78" rx="7.5" ry="4.25"/><path d="M750.49,796.59c16-1.88,21.82-4.36,20-15-6-35-52-26-48,6C723.68,797.12,734.43,798.48,750.49,796.59Z" transform="translate(-24.61 -22.6)"/><ellipse class="cls-4" cx="770.66" cy="715.98" rx="22.46" ry="33.95" transform="translate(-123.17 100.94) rotate(-8.62)"/><path class="cls-3" d="M774.64,741.15c19.14-4.17,13.55-54-8.13-50.31-19.28,3.28-11,54.48,8.13,50.31" transform="translate(-24.61 -22.6)"/><ellipse class="cls-2" cx="742.56" cy="678.64" rx="7.5" ry="4.25"/></g><g id="Calque_13" data-name="Calque 13"><path class="cls-10" d="M1119,621.25c53,0,68.67,30.47,76.5,75.5,8,46,27,118,38,150s74,132,40,153c-29.68,9.33-48-21-48-21s-7,25-34,25-36-25-36-25-.44,25-26.72,25-49.28-27-49.28-27-.79,35-35,27c-30-7-49.48-66-63.24-119.5C967.69,831.34,967,621.25,1119,621.25Z" transform="translate(-24.61 -22.6)"/><path class="cls-2" d="M1001,807.4c25.85-2.77,13.17,19.71,16.82,44.46,3.09,20.87,15.63,48.61-2.63,50.56C997.26,904.34,973.13,810.38,1001,807.4Z" transform="translate(-24.61 -22.6)"/><path class="cls-2" d="M1067.43,644.9c-1.31-13.39,67.83-14.13,67.83-.13S1069.61,667,1067.43,644.9Z" transform="translate(-24.61 -22.6)"/><ellipse class="cls-4" cx="1062.87" cy="722.46" rx="22.46" ry="33.95" transform="translate(-120.85 144.79) rotate(-8.62)"/><ellipse class="cls-4" cx="1020.87" cy="731.46" rx="23.76" ry="15.72" transform="translate(-18.62 1448.59) rotate(-71.71)"/><path class="cls-3" d="M1024.15,714.44c-13.23-2.52-20.25,27.51-6.88,29.51S1039,717.27,1024.15,714.44Z" transform="translate(-24.61 -22.6)"/><path class="cls-3" d="M1066.84,747.62c19.15-4.17,13.55-54-8.12-50.31-19.29,3.28-11,54.48,8.12,50.31" transform="translate(-24.61 -22.6)"/><ellipse class="cls-2" cx="1034.76" cy="685.11" rx="7.5" ry="4.25"/><ellipse class="cls-2" cx="996.51" cy="700.36" rx="5.75" ry="4"/><path class="cls-3" d="M1055.41,780.92s-7.54-5.46-14.54-2.46-5,6.78,0,11.89,13.36,10.92,17.67,0C1060.87,784.46,1055.41,780.92,1055.41,780.92Z" transform="translate(-24.61 -22.6)"/></g><g id="Face_Content"><path class="cls-11" d="M963,24.36c162,0,147.5,277.5,160.5,299.5s33,26,28,42c-14,33-41,2-53,16s-16,35-35,36c-25,1.31-24-27-42-27-23,0-17,41-50,41-24,0-22-31-33-32s-23,18-48,18c-28,0-12-30-19-35-12-8.58-44,24-61,2s19.85-45.88,30-54S821,24.36,963,24.36Z" transform="translate(-24.61 -22.6)"/><ellipse class="cls-4" cx="944" cy="131.36" rx="33.95" ry="22.46" transform="translate(648.09 1022.43) rotate(-81.38)"/><path class="cls-3" d="M940,156.52c-19.15-4.17-13.56-54,8.12-50.3,19.29,3.27,11,54.48-8.12,50.3" transform="translate(-24.61 -22.6)"/><path class="cls-2" d="M874.11,199.1c25.88,2.5,8.93,22,7.53,46.94-1.19,21.06,5.51,50.77-12.77,49C851,293.32,846.24,196.41,874.11,199.1Z" transform="translate(-24.61 -22.6)"/><path class="cls-2" d="M931.67,43c-1.31-13.39,67.83-14.13,67.83-.13S933.85,65.12,931.67,43Z" transform="translate(-24.61 -22.6)"/><ellipse class="cls-2" cx="922.89" cy="94.01" rx="7.5" ry="4.25"/><path d="M949,182c1-11,16.13-.47,23,0s15.75-6.1,20-1c5,6-1,14.28-12.42,15S949,193.67,949,183" transform="translate(-24.61 -22.6)"/><ellipse class="cls-4" cx="1002" cy="131.09" rx="22.46" ry="33.95" transform="translate(-32.94 129) rotate(-8.62)"/><path class="cls-3" d="M1006,156.25c19.15-4.17,13.56-54-8.12-50.31-19.29,3.28-11,54.48,8.12,50.31" transform="translate(-24.61 -22.6)"/><ellipse class="cls-2" cx="973.89" cy="93.74" rx="7.5" ry="4.25"/></g><g id="HEIN"><path class="cls-12" d="M1366.09,23.1c162,0,147.5,277.5,160.5,299.5s33,26,28,42c-14,33-41,2-53,16s-16,35-35,36c-25,1.31-24-27-42-27-23,0-17,41-50,41-24,0-22-31-33-32s-23,18-48,18c-28,0-12-30-19-35-12-8.58-44,24-61,2s19.85-45.88,30-54S1224.09,23.1,1366.09,23.1Z" transform="translate(-24.61 -22.6)"/><ellipse class="cls-4" cx="1346.95" cy="135.53" rx="29.51" ry="22.46" transform="translate(1145.01 1455.01) rotate(-88.22)"/><path class="cls-3" d="M1346.14,156.56c-19.51-1.59-19.88-44.47,2.07-43.55,19.54.82,17.44,45.15-2.07,43.55" transform="translate(-24.61 -22.6)"/><path class="cls-2" d="M1277.2,198.84c25.88,2.5,8.93,22,7.52,46.94-1.18,21.06,5.52,50.77-12.76,49C1254,293.05,1249.32,196.15,1277.2,198.84Z" transform="translate(-24.61 -22.6)"/><path class="cls-2" d="M1334.76,42.73c-1.31-13.39,67.83-14.13,67.83-.13S1336.93,64.86,1334.76,42.73Z" transform="translate(-24.61 -22.6)"/><ellipse class="cls-2" cx="1321.86" cy="96.25" rx="7.5" ry="3.64"/><path d="M1351,200c0-3-.16-9.89,7-9,8,1,28,8,29,10,.89,1.79-11,4-22,3-11.36-1-14-4-14-4" transform="translate(-24.61 -22.6)"/><ellipse class="cls-4" cx="1404.65" cy="147.78" rx="14.09" ry="18.97" transform="translate(-27.88 12.83) rotate(-1.44)"/><path class="cls-3" d="M1404.47,162c12.28,0,14-27.91.26-28.47-12.28-.5-12.54,28.48-.26,28.47" transform="translate(-24.61 -22.6)"/><ellipse class="cls-2" cx="1405.04" cy="137.3" rx="4.72" ry="2.37" transform="translate(-27.62 12.84) rotate(-1.44)"/><path class="cls-4" d="M1322.47,105.33c-1.39,1.55.74,3.74,2.53,2.67,5-3,13-13,22-14,11.72-1.3,20.53,15.24,25,13,4-2-14-17.85-25-17C1338,90.7,1326.75,100.59,1322.47,105.33Z" transform="translate(-24.61 -22.6)"/></g><g id="Face_surpris"><path class="cls-13" d="M576.5,24.5C738.5,24.5,724,302,737,324s33,26,28,42c-14,33-41,2-53,16s-16,35-35,36c-25,1.31-24-27-42-27-23,0-17,41-50,41-24,0-22-31-33-32s-23,18-48,18c-28,0-12-30-19-35-12-8.58-44,24-61,2s19.85-45.88,30-54S434.5,24.5,576.5,24.5Z" transform="translate(-24.61 -22.6)"/><ellipse class="cls-4" cx="567.5" cy="129.5" rx="33.95" ry="22.46" transform="translate(329.84 648.6) rotate(-81.38)"/><ellipse class="cls-4" cx="604.5" cy="135.5" rx="15.72" ry="23.76" transform="translate(-36.59 173.96) rotate(-18.29)"/><path class="cls-3" d="M601.21,118.48C614.45,116,621.46,146,608.1,148S586.34,121.32,601.21,118.48Z" transform="translate(-24.61 -22.6)"/><path class="cls-3" d="M563.53,154.67c-19.15-4.17-13.56-54,8.12-50.31,19.29,3.27,11,54.48-8.12,50.31" transform="translate(-24.61 -22.6)"/><path class="cls-2" d="M487.61,199.24c25.88,2.5,8.93,22,7.53,46.94-1.19,21.07,5.51,50.77-12.77,49C464.45,293.46,459.74,196.56,487.61,199.24Z" transform="translate(-24.61 -22.6)"/><path class="cls-2" d="M545.17,43.13C543.86,29.74,613,29,613,43S547.35,65.26,545.17,43.13Z" transform="translate(-24.61 -22.6)"/><ellipse class="cls-2" cx="546.39" cy="92.15" rx="7.5" ry="4.25"/><ellipse class="cls-2" cx="579.64" cy="104.4" rx="5.75" ry="4"/><path class="cls-3" d="M579,176s7.54-5.47,14.54-2.47,5,6.78,0,11.89-13.36,10.92-17.67,0C573.5,179.5,579,176,579,176Z" transform="translate(-24.61 -22.6)"/></g><g id="Face_bouche-be"><path class="cls-14" d="M182,31.53c162,0,147.5,277.5,160.5,299.5s33,26,28,42c-14,33-41,2-53,16s-16,35-35,36c-25,1.32-24-27-42-27-23,0-17,41-50,41-24,0-22-31-33-32s-23,18-48,18c-28,0-12-30-19-35-12-8.58-44,24-61,2s19.85-45.88,30-54C69.52,330,40,31.53,182,31.53Z" transform="translate(-24.61 -22.6)"/><ellipse class="cls-4" cx="163.02" cy="138.53" rx="33.95" ry="22.46" transform="translate(-22.98 256.36) rotate(-81.38)"/><path class="cls-3" d="M159.05,163.7c-19.15-4.17-13.55-54,8.12-50.31,19.29,3.28,11,54.48-8.12,50.31" transform="translate(-24.61 -22.6)"/><path class="cls-2" d="M93.13,206.28c25.88,2.49,8.93,22,7.53,46.94-1.19,21.06,5.51,50.76-12.77,49C70,300.49,65.26,203.59,93.13,206.28Z" transform="translate(-24.61 -22.6)"/><path class="cls-2" d="M150.7,50.16C149.38,36.77,218.52,36,218.52,50S152.87,72.29,150.7,50.16Z" transform="translate(-24.61 -22.6)"/><ellipse class="cls-2" cx="141.92" cy="101.18" rx="7.5" ry="4.25"/><path d="M202,214c16.05-1.89,21.82-4.37,20-15-6-35-52-26-48,6C175.19,214.52,186,215.89,202,214Z" transform="translate(-24.61 -22.6)"/><ellipse class="cls-4" cx="222.17" cy="133.39" rx="22.46" ry="33.95" transform="translate(-42.08 12.19) rotate(-8.62)"/><path class="cls-3" d="M226.15,158.56c19.14-4.17,13.55-54-8.13-50.31-19.28,3.28-11,54.48,8.13,50.31" transform="translate(-24.61 -22.6)"/><ellipse class="cls-2" cx="194.07" cy="96.04" rx="7.5" ry="4.25"/></g></svg>