<svg xmlns="http://www.w3.org/2000/svg" viewBox="0 0 1701.62 471.41"><defs><style>.cls-1{fill:#f8a30b;}.cls-2{fill:#e57a30;}.cls-3{fill:#f8a20c;}.cls-4{fill:#ea7727;}.cls-5{fill:#9c6816;}.cls-6{fill:#e57b30;}.cls-7{fill:#9d6b17;}</style></defs><g id="Calque_1" data-name="Calque 1"><path class="cls-1" d="M219.88,636.06S208,658,160,650.59c-28.28-6.7-39.44-28.6-43.84-45.3A56.67,56.67,0,0,1,119.35,568c3.13-7.11,7.5-15.16,13.16-21.36,13-14.23,37.42-36,41.6-42.68,6.49-5.87,35.41-46.7,39.74-55.66,4.94,6,30.46,42.67,54.74,65.4s40.35,39.74,40.35,39.74S323.63,568,323.32,583s.93,26.6-19.32,48.09-41.44,20.26-41.44,20.26S234.1,652.76,219.88,636.06Z" transform="translate(-114.4 -314.53)"/></g><g id="Calque_4" data-name="Calque 4"><path class="cls-2" d="M1620.83,633.92s-40,15.57-59.67,31.15c-2-1.83,0-25.49,0-25.49s-44.5,17.8-45.11,20c0-4,1.21-17.39,1.21-17.39l-35.8,1.41,5.06-12.54s-27.31-14.36-46.73-19.42c4-3,81.32-34.38,81.32-34.38s-55.92-46.91-69.14-55a2.82,2.82,0,0,1-1-3.93c1.72-2.57,2.73-2.32,2.73-2.32s8.84-2.57,12.13-2.63c7.33,0,9.31.2,9.31.2l2.63.2-20.64-27.36a27.54,27.54,0,0,1-5.51-15.3l-.15-3.05,10.12,1.42L1443,431.84l-.41-11.32,10.72,1.41,37.22,23.87,2.43-15.17,51.58,44.9s7.08,6.68,16.38,5.87c3.66-.32,6.15-2.66,7.84-5.39a18.22,18.22,0,0,0,1.53-15.29c-2.5-7.53-8.36-17.72-18.67-29.89,7.89.41,14.16,1.42,14.16,1.42s-16.18-40.66-15.58-58.05c4.25,1.82,34.79,28.72,34.79,28.72l-1.41-53.6,11.93,6.27s4.45,1.82,6.88-.41,20.23-40.65,20.23-40.65l18,42.88,8.09-7.28s9.1,16,5.87,44.9c10.51-8.5,40.86-29.53,40.86-29.53s1.21-2.83,2.22,7.68.4,40.86-13.55,62.51l10.31-1-13.91,37.55a58.13,58.13,0,0,0-3.73,18.22c-.21,6,.65,12,4.9,11.79,8.5-.41,10.52-4.25,10.52-4.25l34-43.9,7.28,13.56s54.62-42.48,73-42.48c0,10.52-5,22.65-5,22.65L1785.07,479l17.2,2s-35,35.8-32.17,42.07,24.07,10.11,24.07,10.11l-.8,3.24s-56.84,19.62-58.46,42.48c1.41,7.28,5.46,10.51,5.46,10.51S1771.52,621,1816,627.85c-12.54,4.85-51.18,10.72-51.18,10.72s2.23,8.09,5.26,10.92c-9.71,0-33.37-7.08-33.37-7.08s-2.83,10.52,2.83,16c-7.28-.2-42.88-11.73-42.88-11.73s2,17.19,3.84,23.26C1688.79,669.92,1669,669.92,1620.83,633.92Z" transform="translate(-114.4 -314.53)"/><path class="cls-3" d="M1601.66,782.47l-.89,1.34a4.67,4.67,0,0,1-8.48-3.46l.06-.31c4.43-9.71,13.89-32.73,17.75-55.66,3-29.53,8.14-102.92,8.14-102.92s-19.62-16.79-41.46-16c-1.62,7.48-20.23,29.33-20.23,29.33s-6.27,2.83-5.26-4.65c4.65-4.86,19.42-23.32,20-24.71-3.64,0-21.23,0-21.23,0l-27.92,25.69s-6.07,1.82-5.05-4.25c4.45-3.44,24.88-20.43,24.88-20.43l-47.94,4.25s-5.26-2.08-1.42-5.29c7.28-2,39.24-6.85,48.14-5.43-7.48-5.26-18.41-14.16-18.41-14.16s.21-5.67,5.26-4.45c5.26,3.44,20.64,16.18,20.64,16.18h16.38s-.61-11.73-15.78-19.42c-1-7.89,10.32-1.62,10.32-1.62s10.72,3.85,13.75,21.24c21.44,1.22,39,5.46,46.53,13.55.81-11.12,1-37.15,1-37.15s-29.33-2.49-66.55-31.21c-3.24,4.45-26.09,13.14-44.3,2.83-.4-2.83,1.82-2.83,1.82-2.83s30.14,2.22,35.6-4.25c-10.11-7.69-13.55-11.94-13.55-11.94h-45.92s-3.84-3,0-6.27h38.84s-48.14-42.68-49.76-54c4-3.44,6.07-1.62,6.07-1.62l41.06,42.88s-2.83-18.41-6.67-25.28c3-3.44,6.87,1.41,6.87,1.41s8.5,17.6,9.51,33.58c8.7,6.27,25.89,20,25.89,20v-35l5.87-.4s3,21.24,1,39.24c10.92,5,21.44,17.39,54.21,23.26,2.22-28.72,2.42-78.28,2.42-78.28s-8.29,3.49-26.49-21.92S1580.62,436,1580.62,436a5.81,5.81,0,0,1,6.67,0c3.44,2.43,17.8,35.81,35.6,43.69V438.6s-22-22.45-22.45-36.81c6.47-2.63,6.88,0,6.88,0l15.57,24.47-1-55.22a3.38,3.38,0,0,1,4,2.23c1.21,3,1.82,56,1.82,56s13.15-15.78,18.2-27.11c4.45.61,4.25,3,4.25,3s-13.06,27.86-20.83,29.93c.2,7.89.2,32,.2,32s20.63-12.13,26.9-34.59c5.67-.8,6.27,1.22,6.27,1.22s0,24.07-31.35,42.68c-.2,15.37-1.21,101.14-1.21,101.14s29.73-4.25,43.89-16.39c0-16.38-1.21-45.31,2.83-45.71s5.26,1.82,5.26,1.82v38.63l19.82-16s5.46-44.09,12.34-45.91a3.22,3.22,0,0,1,2.63,3.84s-9.1,28.32-6.88,35.6c6.93-6.27,44.5-41.47,44.5-41.47s3.85-1.21,2.43,3.85-42.68,43.69-42.68,43.69l28.12-.61s.4,5.06-3,6.07-31.35.61-31.35.61l-17.8,14.76s10.72,5.87,31.76,3.44c1.82,2-2,6.68-2,6.68s-25.29,3-36.41-5.87c-13.35,9.51-37.22,21.24-53.4,21.24-.41,7.28-.81,26.7-.81,26.7s17.6-6.07,45.31-5.87c3.23-6.67,20.83-20.63,20.83-20.63h8.5s1.82,4.25-3.44,5.26-17.2,16.38-17.2,16.38l13.76.21s19.62-18.21,26.29-18.41-1,7.08-1,7.08-13.35,7.89-16.38,12.94c8.49.61,50.37,8.9,50.37,8.9v4.66l-50-8.09,17.6,10.92s.81,5.06-2.63,4.85-23.66-16.18-23.66-16.18l-23.27-.61,13.76,17s.61,5.25-3.64,4-19.22-22-19.22-22-34.38,3.64-35.6,8.7-11.47,108.69-11.47,108.69S1609.34,774.58,1601.66,782.47Z" transform="translate(-114.4 -314.53)"/></g><g id="Calque_2" data-name="Calque 2"><path class="cls-4" d="M647.25,666.56c-22.79-5.94-42.86-41.9-45-51.53-3.21-10.44-7.22-29.06-4.49-59.88s23.26-80.08,23.27-80.11h0s30.67-58.44,44.15-70.16c9.95,9,47.18,54.24,47.2,54.26h0s28.1,40.46,35,54.75l6.9,14.28h0s11.4,28.91,15.09,45.12c1.79,7.85,2.34,19.1,2.43,28.61.18,19.76-8.35,38.78-23.8,51.1-.77.61-1.57,1.23-2.39,1.84C722.71,672,670.05,672.5,647.25,666.56Z" transform="translate(-114.4 -314.53)"/><path class="cls-5" d="M667.8,670.57l2.89-40.93a5.5,5.5,0,0,0-1.38-4.08c-4.22-4.78-16.74-17.21-32.16-16.87a3,3,0,0,1-3.06-3v-.1a2.39,2.39,0,0,1,2.23-2.39c5-.33,17.69.3,31.76,12.5a1.67,1.67,0,0,0,2.77-1.26V579.07S655,559.23,636.78,560a2.58,2.58,0,0,1-2.69-2.61v-.17a2.46,2.46,0,0,1,1.92-2.4c4.15-.94,14.89-1.34,31.09,12.52a1.09,1.09,0,0,0,1.79-.84c-.25-14-.71-20.44-.94-22.91a3.51,3.51,0,0,0-1.07-2.2c-4.65-4.44-25.81-23.9-40.3-23.43a2.19,2.19,0,0,1-2.28-2.2v-.23a2.3,2.3,0,0,1,2.22-2.31c5.83-.2,22.2.88,37.35,17.13a1.27,1.27,0,0,0,2.21-.91c-.51-14.92-1.24-26.76-1.53-31.11a4.22,4.22,0,0,0-1.52-3c-4.25-3.53-17.21-13.65-25.38-12.71a1.6,1.6,0,0,1-1.84-1.53v-.25a2.33,2.33,0,0,1,2.35-2.42c4.16.09,13.09,1.48,22.82,10.52a1,1,0,0,0,1.66-.79c-1.34-17.78-3.82-42.83-3.82-42.83s3.21-2.73,5.62,1.28c1.05,4.58,4.66,39.29,6,51.93a2,2,0,0,0,3.39,1.14c3.87-4.07,11.23-10.3,20-10.21a2.26,2.26,0,0,1,2.27,2.25v.1a1.77,1.77,0,0,1-1.43,1.74c-4.15.8-16.22,3.87-21.86,13.53a3.44,3.44,0,0,0-.46,1.83c.13,5.7,1.11,26.31,1.54,35.34a1.5,1.5,0,0,0,2.69.83c5.66-7.48,20.09-24.44,34.22-23.37a2.53,2.53,0,0,1,2.31,2.47v.1a2.18,2.18,0,0,1-2,2.17c-5.1.52-19.39,4.18-35.13,27.88a5.72,5.72,0,0,0-.93,3.24c.12,6.29,1,25.82,1.38,35a1.63,1.63,0,0,0,2.93.91c4.76-6.32,15.37-18.08,28.25-17.94a2.28,2.28,0,0,1,2.29,2.46l0,.21a3.24,3.24,0,0,1-3,2.93c-5,.44-16.24,3.71-28.44,22.45a7.06,7.06,0,0,0-1.16,3.83c0,6.57-.09,22.75-.13,31.13a1.85,1.85,0,0,0,3.22,1.26c4.73-5.23,14.16-13.63,25.08-12.59a2.36,2.36,0,0,1,2.15,2.41v.17a1.86,1.86,0,0,1-1.9,1.78c-3.84,0-13.54,1.67-24.95,16.54a24.39,24.39,0,0,0-5,13.47c-.62,10.78-1.86,30.31-3.93,36.29-2.26,6.5-6.94,20-13.21,28.16a7.25,7.25,0,0,1-8.75,2.16l-.29-.13a3.06,3.06,0,0,1-.89-4.94A60.35,60.35,0,0,0,663,698.67C665.07,688.55,667.8,670.57,667.8,670.57Z" transform="translate(-114.4 -314.53)"/></g><g id="Calque_3" data-name="Calque 3"><path class="cls-4" d="M263.7,577.69" transform="translate(-114.4 -314.53)"/><path class="cls-6" d="M219.72,488.34c.1,8.36,0,40.81,0,52.8a2.27,2.27,0,0,0,3.68,1.81c5.88-4.65,17.21-15.32,22.28-31.65.66-1.24,2.36-.85,2.47,1.12-1.17,6.79-10.45,27.83-27,36.7a2.25,2.25,0,0,0-1.23,2c0,5.21.13,21.07.18,28.61a2.26,2.26,0,0,0,3.48,1.91c10.75-6.78,43-28.36,46.39-44.83a2.5,2.5,0,0,1,2.28-2h0a2.32,2.32,0,0,1,2.47,2.85c-1.25,5.11-6,16.21-23.57,30.72-17.89,14.73-25.86,18.68-28.86,19.74a2.27,2.27,0,0,0-1.51,2.18l.53,30.15a2.28,2.28,0,0,0,2.77,2.2c4.58-1,14.58-4.37,27.38-14.79,14.68-11.95,33.32-30.12,39.3-36a2.26,2.26,0,0,1,3.48.36l.21.31a2.27,2.27,0,0,1-.24,2.85c-5.3,5.51-25.75,26.62-33.26,32.08-8.15,5.91-28.35,18.68-38.05,21.37a2.23,2.23,0,0,0-1.65,2.28,112.45,112.45,0,0,0,1.43,11.72,1,1,0,0,1,0,.17c.31,1.15,3.53,13.34,4.46,15.74.76,2,4.58,12.5,6.26,17.16a2.27,2.27,0,0,1-1.46,2.94l-1.92.61a2.28,2.28,0,0,1-2.86-1.46c-1.62-4.93-5.56-16.94-6.61-20.43-1.34-4.44-4.12-12.65-4.38-13.83s-1-4.81-1.29-5.94-18.4-.1-33.09-4.28-48.56-22.81-58.92-34.4a13.8,13.8,0,0,1,1.36-1.5,2.25,2.25,0,0,1,2.89-.09c5.37,4.13,28.17,21.24,40.37,24.23a2.32,2.32,0,0,1,.67.28c1.74,1.15,11.25,7,27.47,8.85,9.75,1.13,14.49,1.29,16.79,1.19a2.26,2.26,0,0,0,2.18-2.24l.24-12.46a2.25,2.25,0,0,0-2.15-2.27c-4.41-.27-15.56-2.33-34.23-14.45a452.38,452.38,0,0,1-41.87-30.93,2.27,2.27,0,0,1,.19-3.62l.15-.1a2.25,2.25,0,0,1,2.62,0c5.95,4.33,30.69,22.27,36,25.19,5.86,3.19,16,13.36,37,17.25a2.29,2.29,0,0,0,2.68-2.28l-.19-28.49a2.26,2.26,0,0,0-2-2.24c-4.62-.58-17.11-3.54-33.57-18.49l-18.83-17.62a2.29,2.29,0,0,1-.12-3.22l1-1a2.29,2.29,0,0,1,3.19-.16l27.5,24.31a.31.31,0,0,1,.09.07c.71.56,11.78,9.18,19.6,9.65a2.24,2.24,0,0,0,2.33-2.27c0-9.8,0-28.85,0-34.53a2.24,2.24,0,0,0-1.51-2.14c-3.48-1.22-12.24-4.7-17.9-10.44-5.07-5.16-6.93-14.16-7.59-19a3,3,0,0,1,2.92-3.35h.67a2.36,2.36,0,0,1,2.35,1.9c.83,4.39,3.61,15.08,11.2,19.18l6.58,3.54a2.28,2.28,0,0,0,3.34-2l-.13-31.49a2.3,2.3,0,0,1,2.37-2.3l1.07.06A2.27,2.27,0,0,1,219.72,488.34Z" transform="translate(-114.4 -314.53)"/></g><g id="Calque_5" data-name="Calque 5"><path class="cls-3" d="M1132.68,728.37c-22.82-4.29-51.07-16.65-64.58-50.35a5.93,5.93,0,0,1-.46-2.63c.69-10,9-11.63,11.65-11.89a6.05,6.05,0,0,1,1.41,0h0a6.34,6.34,0,0,0,5.37-10.72c-16.57-17.05-41.81-47.7-40.61-75.14a6.27,6.27,0,0,1,.52-2.26c5.32-12.41,13.11-11.4,13.11-11.4s1.47-3.92,32.62,7.52A11.67,11.67,0,0,0,1103,570c3.93-3.19,5.63-9-2.65-18.79a6.63,6.63,0,0,0-1.41-1.23c-19.5-12.78-32.44-22.74-32.18-32.19.23-8.49,17.41-14.05,21.29-15.2a6.11,6.11,0,0,1,1.47-.25c3-.14,14.64-.81,16.53-2.89,2.19-2.4-13-17-28.92-29.78-14.11-11.29,6.29-18,11.2-19.4A6.32,6.32,0,0,1,1090,450c2.79,0,13.59-1.32,11.5-20.66a6.61,6.61,0,0,0-.92-2.65c-9.2-15.24-11.11-20-6.7-27,2.93-4.65,15.8-1.6,24.5,1.13a6.3,6.3,0,0,0,8.18-5.77c.56-14.26,4.37-41.86,25-49.07,14.1-4.92,24.07,1.46,30.51,9.08a40.91,40.91,0,0,1,9.38,26.54V393a6.31,6.31,0,0,0,8.57,5.92c6.17-2.4,14.81-4.45,22.87-1.82a6.15,6.15,0,0,1,4.13,4.94c1.78,12.21-8.19,31.7-8.19,31.7s-6.91,13.3,2.93,14.63,23.66,1.06,23.66,10.9c0,9.43-18.34,24.49-19.84,25.71-.08.07-.14.11-.22.19-1.22,1.12-11.39,10.71-4.13,13.71,7.71,3.19,27.12-1.33,34,9.31,6.39,9.84-11.33,26.46-14,28.89a5.38,5.38,0,0,1-.66.52c-3.45,2.31-32.84,22.45-23.47,30.56a6.46,6.46,0,0,0,6.59.86c18.27-7.22,39.13-10.64,47-6.59,8.24,4.25,9,23.13-1.33,41s-51.85,61.15-51.85,61.15-5,2.66,10.9.8,19.68-2.4,22.87,2.39,1.86,27.38-15.69,38c-16.09,9.75-20.33,14.81-57.81,22.14A120,120,0,0,1,1132.68,728.37Z" transform="translate(-114.4 -314.53)"/><path class="cls-7" d="M1184.29,785.7l-.75.13a7.32,7.32,0,0,1-6.07-1.72c-5.41-4.8-17.28-18.61-21.87-50.16-6-41.48-6.2-39.53-6.2-39.53s-15-25.42-34.77-28a3.58,3.58,0,0,1-3.16-3.54h0a2.64,2.64,0,0,1,2.3-2.64c3.92-.52,12.39-.37,21.8,7.75,6.76,5.83,10.13,9.49,11.81,11.65a.88.88,0,0,0,1.58-.58l-1-40.18a15.72,15.72,0,0,0-3.61-9.66c-6.74-8.13-22.2-24.9-36.42-26.82a2.29,2.29,0,0,1-1.94-2.3h0a3.19,3.19,0,0,1,3.19-3.19h1a34.83,34.83,0,0,1,21,6.94A58.38,58.38,0,0,1,1146.6,621a.7.7,0,0,0,1.29-.36V577a15.83,15.83,0,0,0-3.7-10.17c-7.19-8.58-23.66-26.5-39-30.62a5.29,5.29,0,0,1-4-5.06h0a2.8,2.8,0,0,1,3.49-2.73c7.8,2,27.1,9.06,42.19,30.8a1.14,1.14,0,0,0,2.08-.63c.3-12.21.81-31.21,1-39.7a10.79,10.79,0,0,0-3-7.78c-5-5.2-15.19-14.7-24.74-16.74a3.83,3.83,0,0,1-3.11-3.61v-.23a2.7,2.7,0,0,1,2.85-2.77c5.21.32,16.59,2.73,26.82,16.52a1.16,1.16,0,0,0,2.1-.59c2-25.39,5-61.94,5.87-72.83a2.74,2.74,0,0,1,3.36-2.44l.48.11a4.9,4.9,0,0,1,3.78,5.08l-3.23,50.93a1.16,1.16,0,0,0,2,.87c3.84-4.15,12.57-11.54,25.72-11.1a2.6,2.6,0,0,1,2.53,2.58h0a2.62,2.62,0,0,1-2.39,2.62c-4.68.41-15.56,2.79-26.53,15.3a14.15,14.15,0,0,0-3.54,8.64c-.5,10.23-1.62,29-2.08,36.74a1.12,1.12,0,0,0,2,.8c6.47-7.51,26.37-28.38,45.53-25.61a3.29,3.29,0,0,1,2.81,3.25h0a3.43,3.43,0,0,1-3,3.41c-7,.93-25.27,5.61-44.9,29.16a14.1,14.1,0,0,0-3.25,8.65c-.23,8.89-.72,19.37-1,24.59a1.24,1.24,0,0,0,2.11,1c5.77-5.65,21.53-19.34,36.51-16.44a3.46,3.46,0,0,1,2.77,3.36v.08a2.75,2.75,0,0,1-2.62,2.77c-6,.3-21.8,2.91-36.55,20.8a13.88,13.88,0,0,0-3.1,8.81V647a1.42,1.42,0,0,0,2.52.9c5.81-7,21-22.58,38.5-18.06a3.56,3.56,0,0,1,2.66,3v.09a2.59,2.59,0,0,1-2.74,2.9c-6.81-.46-23.35,1-38.64,22.6-.18,23.57,1.24,50.16,6.56,71.61,4.82,19.45,12.12,37.45,23.22,49.62A3.62,3.62,0,0,1,1184.29,785.7Z" transform="translate(-114.4 -314.53)"/></g></svg>