<svg xmlns="http://www.w3.org/2000/svg" viewBox="0 0 1819.78 842.05"><defs><style>.cls-1,.cls-2,.cls-3,.cls-4,.cls-5,.cls-6{fill:none;stroke-miterlimit:10;}.cls-1{stroke:#ef933f;}.cls-2{stroke:#916867;}.cls-3{stroke:#e45836;}.cls-4{stroke:#982f26;}.cls-5{stroke:#6e3930;}.cls-6{stroke:#72211e;}</style></defs><g id="Calque_8" data-name="Calque 8"><path class="cls-1" d="M1838.06,941.11S1786,960.27,1753,937.66c3.28-23.32,2.06-57.06-4.63-79.73a70.64,70.64,0,0,0-6.68-15.19c-8.19-14.24-12.47-23.7-44.19-46.65a197.61,197.61,0,0,0-29.69-16.37c-22.13-9.89-42.76-20.07-54.29-34.8,0,8.22-6.57,85.75-2.62,108,.21,1.17.37,2.31.5,3.48C1614.2,880,1640,950,1708.55,953c-16.86-18.78-41-36.4-46.75-95.42,7.66,16.86,19.93,64,74,93.12C1790.55,976.36,1838.06,941.11,1838.06,941.11Z" transform="translate(-49.78 -118.5)"/></g><g id="Calque_9" data-name="Calque 9"><path class="cls-2" d="M1206.2,951.84s6.51-62.84,38.7-74c16.85,9.86,37.13,27.11,78.37,28.09a114.19,114.19,0,0,0,50.79-10.85c44.28-20.57,67.41-47.12,67.41-47.12s15.71-16.48,34.87-17.63c-8.62-5.23-57-30.24-75.76-39.88a90.41,90.41,0,0,0-20.83-7.71c-17.6-4.15-50.08-8.54-82.74,3.91-26.82,8-49.43,45.59-49.43,45.59s49.81-26.82,107.67-5c-62.46.39-88.13,10.73-88.13,10.73S1197,861.24,1206.2,951.84Z" transform="translate(-49.78 -118.5)"/></g><g id="Calque_10" data-name="Calque 10"><path class="cls-3" d="M664.37,882.86s1.4-39.69-39.5-61.3a91.1,91.1,0,0,0-37-10.07c-25.71-1.59-52.49-1.82-64.2-1.83a85.07,85.07,0,0,1-19.22-2.12,116.18,116.18,0,0,1-41.67-18.94c5.75,15.33,14.18,51,44.45,85.83s59,41.77,59,41.77,42.15,12.26,85.83-6.9c6.13,1.92,24.53,22.23,32.57,44.07-2.3-25.67-28.35-61.69-28.35-61.69a151.48,151.48,0,0,0-21.17-20.5,82.46,82.46,0,0,0-46.52-17.5c-26.83-1.53-56.56-6.73-59.15-10.28,8.49.27,44.34.94,64.14,1.29a87,87,0,0,1,39.83,10.16C644.18,860.65,656,869.53,664.37,882.86Z" transform="translate(-49.78 -118.5)"/></g><g id="Calque_11" data-name="Calque 11"><path class="cls-4" d="M280.42,835s-29.12-49.05-91.58-48.28c-48.46,3.39-74,20.46-82.16,27-3.54,2.84-7.23,5.45-11,7.94-12.54,8.21-36,23-44,24.1,13.8,5.74,40.62,20.3,59,35.63s50.2,33.34,91.58,33,82.39-32.57,82.39-32.57,34.1,10.72,43.68,71.65c2.3-27.21-8-55.56-8-55.56s-19.93-72.42-144.85-60.93C195.36,826.15,237.12,820,280.42,835Z" transform="translate(-49.78 -118.5)"/></g><g id="Calque_7" data-name="Calque 7"><path class="cls-4" d="M1582.86,564.82l16.86,10.35s15.16-25.48,38.67-22.59a21.09,21.09,0,0,1,10.18,4.39c20.18,15.49,55.76,35.83,55.76,35.83s27.59,17.62,75.49,8,88.52-48.49,88.52-48.49-29.89-.56-75.11-37-67.63-34.1-67.63-34.1-61.88-8.28-92.92,41.38c18-5,46.36-18,80.85-13s58.24,32.59,58.24,32.59-28.73-23.39-66.67-21.86S1616.58,530.72,1582.86,564.82Z" transform="translate(-49.78 -118.5)"/></g><g id="Calque_5" data-name="Calque 5"><path class="cls-3" d="M1771.77,304.9s20.13-21.31,16.56-61.82a57.56,57.56,0,0,0-8.91-25.88A238.61,238.61,0,0,0,1753.83,184a140.25,140.25,0,0,0-21-18.43c-14.07-10.17-42.84-32.22-47.44-45.64-6.64,16.86-21,52.62-23.5,89.41s6.64,60.28,6.64,60.28,15.84,45,81.23,47.52c8.69,6.64,19.93,15.33,34.24,19.92,4.71-7.66,4.71-10.21,4.71-10.21s-95.15-31.68-94.12-122.11C1702.8,214,1720.17,282.93,1771.77,304.9Z" transform="translate(-49.78 -118.5)"/></g><g id="Calque_6" data-name="Calque 6"><path class="cls-5" d="M905.4,621.53s65.52,3.07,87.75-37.55a229.94,229.94,0,0,0,22.07-57.45A266.79,266.79,0,0,1,1030.4,481l7.19-16.54s-30.27-3.83-61.3,4.21-54,17.63-74.34,37.56-23,49-23,49-5.75,42.15,10.73,60.55c5.36-22.23,13.14-89,76.25-110.36C951.76,518.84,903.86,553.33,905.4,621.53Z" transform="translate(-49.78 -118.5)"/></g><g id="Calque_4" data-name="Calque 4"><path class="cls-2" d="M1259.33,247.16s37.3,47.52,79.19,40.37,103.21-41.9,125.17-40.37c-5.7-8.87-24.37-27-37.73-39.45a154.86,154.86,0,0,0-41.65-28.05c-15.64-7.09-35.31-13.48-51.41-10.67-32.19,5.62-52.62,21.46-52.62,21.46s-21,17.37-28.61,31.68c-11.24,6.07-33.72,23-33.72,23l8.68,8.17s50.07-40.87,86.35-42.91,39.85-2.56,72.55,6.64C1371.73,216.51,1301.74,204.25,1259.33,247.16Z" transform="translate(-49.78 -118.5)"/></g><g id="Calque_2" data-name="Calque 2"><path class="cls-6" d="M676.64,254.44S669,202,623.37,177.81c-26.44-13.8-67.82-13-67.82-13l-50.2-1.92s-24.9-2.68-29.89-6.89c1.2,4.79,6.61,24,13.67,43.52a213,213,0,0,0,28.12,53.38c13.89,19,34.6,40.39,69.34,47.17,49,9.58,83.53-18,83.53-18L715,277.44l-3.83-15.72s-19.16,10.73-87,5.37-86.6-49.81-85.07-49.43,29.12,39.08,92,41C662.46,257.51,676.64,254.44,676.64,254.44Z" transform="translate(-49.78 -118.5)"/></g><g id="Calque_3" data-name="Calque 3"><path class="cls-1" d="M905.4,292.76s61.69,4.22,87-40.61c15.47-27.43,21.19-47.4,23.3-58.78a188.83,188.83,0,0,1,13.22-43.48c2.81-6.22,5.82-11.78,8.69-15-9.57,0-57.77,0-83.1,10.73-19.9,8.43-28.38,13.17-36,17.89a119.69,119.69,0,0,0-13.59,9.75c-9.72,8.17-18.92,19.26-26,47.46-3.45,20.31-1.54,44.45,3.45,61.7-.39,10.45-3.07,39.08-3.07,39.08h13.41s-2.68-52.11,11.11-79.7c11.5-23,27.21-49.81,60.93-64C955.5,187,908.46,223.79,905.4,292.76Z" transform="translate(-49.78 -118.5)"/></g></svg>