<svg id="Calque_1" data-name="Calque 1" xmlns="http://www.w3.org/2000/svg" viewBox="0 0 3541.11 1799.05"><defs><style>.cls-1{fill:#f09448;stroke:#000;stroke-miterlimit:10;}</style></defs><g id="Leaf-111"><path class="cls-1" d="M3609.78,2824.65c656,379.72,1576.39,16.84,1923.82-11,305.94-24.75,474.54,83.74,474.54,83.74-316.36-254.2-418.71-470.53-558.74-642-119.84-146.82-346.23-731.44-986.76-947.21C3515.8,989.31,2851.82,1618.4,2488,2088.19l18.14,32.1C2927.47,2000.91,2830.89,2373.66,3609.78,2824.65Z" transform="translate(-2479.17 -1209.33)"/><path class="cls-1" d="M3609.78,2824.65c656,379.72,1576.39,16.84,1923.82-11,305.94-24.75,474.54,83.74,474.54,83.74-316.36-254.2-418.71-470.53-558.74-642-119.84-146.82-346.23-731.44-986.76-947.21C3515.8,989.31,2851.82,1618.4,2488,2088.19c987.22-711.34,2293.41,125.89,2369.89,183.86-77.88-53.87-1384.62-871.47-2351.75-151.76C2927.47,2000.91,2830.89,2373.66,3609.78,2824.65Z" transform="translate(-2479.17 -1209.33)"/><path class="cls-1" d="M2509.5,2131.18c223.78-63.56,297.1,16.09,443.28,174.92,125.42,136.32,297.28,323.06,651.32,528.14,506.36,293.19,1167.46,147.38,1604.87,50.89,131.47-28.94,244.89-54,325.66-60.39,297.75-24.1,466.35,81.23,467.93,82.26a11.08,11.08,0,0,0,12.94-18c-229.92-184.7-345.11-347.71-446.63-491.56-37.22-52.57-72.29-102.35-110.16-148.88-23.35-28.56-50.71-74-85.42-131.56-136-225.36-389.12-644.91-906.46-818.81C3740.61,1053.61,3072.07,1317.3,2479.92,2082,2476.75,2085.12,2504.48,2132.66,2509.5,2131.18ZM5935.1,2851c-78.81-29.58-214.75-63.55-402.42-48.38-82,6.61-196.15,31.73-328.36,60.85-434.07,95.75-1090.14,240.44-1589-48.38-351.16-203.4-521.62-388.66-646.21-524-135.19-146.92-214.66-233.36-409.4-194.84-68.77,17.68-53.6-20.37-17.31-58.15,574.56-712.37,1218.91-954.29,1917.22-719.16,509.62,171.67,750.52,571,894.46,809.51,35.17,58.24,63,104.3,87.27,134.08,37.22,45.87,72.3,95.28,109.33,147.66,92,130.73,195.31,276.91,384.47,440.85Z" transform="translate(-2479.17 -1209.33)"/></g></svg>