<svg xmlns="http://www.w3.org/2000/svg" xmlns:xlink="http://www.w3.org/1999/xlink" viewBox="0 0 1532.49 1674.68"><defs><style>.cls-1{fill:#b78377;}.cls-2{fill:#573961;}.cls-3{fill:#ffcd50;}.cls-4{fill:#f4ae11;}.cls-5{fill:#ffc4ad;}.cls-6{fill:#feefec;}.cls-7{fill:#b96b69;}.cls-8{fill:#efa087;}.cls-9{fill:#cda295;}.cls-10{stroke:#999;stroke-miterlimit:10;fill:url(#Dégradé_sans_nom_32);}.cls-11{fill:#cac9d9;}</style><linearGradient id="Dégradé_sans_nom_32" x1="826.16" y1="-342.54" x2="826.16" y2="224.64" gradientTransform="matrix(-0.97, -0.26, -0.26, 0.97, 1768.61, 736.74)" gradientUnits="userSpaceOnUse"><stop offset="0.69" stop-color="#f7f5ff"/><stop offset="0.74" stop-color="#f3f1fb"/><stop offset="0.78" stop-color="#e7e5ee"/><stop offset="0.83" stop-color="#d2d1d9"/><stop offset="0.88" stop-color="#b6b5bb"/><stop offset="0.93" stop-color="#919094"/><stop offset="0.98" stop-color="#656466"/><stop offset="1" stop-color="#4c4c4c"/></linearGradient></defs><g id="Calque_3" data-name="Calque 3"><path class="cls-1" d="M1318.92,1056.39s48,14.72,80.13,60,41.2,130.28,69.39,165.71,204.79-72.75,204.79-72.75l140.09-105.08L1761,1067s-43.18,20.45-137.15-6.26S1422,1014.42,1318.92,1056.39Z" transform="translate(-700.8 -187.83)"/><path class="cls-2" d="M757.82,1448.44c25.44,3.6,45.18,14.43,67.7,8.2,7.13-8.73,23.56-11.14,35.24-.82s11.72,25.08,4.1,33.07a42.9,42.9,0,0,1-3.45,3.43h0s-23.17,40.83-32.68,32.42l-69.25-61.21S740.79,1446,757.82,1448.44Z" transform="translate(-700.8 -187.83)"/><path class="cls-2" d="M1195,1208.13a52.44,52.44,0,0,1-8.3,71.23c-.08.25-.16.5-.25.75-21.51,16.66-29.6,41.17-106.2,97.23s-218,113.75-218,113.75c-12.53,9.26-27.22,8.7-36.49-3.82s-7.8-26.66,4.73-35.93l286.13-249.94a52.37,52.37,0,0,1,78.39,6.73Z" transform="translate(-700.8 -187.83)"/><path class="cls-3" d="M1533.68,1243.6A75.77,75.77,0,0,1,1499,1391.07h0c-169-31.76-353.31-104.69-353.31-104.69a52.44,52.44,0,0,1,23-102.28h0L1525,1241.86h0A76.9,76.9,0,0,1,1533.68,1243.6Z" transform="translate(-700.8 -187.83)"/><path class="cls-3" d="M1583.78,1371.15a75.76,75.76,0,0,1,31,148.27h0c-166.53,42.73-364.42,54.68-364.42,54.68a52.44,52.44,0,0,1-22.47-102.39v0l347.25-98.43h0A75.68,75.68,0,0,1,1583.78,1371.15Z" transform="translate(-700.8 -187.83)"/><path class="cls-2" d="M1549.38,1856.17c-3.42-25.46,1.66-47.4-10.43-67.39-10.33-4.5-17.1-19.67-10.32-33.71s21-18.07,30.73-12.89a39.55,39.55,0,0,1,4.23,2.4h0s45.58,11.25,40.05,22.69l-40.19,83.22S1551.67,1873.22,1549.38,1856.17Z" transform="translate(-700.8 -187.83)"/><path class="cls-2" d="M1201.85,1498.81a52.44,52.44,0,0,1,70.86-11l.79,0c21.8,16.29,47.58,17.56,122,76.43s167.75,179.8,167.75,179.8c12.27,9.61,15.65,23.91,6,36.19s-23.61,14.62-35.88,5l-317.18-209.14a53.75,53.75,0,0,1-5.43-3.71A52.46,52.46,0,0,1,1201.85,1498.81Z" transform="translate(-700.8 -187.83)"/><path class="cls-3" d="M1390,1554.42s119.19,106.48,171.52,177.34c-26.17,36.52-41.43,52.87-41.43,52.87s-286.72-185.87-321.06-216.4-4.74-76.29,6.23-84.14,51.55-21.35,107.15-5.4S1390,1554.42,1390,1554.42Z" transform="translate(-700.8 -187.83)"/><path class="cls-3" d="M832.88,1437.05s260.1-224.76,286.54-242.21,58.24-9.3,58.24-9.3V1291.6s-28.62,44.79-115.11,108S879.76,1493,879.76,1493Z" transform="translate(-700.8 -187.83)"/><path class="cls-4" d="M873.22,1472.45a1.21,1.21,0,0,1-1-.57,1.19,1.19,0,0,1,.4-1.65c1.4-.85,140.51-85.65,197.22-129,16-12.21,29.3-24.89,41.08-36.08,31.26-29.69,53.84-51.15,94.7-37.83,16.55,5.4,39.94,13.73,67,23.38,64.54,23,152.94,54.49,232.13,76a1.2,1.2,0,0,1,.84,1.47,1.19,1.19,0,0,1-1.47.84c-79.28-21.58-167.73-53.09-232.31-76.1-27.06-9.64-50.43-18-67-23.35-39.52-12.89-61.66,8.16-92.31,37.29-11.82,11.23-25.22,24-41.28,36.24-56.81,43.46-196,128.32-197.43,129.17A1.17,1.17,0,0,1,873.22,1472.45Z" transform="translate(-700.8 -187.83)"/><path class="cls-4" d="M1534.56,1748a1.18,1.18,0,0,1-.87-.38c-104.8-112.11-196.45-162.52-240.5-186.75-20.47-11.26-29.81-16.4-29.42-21,.23-2.74.76-9.15,145.35-27.22,71-8.88,142.81-16.25,143.53-16.33a1.2,1.2,0,1,1,.24,2.38c-.71.07-71.45,7.34-141.91,16.13-128,16-143.94,23-144.84,25.29-.25,3,11.69,9.61,28.2,18.69,44.16,24.29,136,74.82,241.09,187.21a1.2,1.2,0,0,1-.87,2Z" transform="translate(-700.8 -187.83)"/><path class="cls-4" d="M1392.15,1560.34a1.11,1.11,0,0,1-.44-.08c-33.59-13.22-71.21-15.52-71.58-15.55a1.19,1.19,0,1,1,.13-2.38c.38,0,38.38,2.34,72.33,15.7a1.2,1.2,0,0,1,.67,1.55A1.18,1.18,0,0,1,1392.15,1560.34Z" transform="translate(-700.8 -187.83)"/><path class="cls-3" d="M1564.42,1228.37l-49.65,22.15c-37.76,16.86-56.15,57.93-41.06,91.75l62.63,140.34c15.13,33.9,58.15,47.62,96,30.59l49.58-22.32c37.61-16.94,55.85-57.9,40.8-91.63l-62.55-140.17C1645,1225.26,1602.19,1211.51,1564.42,1228.37Z" transform="translate(-700.8 -187.83)"/><path class="cls-5" d="M2058.34,946.37s-49.41,39.76-93,14.18-24-74,9.08-111.84,68.38-66.8,103-51.47,56.86,52.74,35.7,90.69S2058.34,946.37,2058.34,946.37Z" transform="translate(-700.8 -187.83)"/><path class="cls-6" d="M1822.14,967.25c28-6.46,65.77-2.23,96.29.38,19.09,1.64,38.87,5,56.74,16.12h0c16.86,10.46,31,15.1,45,34.79,28.88,40.71,72.23,76,57.43,139.14-21.62,92.16-141.27,184.61-223.67,229.76-50.14,29.68-105.32,58.41-150.22,94.33-34.51-19.74-80.58-87.84-100.65-117.08s-69-93.52-68.51-129.61c29.78-21.28,94.25-50.29,117.56-63.19,20.17-11.15,4.08-2.57,4.08-2.57,18-8.84,42-33.6,50-42.82C1738.54,1089.27,1778.13,977.4,1822.14,967.25Z" transform="translate(-700.8 -187.83)"/><path class="cls-5" d="M1471.89,661.1s40,76,135.16,161.4h0a44.6,44.6,0,0,1-55.62,69.74,45.29,45.29,0,0,1-5.45-5.16h0S1470.14,808.58,1423.4,676a25.44,25.44,0,1,1,48.49-14.93Z" transform="translate(-700.8 -187.83)"/><path class="cls-5" d="M1459.77,616.26c9.58,18.25,11.07,41.56,11.07,41.56s3.51,18.35-14.78,27.53-33.32-11.06-33.32-11.06-46.94-77.46-45.65-80.45,5.31.22,5.31.22-7.07-12.23-4.76-15.13,7.68-.46,7.68-.46-3.85-7.1-1.4-9.25,10.33,5.39,10.33,5.39-3.58-6.51-.15-10.35,34.56,30.48,39.84,37.62c1.57,2.13,4.32,6.72,7.4,12.1h0c8.62,3.64-5.86-23.67-2.51-26.48S1450.19,598,1459.77,616.26Z" transform="translate(-700.8 -187.83)"/><path class="cls-5" d="M2024.25,1587s61.75-59.68,117.09-175h0a44.6,44.6,0,1,1,79.1,40.53h0s-54.13,94.79-168.28,176.79a25.44,25.44,0,1,1-27.92-42.37Z" transform="translate(-700.8 -187.83)"/><path class="cls-5" d="M1984.6,1611.23c14.84-14.31,36.79-22.26,36.79-22.26s16.63-8.51,30.57,6.48-1.28,35.08-1.28,35.08-61.21,66.76-64.44,66.36-1.29-5.16-1.29-5.16-9.75,10.21-13.19,8.8-2.59-7.24-2.59-7.24-5.73,5.68-8.48,3.93,2.28-11.42,2.28-11.42-5.25,5.26-9.9,3,19.59-41.71,25-48.78c1.6-2.11,5.24-6,9.54-10.49h0c1.09-9.3-21.08,12.24-24.72,9.82S1969.77,1625.54,1984.6,1611.23Z" transform="translate(-700.8 -187.83)"/><path class="cls-5" d="M1867.87,966.15a56.6,56.6,0,0,1-40.42,100.63h0s-66.6-3.14-160.91-71S1546,887.09,1546,887.09h0a44.6,44.6,0,0,1,61.07-64.59,45.65,45.65,0,0,1,4,3.66h0s28,27,98.42,70.75,135.58,58.28,135.58,58.28h0A56.51,56.51,0,0,1,1867.87,966.15Z" transform="translate(-700.8 -187.83)"/><path class="cls-6" d="M1876.83,1045.71a56.56,56.56,0,0,1-49.38,21.07h0s-46.15-2.18-116-42.08l50.47-99.55c47.31,22,83.2,30,83.2,30h0a56.63,56.63,0,0,1,31.73,90.52Z" transform="translate(-700.8 -187.83)"/><path class="cls-5" d="M2010.66,1172.36a56.6,56.6,0,0,1,91.31-58.5h0s52.42,41.19,89.83,151.22S2227,1423.53,2227,1423.53h0a44.6,44.6,0,0,1-87.21,17.17,43.81,43.81,0,0,1-1.17-5.33h0s-7.12-38.24-39.1-114.73-76.61-126.14-76.61-126.14h0A56.34,56.34,0,0,1,2010.66,1172.36Z" transform="translate(-700.8 -187.83)"/><path class="cls-6" d="M2049.52,1102.37a56.58,56.58,0,0,1,52.45,11.49h0s36.32,28.55,70.07,101.58l-98.86,51.8c-25.76-45.38-50.34-72.74-50.34-72.74h0a56.64,56.64,0,0,1,26.68-92.13Z" transform="translate(-700.8 -187.83)"/><path class="cls-5" d="M2028.89,901.72a35,35,0,0,1,19.29,45.53l-29.29,72.37-.1,0A35,35,0,0,1,1955,991l28.32-70A35,35,0,0,1,2028.89,901.72Z" transform="translate(-700.8 -187.83)"/><path class="cls-7" d="M2039.33,969.11s-8.92-32.09,0-55.53,11.65-24.53,32.37-40.34,23.43-54.44,0-60.47S2035.37,798,2035.37,798s-32.22,14.78-55.51,44.63c-17.73-39.16,1.34-61.51,28.6-66.42s12-45.78,50.7-59.41,58.48,21.26,58.68,36,30.71,22.9,40.52,52.33,5.46,54-10.35,68.14-22.35,37.61-36.52,56.69S2070.75,971.78,2039.33,969.11Z" transform="translate(-700.8 -187.83)"/><path class="cls-8" d="M1967,961.47s31.13,16,70.64,0c1,4.65,1.7,7.64,1.7,7.64s-33.43,32.56-80.66,12.91Z" transform="translate(-700.8 -187.83)"/><path class="cls-9" d="M2030.81,1032.67s-90.64,59.34-199,181.74c-88.06,99.53-290.17,91.35-401,127.74,47.79,137.78,84.71,216.67,159.46,232.82,187.58-44.35,467.06-294.55,539.9-430.28C2087,1074.38,2030.81,1032.67,2030.81,1032.67Z" transform="translate(-700.8 -187.83)"/><path class="cls-9" d="M2070.06,1128.34l31.78-24.11s46.27,55.18,70.2,93.88,64.82,198.42,61,246.39-139.54,167.34-139.54,167.34l-57.24-54s80.91-125.72,88.31-136.81-51.78-133.55-81.76-182.06S2070.06,1128.34,2070.06,1128.34Z" transform="translate(-700.8 -187.83)"/><path class="cls-9" d="M1933.12,969.33S1862.74,996.08,1769,1078c-62.41,54.53-114.81-5.28-210.86-24.91s-165.24-20.88-255.19,25.64c-1.28-21.08,0-27.62,0-27.62s75-40.7,165.5-32,206.06,46.52,251.13,41.43S1845.1,955.19,1845.1,955.19,1898.12,956.58,1933.12,969.33Z" transform="translate(-700.8 -187.83)"/><path class="cls-9" d="M1424.09,713.7l69.81-33.42S1558.45,770,1634,833.45s177.65,109.73,246.88,124.6c-38.66,40-130.78,98.34-130.78,98.34s-91.57-40.61-179.88-131.23S1424.09,713.7,1424.09,713.7Z" transform="translate(-700.8 -187.83)"/><polygon class="cls-1" points="1335.47 1370.04 1318.93 1394.75 1360.72 1441.27 1392.7 1424.01 1335.47 1370.04"/><polygon class="cls-1" points="714.79 492.44 774.57 469.73 793.1 492.44 723.29 525.87 714.79 492.44"/><path class="cls-1" d="M1838.66,1206.79s53.52-73.91,98.22-109.52,87.77-91.88,96-112.29c15.89,22.64,20.62,46.88,3.9,71.41S1890.16,1169.85,1838.66,1206.79Z" transform="translate(-700.8 -187.83)"/><path class="cls-1" d="M1757.49,1086.86s76.76-55.43,113.61-80.62,65.64-32.67,89.78-29.69l6.11-15.08s-48.74-16.23-90.07,7.66S1802.69,1040.12,1757.49,1086.86Z" transform="translate(-700.8 -187.83)"/><path class="cls-1" d="M2049.1,1250.71a1.19,1.19,0,0,1-1.08-.67l-24.28-50.13a1.2,1.2,0,0,1,2.15-1.05l24.28,50.14a1.19,1.19,0,0,1-.55,1.59A1.23,1.23,0,0,1,2049.1,1250.71Z" transform="translate(-700.8 -187.83)"/><path class="cls-1" d="M1744.28,1051.56a1.18,1.18,0,0,1-.94-1.91c1.47-1.84,57.94-45.73,69.25-54.51a1.19,1.19,0,1,1,1.46,1.89c-26.8,20.82-67.26,52.42-68.86,54.14A1.24,1.24,0,0,1,1744.28,1051.56Z" transform="translate(-700.8 -187.83)"/><path class="cls-1" d="M1626.9,1560.34a1.21,1.21,0,0,1-.38-.06c-.62-.21-62.47-21.79-101.64-87.23-39.06-65.24-54.53-135.71-54.68-136.41a1.2,1.2,0,0,1,2.34-.51c.15.7,15.55,70.8,54.39,135.69,38.7,64.65,99.74,86,100.35,86.19a1.2,1.2,0,0,1,.75,1.52A1.19,1.19,0,0,1,1626.9,1560.34Z" transform="translate(-700.8 -187.83)"/><path class="cls-1" d="M1339.09,1062a1.19,1.19,0,0,1-1.11-.76c-5.85-14.89-2.18-23.09-2-23.43a1.2,1.2,0,1,1,2.17,1c0,.1-3.35,7.73,2.08,21.54a1.2,1.2,0,0,1-.68,1.55A1.12,1.12,0,0,1,1339.09,1062Z" transform="translate(-700.8 -187.83)"/></g><g id="Calque_2" data-name="Calque 2"><path class="cls-10" d="M1076,194c-75.61-20.5-109.76,16.91-138.35,78.12C908.39,334.64,853.42,430,825.34,471.41S668.7,631.1,709.08,674.22c38.74,24.79,76.61-11.39,76.61-11.39s.31,38.37,38.83,48.82,61-21.74,61-21.74-9.06,35.84,28.44,46,80.76-19.46,80.76-19.46-12.41,50.22,39.49,52.07c45.51,1.62,96.13-75,136.46-146C1210.6,552.28,1292.89,252.81,1076,194Z" transform="translate(-700.8 -187.83)"/><path class="cls-11" d="M1162.74,326.58c-17.92,4.83-32.12,38-22.33,59.38s34.47,36.05,55.4,21.5C1217,392.74,1182.91,321.15,1162.74,326.58Z" transform="translate(-700.8 -187.83)"/><path class="cls-11" d="M1140.18,323.58c-6.11-17.53-35.12-31.34-71.48-.69-37.3,31.45-2.48,106.83,44.94,69.84C1123.91,384.72,1151.86,355.08,1140.18,323.58Z" transform="translate(-700.8 -187.83)"/><path d="M1168.3,340.55c-19.26-3.66-31.31,52.27,1.8,56.58C1196.77,400.6,1193.59,345.36,1168.3,340.55Z" transform="translate(-700.8 -187.83)"/><path d="M1123.83,320.7s-16.78-18.57-38.23,14.56,11.78,64.85,32.62,29.1C1138.61,329.39,1123.83,320.7,1123.83,320.7Z" transform="translate(-700.8 -187.83)"/><path d="M1158.52,456.71c-5.78,15.57-23.6-5.66-33.38-9s-25.26,2.66-29.42-6.42c-4.89-10.67,7.13-20.31,23.94-16.89s43.45,15.43,39.26,30.91" transform="translate(-700.8 -187.83)"/></g></svg>