<svg id="_1" data-name=" 1" xmlns="http://www.w3.org/2000/svg" viewBox="0 0 3000 2000"><defs><style>.cls-1{fill:#fff;}.cls-2{fill:#b78377;}.cls-3{fill:#573961;}.cls-4{fill:#ffcd50;}.cls-5{fill:#f4ae11;}.cls-6{fill:#ffc4ad;}.cls-7{fill:#feefec;}.cls-8{fill:#b96b69;}.cls-9{fill:#efa087;}.cls-10{fill:#cda295;}</style></defs><rect class="cls-1" width="3000" height="2000"/><path class="cls-2" d="M1313.16,784.29s48,14.72,80.12,60,41.2,130.28,69.39,165.71,204.8-72.75,204.8-72.75l140.08-105.08-52.32-37.22s-43.19,20.45-137.16-6.26S1416.18,742.32,1313.16,784.29Z" transform="translate(0)"/><path class="cls-3" d="M752.05,1176.34c25.44,3.6,45.18,14.43,67.7,8.2,7.13-8.73,23.57-11.14,35.24-.82s11.72,25.08,4.1,33.07a39.85,39.85,0,0,1-3.45,3.43h0s-23.17,40.83-32.68,32.42l-69.24-61.21S735,1173.94,752.05,1176.34Z" transform="translate(0)"/><path class="cls-3" d="M1189.18,936a52.44,52.44,0,0,1-8.3,71.23c-.08.25-.16.5-.25.75-21.51,16.67-29.6,41.17-106.19,97.24s-218,113.74-218,113.74c-12.53,9.27-27.22,8.71-36.48-3.82s-7.8-26.66,4.72-35.93L1110.8,929.3a50.39,50.39,0,0,1,5-4.24A52.45,52.45,0,0,1,1189.18,936Z" transform="translate(0)"/><path class="cls-4" d="M1527.91,971.5A75.77,75.77,0,0,1,1493.27,1119h0c-169-31.76-353.32-104.69-353.32-104.69a52.45,52.45,0,0,1,23-102.28h0l356.28,57.77h0A76.47,76.47,0,0,1,1527.91,971.5Z" transform="translate(0)"/><path class="cls-4" d="M1578,1099.05a75.76,75.76,0,0,1,31,148.27h0c-166.53,42.73-364.42,54.67-364.42,54.67a52.44,52.44,0,0,1-22.47-102.39h0l347.24-98.44h0A76.21,76.21,0,0,1,1578,1099.05Z" transform="translate(0)"/><path class="cls-3" d="M1543.61,1584.07c-3.42-25.46,1.67-47.4-10.43-67.39-10.32-4.5-17.1-19.67-10.32-33.7s21-18.07,30.73-12.9a40.3,40.3,0,0,1,4.23,2.4h0s45.58,11.25,40.06,22.69-40.2,83.22-40.2,83.22S1545.9,1601.12,1543.61,1584.07Z" transform="translate(0)"/><path class="cls-3" d="M1196.08,1226.72a52.45,52.45,0,0,1,70.87-11c.26,0,.52,0,.78,0,21.8,16.28,47.58,17.55,122,76.42S1557.51,1472,1557.51,1472c12.27,9.6,15.65,23.91,6,36.18s-23.62,14.62-35.89,5l-317.18-209.14a52.36,52.36,0,0,1-14.41-77.34Z" transform="translate(0)"/><path class="cls-4" d="M1384.2,1282.32s119.19,106.48,171.52,177.34c-26.16,36.52-41.43,52.88-41.43,52.88s-286.71-185.88-321-216.41-4.75-76.28,6.23-84.14,51.55-21.35,107.14-5.4S1384.2,1282.32,1384.2,1282.32Z" transform="translate(0)"/><path class="cls-4" d="M827.12,1165s260.1-224.76,286.53-242.2,58.24-9.31,58.24-9.31V1019.5s-28.62,44.79-115.11,108S874,1220.91,874,1220.91Z" transform="translate(0)"/><path class="cls-5" d="M867.45,1200.35a1.2,1.2,0,0,1-1-.57,1.21,1.21,0,0,1,.4-1.65c1.4-.85,140.51-85.65,197.22-129,16-12.21,29.31-24.89,41.08-36.08,31.26-29.69,53.84-51.15,94.71-37.82,16.54,5.39,39.93,13.72,67,23.37,64.54,23,152.94,54.49,232.13,76a1.19,1.19,0,1,1-.63,2.3c-79.27-21.57-167.72-53.09-232.3-76.1-27.07-9.64-50.44-18-67-23.35-39.52-12.88-61.67,8.16-92.32,37.29-11.82,11.23-25.22,24-41.28,36.24-56.81,43.46-196,128.32-197.43,129.18A1.16,1.16,0,0,1,867.45,1200.35Z" transform="translate(0)"/><path class="cls-5" d="M1528.79,1475.86a1.18,1.18,0,0,1-.87-.38c-104.8-112.11-196.45-162.52-240.5-186.75-20.47-11.26-29.81-16.4-29.42-21,.23-2.74.76-9.14,145.36-27.22,71-8.88,142.8-16.25,143.52-16.32a1.19,1.19,0,1,1,.24,2.37c-.7.08-71.45,7.34-141.91,16.13-128,16-143.94,23-144.84,25.29-.24,3,11.69,9.61,28.21,18.69,44.15,24.29,136,74.83,241.09,187.22a1.2,1.2,0,0,1-.06,1.69A1.23,1.23,0,0,1,1528.79,1475.86Z" transform="translate(0)"/><path class="cls-5" d="M1386.38,1288.25a1.15,1.15,0,0,1-.44-.09c-33.59-13.22-71.21-15.52-71.58-15.54a1.21,1.21,0,0,1-1.13-1.27,1.19,1.19,0,0,1,1.27-1.12c.38,0,38.37,2.34,72.32,15.71a1.2,1.2,0,0,1-.44,2.31Z" transform="translate(0)"/><path class="cls-4" d="M1558.66,956.27,1509,978.43c-37.77,16.85-56.15,57.92-41.07,91.74l62.63,140.34c15.13,33.91,58.15,47.62,96,30.59l49.57-22.32c37.61-16.94,55.85-57.9,40.8-91.62L1654.36,987C1639.27,953.17,1596.42,939.42,1558.66,956.27Z" transform="translate(0)"/><path class="cls-6" d="M2052.57,674.27s-49.41,39.76-93,14.18-24-74,9.09-111.84,68.38-66.8,103-51.46,56.85,52.73,35.69,90.68S2052.57,674.27,2052.57,674.27Z" transform="translate(0)"/><path class="cls-7" d="M1816.38,695.15c28-6.46,65.76-2.23,96.28.39,19.1,1.63,38.87,5,56.75,16.11h0c16.85,10.47,31,15.1,45,34.8,28.88,40.7,72.22,76,57.42,139.13-21.61,92.16-141.26,184.61-223.66,229.77-50.15,29.67-105.33,58.4-150.22,94.32-34.52-19.74-80.59-87.84-100.66-117.08s-69-93.52-68.5-129.61c29.77-21.28,94.24-50.29,117.55-63.19,20.17-11.15,4.08-2.57,4.08-2.57,18-8.84,42-33.6,50-42.82C1732.78,817.17,1772.36,705.3,1816.38,695.15Z" transform="translate(0)"/><path class="cls-6" d="M1466.13,389s40,76,135.15,161.4h0a44.6,44.6,0,0,1-55.62,69.74,46,46,0,0,1-5.45-5.15h0s-75.83-78.51-122.58-211a25.44,25.44,0,1,1,48.5-14.94Z" transform="translate(0)"/><path class="cls-6" d="M1454,344.17c9.58,18.24,11.07,41.55,11.07,41.55s3.51,18.35-14.78,27.53S1417,402.2,1417,402.2s-46.94-77.46-45.65-80.46,5.31.22,5.31.22-7.07-12.23-4.75-15.13,7.68-.46,7.68-.46-3.86-7.09-1.41-9.24,10.33,5.39,10.33,5.39-3.58-6.52-.15-10.36,34.56,30.49,39.84,37.62c1.58,2.13,4.32,6.72,7.4,12.1h0c8.62,3.65-5.85-23.66-2.51-26.48S1444.42,325.92,1454,344.17Z" transform="translate(0)"/><path class="cls-6" d="M2018.48,1314.94s61.76-59.67,117.09-175h0a44.6,44.6,0,0,1,82.52,33.86,44.07,44.07,0,0,1-3.42,6.67h0s-54.13,94.79-168.28,176.79a25.44,25.44,0,1,1-27.92-42.37Z" transform="translate(0)"/><path class="cls-6" d="M1978.84,1339.14c14.83-14.31,36.78-22.27,36.78-22.27s16.64-8.51,30.57,6.48-1.27,35.08-1.27,35.08-61.22,66.76-64.45,66.36-1.28-5.16-1.28-5.16-9.76,10.21-13.2,8.8-2.59-7.24-2.59-7.24-5.73,5.68-8.48,3.94,2.29-11.43,2.29-11.43-5.25,5.26-9.91,3,19.59-41.71,25-48.78c1.61-2.11,5.24-6,9.55-10.49h0c1.08-9.3-21.08,12.25-24.73,9.83S1964,1353.45,1978.84,1339.14Z" transform="translate(0)"/><path class="cls-6" d="M1862.1,694.05a56.6,56.6,0,0,1-40.42,100.63h0s-66.59-3.14-160.91-71S1540.21,615,1540.21,615h0a44.59,44.59,0,0,1,65.1-60.92h0s28,27,98.42,70.75,135.58,58.28,135.58,58.28h0A56.51,56.51,0,0,1,1862.1,694.05Z" transform="translate(0)"/><path class="cls-7" d="M1871.06,773.61a56.55,56.55,0,0,1-49.38,21.07h0s-46.15-2.18-116-42.08l50.47-99.55c47.31,22,83.2,30,83.2,30h0a56.63,56.63,0,0,1,31.73,90.52Z" transform="translate(0)"/><path class="cls-6" d="M2004.89,900.27a56.61,56.61,0,0,1,91.31-58.51h0S2148.62,883,2186,993s35.15,158.45,35.15,158.45h0A44.6,44.6,0,0,1,2134,1168.6a45.78,45.78,0,0,1-1.17-5.33h0s-7.12-38.24-39.1-114.73-76.61-126.14-76.61-126.14h0A56.43,56.43,0,0,1,2004.89,900.27Z" transform="translate(0)"/><path class="cls-7" d="M2043.75,830.27a56.57,56.57,0,0,1,52.45,11.49h0s36.32,28.55,70.08,101.59l-98.87,51.79c-25.75-45.38-50.34-72.74-50.34-72.74h0a56.63,56.63,0,0,1,26.68-92.13Z" transform="translate(0)"/><path class="cls-6" d="M2023.13,629.62a35,35,0,0,1,19.29,45.53l-29.3,72.38-.1,0a35,35,0,0,1-63.74-28.6l28.32-70A35,35,0,0,1,2023.13,629.62Z" transform="translate(0)"/><path class="cls-8" d="M2033.57,697s-8.93-32.1,0-55.54,11.64-24.53,32.36-40.34,23.44-54.44,0-60.47-36.33-14.77-36.33-14.77-32.22,14.78-55.51,44.63c-17.73-39.16,1.34-61.51,28.6-66.41s12-45.79,50.7-59.42,58.49,21.26,58.68,36,30.72,22.89,40.53,52.32,5.45,54-10.36,68.14-22.35,37.61-36.52,56.69S2065,699.68,2033.57,697Z" transform="translate(0)"/><path class="cls-9" d="M1961.22,689.37s31.14,16,70.65,0c1,4.65,1.7,7.65,1.7,7.65s-33.43,32.56-80.67,12.9C1958.15,697,1961.22,689.37,1961.22,689.37Z" transform="translate(0)"/><path class="cls-10" d="M2025,760.57s-90.63,59.34-199,181.75c-88.07,99.52-290.18,91.34-401,127.73,47.79,137.78,84.71,216.67,159.46,232.82,187.58-44.35,467.06-294.55,539.91-430.27C2081.19,802.28,2025,760.57,2025,760.57Z" transform="translate(0)"/><path class="cls-10" d="M2064.29,856.24l31.78-24.11s46.28,55.18,70.21,93.89,64.81,198.41,61,246.38-139.54,167.34-139.54,167.34l-57.23-54s80.9-125.72,88.3-136.82S2067,1015.41,2037,966.9,2064.29,856.24,2064.29,856.24Z" transform="translate(0)"/><path class="cls-10" d="M1927.36,697.23S1857,724,1763.22,805.91c-62.41,54.54-114.81-5.28-210.86-24.91s-165.24-20.87-255.19,25.64c-1.28-21.08,0-27.62,0-27.62s75-40.7,165.5-32,206.07,46.52,251.13,41.43,125.53-105.38,125.53-105.38S1892.35,684.48,1927.36,697.23Z" transform="translate(0)"/><path class="cls-10" d="M1418.32,441.6l69.81-33.42s64.55,89.7,140.09,153.17S1805.87,671.08,1875.11,686c-38.67,40-130.79,98.34-130.79,98.34s-91.57-40.61-179.88-131.23S1418.32,441.6,1418.32,441.6Z" transform="translate(0)"/><polygon class="cls-2" points="2030.5 1285.78 2013.96 1310.49 2055.75 1357 2087.73 1339.74 2030.5 1285.78"/><polygon class="cls-2" points="1409.82 408.18 1469.6 385.47 1488.13 408.18 1418.32 441.6 1409.82 408.18"/><path class="cls-2" d="M1832.89,934.69s53.52-73.9,98.22-109.52,87.77-91.88,96-112.28c15.89,22.63,20.62,46.87,3.9,71.4S1884.39,897.75,1832.89,934.69Z" transform="translate(0)"/><path class="cls-2" d="M1751.73,814.77s76.75-55.44,113.6-80.63,65.64-32.67,89.79-29.69l6.1-15.08s-48.73-16.23-90.07,7.66S1796.92,768,1751.73,814.77Z" transform="translate(0)"/><path class="cls-2" d="M2043.33,978.62a1.2,1.2,0,0,1-1.08-.68L2018,927.81a1.2,1.2,0,0,1,2.16-1l24.27,50.13a1.2,1.2,0,0,1-.55,1.6A1.23,1.23,0,0,1,2043.33,978.62Z" transform="translate(0)"/><path class="cls-2" d="M1738.51,779.46a1.18,1.18,0,0,1-.77-.28,1.17,1.17,0,0,1-.16-1.63c1.46-1.84,57.93-45.73,69.24-54.51a1.2,1.2,0,1,1,1.47,1.89c-26.81,20.82-67.27,52.42-68.87,54.14A1.23,1.23,0,0,1,1738.51,779.46Z" transform="translate(0)"/><path class="cls-2" d="M1621.13,1288.25a1.33,1.33,0,0,1-.38-.07c-.62-.21-62.47-21.79-101.64-87.23-39-65.24-54.53-135.71-54.68-136.41a1.2,1.2,0,0,1,2.34-.5c.15.7,15.55,70.79,54.39,135.68,38.71,64.66,99.75,86,100.36,86.2a1.2,1.2,0,0,1,.75,1.51A1.21,1.21,0,0,1,1621.13,1288.25Z" transform="translate(0)"/><path class="cls-2" d="M1333.32,789.85a1.21,1.21,0,0,1-1.11-.76c-5.84-14.89-2.17-23.08-2-23.43a1.18,1.18,0,0,1,1.58-.58,1.21,1.21,0,0,1,.59,1.59c0,.1-3.36,7.73,2.07,21.55a1.2,1.2,0,0,1-.68,1.55A1.32,1.32,0,0,1,1333.32,789.85Z" transform="translate(0)"/></svg>