<?xml version="1.0" encoding="UTF-8"?>
<svg id="Calque_1" data-name="Calque 1" xmlns="http://www.w3.org/2000/svg" viewBox="0 0 3396.06 1674.68">
  <defs>
    <style>
      .cls-1 {
        fill: #f4ae11;
      }

      .cls-2 {
        fill: #727272;
      }

      .cls-3 {
        fill: #efa087;
      }

      .cls-4 {
        fill: #cda295;
      }

      .cls-5 {
        fill: #573961;
      }

      .cls-6 {
        fill: #ffc4ad;
      }

      .cls-7 {
        fill: #ddaf64;
      }

      .cls-8 {
        fill: #feefec;
      }

      .cls-9 {
        fill: #b78377;
      }

      .cls-10 {
        fill: #b96b69;
      }

      .cls-11 {
        fill: #5b5b5b;
      }

      .cls-12 {
        fill: #686868;
      }

      .cls-13 {
        fill: #ffcd50;
      }
    </style>
  </defs>
  <polygon class="cls-7" points="3396.06 1674.68 461.09 1672.69 461.09 0 3396.06 0 3396.06 1674.68"/>
  <g id="Calque_3" data-name="Calque 3">
    <path class="cls-9" d="m2183.41,842.36s48,14.72,80.13,60,41.2,130.28,69.39,165.71,204.79-72.75,204.79-72.75l140.09-105.08-52.32-37.27s-43.18,20.45-137.15-6.26-201.85-46.32-304.93-4.35Z"/>
    <path class="cls-5" d="m1622.31,1234.41c25.44,3.6,45.18,14.43,67.7,8.2,7.13-8.73,23.56-11.14,35.24-.82s11.72,25.08,4.1,33.07c-1.08,1.21-2.24,2.35-3.45,3.43h0s-23.17,40.83-32.68,32.42l-69.25-61.21s-18.69-17.53-1.66-15.09Z"/>
    <path class="cls-5" d="m2059.49,994.1c16.44,22.22,12.81,53.38-8.3,71.23-.08.25-.16.5-.25.75-21.51,16.66-29.6,41.17-106.2,97.23s-218,113.75-218,113.75c-12.53,9.26-27.22,8.7-36.49-3.82s-7.8-26.66,4.73-35.93l286.13-249.94c20.88-20.01,54.03-19.31,74.05,1.57,1.56,1.62,3.01,3.35,4.34,5.16h-.01Z"/>
    <path class="cls-13" d="m2398.17,1029.57c40.48,10.59,64.72,52,54.12,92.48-10.22,39.06-49.28,63.25-88.8,54.99h0c-169-31.76-353.31-104.69-353.31-104.69-28.06-7.19-44.97-35.76-37.79-63.81,6.89-26.89,33.54-43.75,60.79-38.47h0l356.31,57.76h0c2.92.41,5.82.99,8.68,1.74Z"/>
    <path class="cls-13" d="m2448.27,1157.12c41.15-7.57,80.65,19.64,88.22,60.79,7.32,39.76-17.87,78.25-57.22,87.48h0c-166.53,42.73-364.42,54.68-364.42,54.68-28.47,5.3-55.85-13.48-61.15-41.95-5.06-27.2,11.87-53.65,38.68-60.44h0l347.25-98.43h0c2.84-.88,5.72-1.59,8.64-2.13Z"/>
    <path class="cls-5" d="m2413.87,1642.14c-3.42-25.46,1.66-47.4-10.43-67.39-10.33-4.5-17.1-19.67-10.32-33.71s21-18.07,30.73-12.89c1.46.71,2.87,1.51,4.23,2.4h0s45.58,11.25,40.05,22.69l-40.19,83.22s-11.78,22.73-14.07,5.68Z"/>
    <path class="cls-5" d="m2066.34,1284.78c17.03-21.77,48.03-26.58,70.86-11h.79c21.8,16.29,47.58,17.56,122,76.43s167.75,179.8,167.75,179.8c12.27,9.61,15.65,23.91,6,36.19s-23.61,14.62-35.88,5l-317.18-209.14c-1.88-1.12-3.7-2.36-5.43-3.71-22.75-17.87-26.73-50.78-8.91-73.57Z"/>
    <path class="cls-13" d="m2254.49,1340.39s119.19,106.48,171.52,177.34c-26.17,36.52-41.43,52.87-41.43,52.87,0,0-286.72-185.87-321.06-216.4s-4.74-76.29,6.23-84.14,51.55-21.35,107.15-5.4,77.59,75.73,77.59,75.73Z"/>
    <path class="cls-13" d="m1697.37,1223.02s260.1-224.76,286.54-242.21,58.24-9.3,58.24-9.3v106.06s-28.62,44.79-115.11,108-182.79,93.4-182.79,93.4l-46.88-55.95Z"/>
    <path class="cls-1" d="m1737.71,1258.42c-.41,0-.78-.22-1-.57-.35-.56-.18-1.29.38-1.64,0,0,.01,0,.02-.01,1.4-.85,140.51-85.65,197.22-129,16-12.21,29.3-24.89,41.08-36.08,31.26-29.69,53.84-51.15,94.7-37.83,16.55,5.4,39.94,13.73,67,23.38,64.54,23,152.94,54.49,232.13,76,.64.18,1.01.83.84,1.47-.17.64-.82,1.01-1.46.84,0,0,0,0-.01,0-79.28-21.58-167.73-53.09-232.31-76.1-27.06-9.64-50.43-18-67-23.35-39.52-12.89-61.66,8.16-92.31,37.29-11.82,11.23-25.22,24-41.28,36.24-56.81,43.46-196,128.32-197.43,129.17-.17.11-.37.18-.57.19Z"/>
    <path class="cls-1" d="m2399.05,1533.97c-.33,0-.65-.14-.87-.38-104.8-112.11-196.45-162.52-240.5-186.75-20.47-11.26-29.81-16.4-29.42-21,.23-2.74.76-9.15,145.35-27.22,71-8.88,142.81-16.25,143.53-16.33.65-.12,1.28.31,1.4.96.12.65-.31,1.28-.96,1.4-.06.01-.13.02-.19.02-.71.07-71.45,7.34-141.91,16.13-128,16-143.94,23-144.84,25.29-.25,3,11.69,9.61,28.2,18.69,44.16,24.29,136,74.82,241.09,187.21.44.49.4,1.25-.09,1.69-.21.19-.49.3-.78.31v-.02Z"/>
    <path class="cls-1" d="m2256.64,1346.31c-.15,0-.3-.02-.44-.08-33.59-13.22-71.21-15.52-71.58-15.55-.66-.04-1.16-.6-1.12-1.26s.6-1.16,1.26-1.12h0c.38,0,38.38,2.34,72.33,15.7.61.25.91.94.67,1.55-.18.46-.62.76-1.11.76Z"/>
    <path class="cls-13" d="m2428.91,1014.34l-49.65,22.15c-37.76,16.86-56.15,57.93-41.06,91.75l62.63,140.34c15.13,33.9,58.15,47.62,96,30.59l49.58-22.32c37.61-16.94,55.85-57.9,40.8-91.63l-62.55-140.17c-15.17-33.82-57.98-47.57-95.75-30.71Z"/>
    <path class="cls-6" d="m2922.83,732.34s-49.41,39.76-93,14.18-24-74,9.08-111.84,68.38-66.8,103-51.47,56.86,52.74,35.7,90.69-54.78,58.44-54.78,58.44Z"/>
    <path class="cls-8" d="m2686.63,753.22c28-6.46,65.77-2.23,96.29.38,19.09,1.64,38.87,5,56.74,16.12h0c16.86,10.46,31,15.1,45,34.79,28.88,40.71,72.23,76,57.43,139.14-21.62,92.16-141.27,184.61-223.67,229.76-50.14,29.68-105.32,58.41-150.22,94.33-34.51-19.74-80.58-87.84-100.65-117.08s-69-93.52-68.51-129.61c29.78-21.28,94.25-50.29,117.56-63.19,20.17-11.15,4.08-2.57,4.08-2.57,18-8.84,42-33.6,50-42.82,32.35-37.23,71.94-149.1,115.95-159.25Z"/>
    <path class="cls-6" d="m2336.38,447.07s40,76,135.16,161.4h0c19.26,15.36,22.42,43.42,7.06,62.68-15.36,19.26-43.42,22.42-62.68,7.06h0c-1.96-1.57-3.78-3.29-5.45-5.16h0s-75.84-78.5-122.58-211.08c-5.13-13.08,1.31-27.84,14.39-32.97,13.08-5.13,27.84,1.31,32.97,14.39.47,1.19.84,2.41,1.12,3.65v.03Z"/>
    <path class="cls-6" d="m2324.26,402.23c9.58,18.25,11.07,41.56,11.07,41.56,0,0,3.51,18.35-14.78,27.53s-33.32-11.06-33.32-11.06c0,0-46.94-77.46-45.65-80.45s5.31.22,5.31.22c0,0-7.07-12.23-4.76-15.13s7.68-.46,7.68-.46c0,0-3.85-7.1-1.4-9.25s10.33,5.39,10.33,5.39c0,0-3.58-6.51-.15-10.35s34.56,30.48,39.84,37.62c1.57,2.13,4.32,6.72,7.4,12.1h0c8.62,3.64-5.86-23.67-2.51-26.48s11.36,10.5,20.94,28.76Z"/>
    <path class="cls-6" d="m2888.74,1372.97s61.75-59.68,117.09-175h0c9.33-22.79,35.38-33.71,58.18-24.37s33.71,35.38,24.37,58.18c-.96,2.34-2.11,4.59-3.45,6.73h0s-54.13,94.79-168.28,176.79c-11.13,8.57-27.1,6.5-35.68-4.63-8.57-11.13-6.5-27.1,4.63-35.68.99-.76,2.04-1.45,3.13-2.06v.05Z"/>
    <path class="cls-6" d="m2849.09,1397.2c14.84-14.31,36.79-22.26,36.79-22.26,0,0,16.63-8.51,30.57,6.48s-1.28,35.08-1.28,35.08c0,0-61.21,66.76-64.44,66.36s-1.29-5.16-1.29-5.16c0,0-9.75,10.21-13.19,8.8s-2.59-7.24-2.59-7.24c0,0-5.73,5.68-8.48,3.93s2.28-11.42,2.28-11.42c0,0-5.25,5.26-9.9,3s19.59-41.71,25-48.78c1.6-2.11,5.24-6,9.54-10.49h0c1.09-9.3-21.08,12.24-24.72,9.82s6.88-13.81,21.71-28.12Z"/>
    <path class="cls-6" d="m2732.36,752.12c24.45,19.48,28.47,55.09,8.99,79.54-11.87,14.9-30.44,22.82-49.41,21.09h0s-66.6-3.14-160.91-71-120.54-108.69-120.54-108.69h0c-16.43-18.36-14.86-46.55,3.49-62.98,16.23-14.52,40.56-15.2,57.58-1.61,1.4,1.14,2.74,2.36,4,3.66h0s28,27,98.42,70.75,135.58,58.28,135.58,58.28h0c8.33,1.88,16.13,5.63,22.8,10.96Z"/>
    <path class="cls-8" d="m2741.32,831.68c-11.87,14.89-30.42,22.8-49.38,21.07h0s-46.15-2.18-116-42.08l50.47-99.55c47.31,22,83.2,30,83.2,30h0c30.5,6.93,49.6,37.28,42.67,67.77-1.89,8.31-5.63,16.08-10.94,22.75l-.02.04Z"/>
    <path class="cls-6" d="m2875.15,958.33c-8.6-30.05,8.78-61.39,38.84-69.99,18.31-5.24,38.03-.92,52.47,11.49h0s52.42,41.19,89.83,151.22,35.2,158.45,35.2,158.45h0c2.71,24.48-14.94,46.53-39.42,49.23-21.62,2.39-41.81-11.16-47.79-32.06-.5-1.75-.89-3.53-1.17-5.33h0s-7.12-38.24-39.1-114.73-76.61-126.14-76.61-126.14h0c-5.71-6.36-9.9-13.93-12.25-22.14Z"/>
    <path class="cls-8" d="m2914.01,888.34c18.3-5.24,38.01-.92,52.45,11.49h0s36.32,28.55,70.07,101.58l-98.86,51.8c-25.76-45.38-50.34-72.74-50.34-72.74h0c-20.81-23.35-18.75-59.16,4.6-79.97,6.35-5.66,13.9-9.82,22.08-12.16Z"/>
    <path class="cls-6" d="m2893.38,687.69c17.88,7.26,26.52,27.63,19.29,45.53l-29.29,72.37h-.1c-8.77,17.23-29.84,24.09-47.07,15.32-16.05-8.17-23.28-27.17-16.72-43.94l28.32-70c7.26-17.9,27.66-26.53,45.57-19.28Z"/>
    <path class="cls-10" d="m2903.82,755.08s-8.92-32.09,0-55.53,11.65-24.53,32.37-40.34,23.43-54.44,0-60.47-36.33-14.77-36.33-14.77c0,0-32.22,14.78-55.51,44.63-17.73-39.16,1.34-61.51,28.6-66.42s12-45.78,50.7-59.41,58.48,21.26,58.68,36,30.71,22.9,40.52,52.33,5.46,54-10.35,68.14-22.35,37.61-36.52,56.69-40.74,41.82-72.16,39.15Z"/>
    <path class="cls-3" d="m2831.49,747.44s31.13,16,70.64,0c1,4.65,1.7,7.64,1.7,7.64,0,0-33.43,32.56-80.66,12.91l8.32-20.55Z"/>
    <path class="cls-4" d="m2895.3,818.64s-90.64,59.34-199,181.74c-88.06,99.53-290.17,91.35-401,127.74,47.79,137.78,84.71,216.67,159.46,232.82,187.58-44.35,467.06-294.55,539.9-430.28-43.17-70.31-99.36-112.02-99.36-112.02Z"/>
    <path class="cls-4" d="m2934.55,914.31l31.78-24.11s46.27,55.18,70.2,93.88,64.82,198.42,61,246.39-139.54,167.34-139.54,167.34l-57.24-54s80.91-125.72,88.31-136.81-51.78-133.55-81.76-182.06,27.25-110.63,27.25-110.63Z"/>
    <path class="cls-4" d="m2797.61,755.3s-70.38,26.75-164.12,108.67c-62.41,54.53-114.81-5.28-210.86-24.91s-165.24-20.88-255.19,25.64c-1.28-21.08,0-27.62,0-27.62,0,0,75-40.7,165.5-32,90.5,8.7,206.06,46.52,251.13,41.43s125.52-105.35,125.52-105.35c0,0,53.02,1.39,88.02,14.14Z"/>
    <path class="cls-4" d="m2288.58,499.67l69.81-33.42s64.55,89.72,140.1,153.17,177.65,109.73,246.88,124.6c-38.66,40-130.78,98.34-130.78,98.34,0,0-91.57-40.61-179.88-131.23s-146.13-211.46-146.13-211.46Z"/>
    <polygon class="cls-9" points="2900.76 1343.84 2884.22 1368.55 2926.01 1415.07 2957.99 1397.81 2900.76 1343.84"/>
    <polygon class="cls-9" points="2280.08 466.24 2339.86 443.53 2358.39 466.24 2288.58 499.67 2280.08 466.24"/>
    <path class="cls-9" d="m2703.15,992.76s53.52-73.91,98.22-109.52,87.77-91.88,96-112.29c15.89,22.64,20.62,46.88,3.9,71.41s-146.62,113.46-198.12,150.4Z"/>
    <path class="cls-9" d="m2621.98,872.83s76.76-55.43,113.61-80.62,65.64-32.67,89.78-29.69l6.11-15.08s-48.74-16.23-90.07,7.66-74.23,70.99-119.43,117.73Z"/>
    <path class="cls-9" d="m2913.59,1036.68c-.46,0-.88-.26-1.08-.67l-24.28-50.13c-.24-.62.06-1.31.67-1.56.55-.22,1.18,0,1.48.51l24.28,50.14c.29.59.04,1.3-.55,1.59-.16.08-.34.12-.52.12Z"/>
    <path class="cls-9" d="m2608.77,837.53c-.65,0-1.19-.52-1.19-1.17,0-.27.09-.53.25-.74,1.47-1.84,57.94-45.73,69.25-54.51.52-.4,1.27-.31,1.68.22.4.52.31,1.27-.22,1.67h0c-26.8,20.82-67.26,52.42-68.86,54.14-.24.25-.57.39-.91.39Z"/>
    <path class="cls-9" d="m2491.39,1346.31c-.13,0-.26-.02-.38-.06-.62-.21-62.47-21.79-101.64-87.23-39.06-65.24-54.53-135.71-54.68-136.41-.1-.66.35-1.27,1.01-1.37.6-.09,1.17.28,1.33.86.15.7,15.55,70.8,54.39,135.69,38.7,64.65,99.74,86,100.35,86.19.63.21.96.89.75,1.52-.16.48-.62.81-1.13.81Z"/>
    <path class="cls-9" d="m2203.58,847.97c-.49,0-.93-.3-1.11-.76-5.85-14.89-2.18-23.09-2-23.43.22-.63.9-.95,1.53-.73.63.22.95.9.73,1.53-.03.07-.06.14-.09.2,0,.1-3.35,7.73,2.08,21.54.24.62-.07,1.31-.68,1.55-.14.07-.3.1-.46.1Z"/>
  </g>
  <polyline class="cls-11" points="0 1674.68 0 0 550.5 0 638.48 237.52 515.82 450.22 683.82 596.89 843.82 845.72 679.82 1018.04 763.82 1108.1 622.48 1146.62 750.48 1276.89 943.67 1469.23 795.82 1492.32 678.48 1524.89 667.82 1572.89 593.15 1642.02 618.28 1674.68"/>
  <polyline class="cls-12" points="0 1674.68 0 0 500.06 37 572.53 232.85 437.1 488.19 578.04 621.98 712.28 848.95 574.69 1006.14 645.16 1088.3 526.59 1123.43 633.97 1242.26 796.06 1417.71 672.01 1438.77 573.57 1468.48 564.62 1512.27 501.98 1575.33 535.53 1612 531.06 1624.16 510.92 1646.37 441.39 1674.68"/>
  <polyline class="cls-2" points="0 1674.68 0 0 445.78 81.88 507.97 242.21 337.69 515.89 460.14 638.18 576.77 845.65 457.23 989.32 518.45 1064.42 415.44 1096.53 508.74 1205.15 649.55 1365.52 541.78 1384.77 456.26 1411.92 448.48 1451.94 394.06 1509.59 423.21 1543.1 419.33 1554.22 401.83 1574.52 355.26 1674.68"/>
</svg>