<svg xmlns="http://www.w3.org/2000/svg" xmlns:xlink="http://www.w3.org/1999/xlink" viewBox="0 0 640.43 753.64"><defs><style>.cls-1{stroke:#999;fill:url(#Dégradé_sans_nom_32);}.cls-1,.cls-3{stroke-miterlimit:10;}.cls-2{fill:#cac9d9;}.cls-3{stroke:#000;stroke-width:3px;}.cls-4{fill:#fff;}</style><linearGradient id="Dégradé_sans_nom_32" x1="980.8" y1="163.36" x2="980.8" y2="916" gradientUnits="userSpaceOnUse"><stop offset="0.69" stop-color="#f7f5ff"/><stop offset="0.74" stop-color="#f3f1fb"/><stop offset="0.78" stop-color="#e7e5ee"/><stop offset="0.83" stop-color="#d2d1d9"/><stop offset="0.88" stop-color="#b6b5bb"/><stop offset="0.93" stop-color="#919094"/><stop offset="0.98" stop-color="#656466"/><stop offset="1" stop-color="#4c4c4c"/></linearGradient></defs><g id="Face_Content"><path class="cls-1" d="M950.9,163.36c299.21,0,272.43,512.53,296.44,553.17s61,48,51.72,77.57c-25.86,60.95-75.73,3.69-97.89,29.55s-29.55,64.65-64.65,66.49c-46.11,2.43-44.32-49.87-77.57-49.87-42.48,0-31.4,75.73-92.35,75.73-44.36,0-40.63-57.26-61-59.1S863.21,890.14,817,890.14c-51.72,0-22.17-55.41-35.09-64.64-22.19-15.85-81.27,44.33-112.67,3.69s36.66-84.73,55.41-99.73C743.12,714.68,688.63,163.36,950.9,163.36Z" transform="translate(-660.58 -162.86)"/><ellipse class="cls-2" cx="915.81" cy="360.98" rx="62.7" ry="41.48" transform="translate(-238.89 1049.52) rotate(-81.38)"/><path class="cls-3" d="M908.48,407.47c-35.37-7.71-25-99.73,15-92.92,35.62,6.05,20.36,100.62-15,92.92" transform="translate(-660.58 -162.86)"/><path class="cls-4" d="M786.72,486.11c47.8,4.61,16.5,40.56,13.91,86.69-2.19,38.9,10.18,93.76-23.58,90.51C744,660.11,735.25,481.14,786.72,486.11Z" transform="translate(-660.58 -162.86)"/><path class="cls-4" d="M893.05,197.77c-2.43-24.74,125.27-26.1,125.27-.24S897.06,238.64,893.05,197.77Z" transform="translate(-660.58 -162.86)"/><ellipse class="cls-4" cx="261.69" cy="170.88" rx="13.85" ry="7.85"/><path d="M925.05,454.52c1.84-20.32,29.79-.87,42.48,0s29.09-11.27,36.94-1.85c9.23,11.08-1.93,26.37-23,27.73s-56.47-4.33-56.47-24" transform="translate(-660.58 -162.86)"/><ellipse class="cls-2" cx="1022.94" cy="360.48" rx="41.48" ry="62.7" transform="translate(-703.04 -5.54) rotate(-8.62)"/><path class="cls-3" d="M1030.27,407c35.37-7.7,25-99.72-15-92.92-35.62,6.06-20.36,100.63,15,92.92" transform="translate(-660.58 -162.86)"/><ellipse class="cls-4" cx="355.89" cy="170.38" rx="13.85" ry="7.85"/></g></svg>