<svg xmlns="http://www.w3.org/2000/svg" xmlns:xlink="http://www.w3.org/1999/xlink" viewBox="0 0 1728.7 1134.76"><defs><style>.cls-1{stroke:#999;fill:url(#Dégradé_sans_nom_32);}.cls-1,.cls-3{stroke-miterlimit:10;}.cls-2{fill:#cac9d9;}.cls-3{stroke:#000;stroke-width:3px;}.cls-4{fill:#fff;}.cls-5{fill:#496c7c;}.cls-6{fill:#182734;}</style><linearGradient id="Dégradé_sans_nom_32" x1="999.44" y1="23.88" x2="999.44" y2="1026.14" gradientTransform="translate(45.92 -79.4) rotate(4.66)" gradientUnits="userSpaceOnUse"><stop offset="0.69" stop-color="#f7f5ff"/><stop offset="0.74" stop-color="#f3f1fb"/><stop offset="0.78" stop-color="#e7e5ee"/><stop offset="0.83" stop-color="#d2d1d9"/><stop offset="0.88" stop-color="#b6b5bb"/><stop offset="0.93" stop-color="#919094"/><stop offset="0.98" stop-color="#656466"/><stop offset="1" stop-color="#4c4c4c"/></linearGradient></defs><g id="Calque_4" data-name="Calque 4"><path class="cls-1" d="M1000.45,22.3C1397.58,54.65,1306.62,732,1334.1,788.55s75.7,70.33,60.25,108.55c-40.91,78.11-100.91-3.28-133.12,28.64s-46.21,82.61-93,81.27c-61.46-1.77-53.44-71-97.57-74.58-56.38-4.59-49.86,97.12-130.75,90.53-58.89-4.8-47.75-80.39-74.51-85s-59.93,39.54-121.26,34.54c-68.64-5.59-23.43-75.94-39.59-89.59-27.74-23.44-112.66,50-149.94-7.28S612.44,767.09,639,749.2C665.06,731.59,652.34-6,1000.45,22.3Z" transform="translate(-545.57 -21.01)"/><ellipse class="cls-2" cx="957.42" cy="277.91" rx="83.49" ry="55.23" transform="translate(-78.45 1124.94) rotate(-76.73)"/><ellipse class="cls-2" cx="1046.92" cy="300" rx="38.65" ry="58.43" transform="translate(-586.78 234.22) rotate(-13.63)"/><path class="cls-3" d="M1042.26,257.63c33-3.54,44.15,71.48,11,73.72S1005.23,261.61,1042.26,257.63Z" transform="translate(-545.57 -21.01)"/><path class="cls-3" d="M942.65,338.81c-46.1-14.05-22.44-135.07,30-121.71,46.62,11.88,16.15,135.75-30,121.71" transform="translate(-545.57 -21.01)"/><path class="cls-4" d="M747.64,432.93c63,11.29,17.52,55.61,9.08,116.57-7.11,51.39,3.38,125.54-41.07,117.57C672.07,659.26,679.86,420.77,747.64,432.93Z" transform="translate(-545.57 -21.01)"/><path class="cls-4" d="M919.93,61.72c-.55-33.09,169.09-21.1,166.3,13.22S920.84,116.4,919.93,61.72Z" transform="translate(-545.57 -21.01)"/><ellipse class="cls-4" cx="968.94" cy="242.45" rx="10.45" ry="18.45" transform="matrix(0.08, -1, 1, 0.08, 103.06, 1167.5)"/><ellipse class="cls-4" cx="1048.01" cy="279.12" rx="9.84" ry="14.14" transform="matrix(0.08, -1, 1, 0.08, 139.16, 1280)"/><path class="cls-3" d="M976.22,394.1s19.59-11.89,36.15-3.14,10.9,17.63-2.38,29.15-34.93,24.1-43.32-3.53C962.14,401.68,976.22,394.1,976.22,394.1Z" transform="translate(-545.57 -21.01)"/></g><g id="Calque_2" data-name="Calque 2"><path class="cls-5" d="M1256.52,718.58s-61.28-300,245.12-338.66c155.78-19.67,301.28,14.45,406.69,52.76,133,48.35,245.4,141.8,314.49,265.35,30.12,53.86,52.5,114,51.41,172.77-1.57,84.9-84,151.26-168.16,197-108.56,59-230.61,88.32-354.17,88-86.4-.24-191.91-11.68-285.73-53.38C1263,1012.07,1256.52,718.58,1256.52,718.58Z" transform="translate(-545.57 -21.01)"/><g id="Calque_3" data-name="Calque 3"><path class="cls-6" d="M1264.54,791.25s-75.32-280.09,114.76-374,461.51-5.46,461.51-5.46-413.35-24-435.92,95.38S1298.35,352.9,1264.54,791.25Z" transform="translate(-545.57 -21.01)"/></g></g></svg>