<svg id="Calque_2" data-name="Calque 2" xmlns="http://www.w3.org/2000/svg" xmlns:xlink="http://www.w3.org/1999/xlink" viewBox="0 0 3043.77 3582.51"><defs><style>.cls-1{stroke:#999;fill:url(#Dégradé_sans_nom_32);}.cls-1,.cls-3{stroke-miterlimit:10;}.cls-2{fill:#cac9d9;}.cls-3{stroke:#000;stroke-width:3px;}.cls-4{fill:#fff;}</style><linearGradient id="Dégradé_sans_nom_32" x1="4101.87" y1="474.59" x2="4101.87" y2="4056.1" gradientUnits="userSpaceOnUse"><stop offset="0.69" stop-color="#f7f5ff"/><stop offset="0.74" stop-color="#f3f1fb"/><stop offset="0.78" stop-color="#e7e5ee"/><stop offset="0.83" stop-color="#d2d1d9"/><stop offset="0.88" stop-color="#b6b5bb"/><stop offset="0.93" stop-color="#919094"/><stop offset="0.98" stop-color="#656466"/><stop offset="1" stop-color="#4c4c4c"/></linearGradient></defs><path class="cls-1" d="M3959.62,474.59c1423.82,0,1296.38,2438.94,1410.64,2632.3s290,228.52,246.09,369.14c-123.05,290-360.35,17.58-465.82,140.62s-140.62,307.62-307.61,316.41c-219.42,11.54-210.94-237.31-369.14-237.31-202.15,0-149.41,360.35-439.45,360.35-211.12,0-193.36-272.46-290-281.25s-202,158.21-421.87,158.21c-246.09,0-105.47-263.67-167-307.62C3049.84,3550,2768.72,3836.38,2619.3,3643s174.45-403.23,263.67-474.61C2970.86,3098.1,2711.59,474.59,3959.62,474.59Z" transform="translate(-2579.99 -474.09)"/><ellipse class="cls-2" cx="3792.63" cy="1415.01" rx="298.35" ry="197.37" transform="translate(-754.59 4478.76) rotate(-81.38)"/><path class="cls-3" d="M3757.72,1636.19c-168.29-36.65-119.12-474.53,71.38-442.16,169.51,28.81,96.92,478.82-71.38,442.16" transform="translate(-2579.99 -474.09)"/><path class="cls-4" d="M3178.36,2010.42c227.46,21.94,78.5,193,66.15,412.55-10.41,185.11,48.47,446.17-112.19,430.67C2974.85,2838.44,2933.4,1986.78,3178.36,2010.42Z" transform="translate(-2579.99 -474.09)"/><path class="cls-4" d="M3684.3,638.33c-11.56-117.71,596.12-124.19,596.12-1.15S3703.4,832.84,3684.3,638.33Z" transform="translate(-2579.99 -474.09)"/><ellipse class="cls-4" cx="1243.41" cy="811.28" rx="65.92" ry="37.35"/><path d="M4135.21,2078.29c141.11-16.58,191.8-38.38,175.78-131.83-52.73-307.62-457-228.52-421.87,52.73C3899.58,2082.9,3994.11,2094.88,4135.21,2078.29Z" transform="translate(-2579.99 -474.09)"/><ellipse class="cls-2" cx="4312.52" cy="1369.82" rx="197.37" ry="298.35" transform="translate(-2736.54 187.46) rotate(-8.62)"/><path class="cls-3" d="M4347.43,1591c168.3-36.66,119.12-474.54-71.38-442.17-169.51,28.81-96.91,478.82,71.38,442.17" transform="translate(-2579.99 -474.09)"/><ellipse class="cls-4" cx="1701.77" cy="766.1" rx="65.92" ry="37.35"/></svg>