<svg xmlns="http://www.w3.org/2000/svg" xmlns:xlink="http://www.w3.org/1999/xlink" viewBox="0 0 1592.04 1015.03"><defs><style>.cls-1{fill:#496c7c;}.cls-2{fill:#182734;}.cls-3{stroke:#999;fill:url(#Dégradé_sans_nom_32);}.cls-3,.cls-5{stroke-miterlimit:10;}.cls-4{fill:#cac9d9;}.cls-5{stroke:#000;stroke-width:3px;}.cls-6{fill:#fff;}</style><linearGradient id="Dégradé_sans_nom_32" x1="805.11" y1="141.8" x2="805.11" y2="415.35" gradientTransform="translate(20.15 -52.54) rotate(3.79)" gradientUnits="userSpaceOnUse"><stop offset="0.69" stop-color="#f7f5ff"/><stop offset="0.74" stop-color="#f3f1fb"/><stop offset="0.78" stop-color="#e7e5ee"/><stop offset="0.83" stop-color="#d2d1d9"/><stop offset="0.88" stop-color="#b6b5bb"/><stop offset="0.93" stop-color="#919094"/><stop offset="0.98" stop-color="#656466"/><stop offset="1" stop-color="#4c4c4c"/></linearGradient></defs><g id="Calque_2" data-name="Calque 2"><path class="cls-1" d="M1256.52,718.58s-61.28-300,245.12-338.66c155.78-19.67,301.28,14.45,406.69,52.76,133,48.35,245.4,141.8,314.49,265.35,30.12,53.86,52.5,114,51.41,172.77-1.57,84.9-84,151.26-168.16,197-108.56,59-230.61,88.32-354.17,88-86.4-.24-191.91-11.68-285.73-53.38C1263,1012.07,1256.52,718.58,1256.52,718.58Z" transform="translate(-682.23 -140.73)"/><g id="Calque_3" data-name="Calque 3"><path class="cls-2" d="M1264.54,791.25s-75.32-280.09,114.76-374,461.51-5.46,461.51-5.46-413.35-24-435.92,95.38S1298.35,352.9,1264.54,791.25Z" transform="translate(-682.23 -140.73)"/></g></g><g id="Calque_4" data-name="Calque 4"><path class="cls-3" d="M803.3,141.38c108.52,7.18,86.5,192.42,94.24,207.73s21,18.88,16.89,29.37c-10.84,21.49-27.55-.48-36.21,8.37s-12.27,22.74-25,22.56c-16.78-.22-14.88-19.15-26.93-19.94-15.41-1-13.21,26.71-35.31,25.24-16.09-1.06-13.37-21.74-20.69-22.89s-16.19,11-33,9.93c-18.76-1.24-6.71-20.63-11.18-24.29-7.66-6.28-30.53,14.13-41-1.36s15.33-29.85,22.49-34.84S708.18,135.09,803.3,141.38Z" transform="translate(-682.23 -140.73)"/><ellipse class="cls-4" cx="785.83" cy="212.21" rx="22.79" ry="15.08" transform="translate(-272.42 793.4) rotate(-77.6)"/><path class="cls-5" d="M782.06,228.89c-12.65-3.64-6.69-36.77,7.67-33.34,12.77,3,5,37-7.67,33.34" transform="translate(-682.23 -140.73)"/><path class="cls-6" d="M736,254.49c17.23,2.82,5,15.1,3,31.78-1.73,14.05,1.44,34.24-10.73,32.25C716.33,316.57,717.46,251.45,736,254.49Z" transform="translate(-682.23 -140.73)"/><path class="cls-6" d="M781.49,152.47c-.29-9,46.06-6.46,45.44,2.92S782,167.39,781.49,152.47Z" transform="translate(-682.23 -140.73)"/><ellipse class="cls-6" cx="788.83" cy="202.48" rx="2.85" ry="5.03" transform="translate(-147.51 835.49) rotate(-86.21)"/><path d="M786.94,246.35c1.15-7.32,10.82.4,15.4,1s10.82-3.39,13.44.22c3.09,4.24-1.33,9.51-9,9.5s-20.38-2.92-19.91-10.07" transform="translate(-682.23 -140.73)"/><ellipse class="cls-4" cx="824.7" cy="214.6" rx="15.08" ry="22.79" transform="translate(-697.37 -70.51) rotate(-4.83)"/><path class="cls-5" d="M826.24,231.63c13-1.94,11.47-35.56-3.21-34.06-13.06,1.34-9.8,36,3.21,34.06" transform="translate(-682.23 -140.73)"/><ellipse class="cls-6" cx="823" cy="204.56" rx="2.85" ry="5.03" transform="translate(-117.67 871.53) rotate(-86.21)"/></g></svg>