<svg xmlns="http://www.w3.org/2000/svg" xmlns:xlink="http://www.w3.org/1999/xlink" viewBox="0 0 1616.01 1055.77"><defs><style>.cls-1{fill:#496c7c;}.cls-2{fill:#182734;}.cls-3{stroke:#999;fill:url(#Dégradé_sans_nom_32);}.cls-3,.cls-5{stroke-miterlimit:10;}.cls-4{fill:#cac9d9;}.cls-5{stroke:#000;stroke-width:3px;}.cls-6{fill:#fff;}</style><linearGradient id="Dégradé_sans_nom_32" x1="908.31" y1="101.2" x2="908.31" y2="649.19" gradientTransform="translate(42.05 -85.97) rotate(5.59)" gradientUnits="userSpaceOnUse"><stop offset="0.69" stop-color="#f7f5ff"/><stop offset="0.74" stop-color="#f3f1fb"/><stop offset="0.78" stop-color="#e7e5ee"/><stop offset="0.83" stop-color="#d2d1d9"/><stop offset="0.88" stop-color="#b6b5bb"/><stop offset="0.93" stop-color="#919094"/><stop offset="0.98" stop-color="#656466"/><stop offset="1" stop-color="#4c4c4c"/></linearGradient></defs><g id="Calque_2" data-name="Calque 2"><path class="cls-1" d="M1256.52,718.58s-61.28-300,245.12-338.66c155.78-19.67,301.28,14.45,406.69,52.76,133,48.35,245.4,141.8,314.49,265.35,30.12,53.86,52.5,114,51.41,172.77-1.57,84.9-84,151.26-168.16,197-108.56,59-230.61,88.32-354.17,88-86.4-.24-191.91-11.68-285.73-53.38C1263,1012.07,1256.52,718.58,1256.52,718.58Z" transform="translate(-658.25 -100)"/><g id="Calque_3" data-name="Calque 3"><path class="cls-2" d="M1264.54,791.25s-75.32-280.09,114.76-374,461.51-5.46,461.51-5.46-413.35-24-435.92,95.38S1298.35,352.9,1264.54,791.25Z" transform="translate(-658.25 -100)"/></g></g><g id="Calque_4" data-name="Calque 4"><path class="cls-3" d="M914.52,101.12c216.81,21.22,161,390.72,175.57,421.87s40.76,39.12,32,59.88c-23.06,42.33-55.13-2.7-73,14.47s-26,44.74-51.56,43.59c-33.58-1.51-28.58-39.28-52.67-41.64-30.78-3-28.13,52.65-72.29,48.33-32.15-3.15-25.38-44.38-40-47.16s-33.12,21.08-66.6,17.81c-37.48-3.67-12.13-41.73-20.85-49.34-15-13.06-62,26.36-81.9-5.31s32.58-58.8,47.23-68.34C724.85,485.88,724.47,82.52,914.52,101.12Z" transform="translate(-658.25 -100)"/><ellipse class="cls-4" cx="874.18" cy="249.08" rx="39.69" ry="30.2" transform="translate(-143.27 984.08) rotate(-82.63)"/><path class="cls-5" d="M870.34,277.13c-25.91-4.68-20.79-62.12,8.48-58,26,3.66,17.42,62.7-8.48,58" transform="translate(-658.25 -100)"/><path class="cls-6" d="M772.53,324.68c34.31,6.74,9.07,30.56,3.92,63.81-4.34,28,.73,68.67-23.5,63.91C729.19,447.74,735.58,317.43,772.53,324.68Z" transform="translate(-658.25 -100)"/><path class="cls-6" d="M870,123.29c0-18.1,92.63-10,90.8,8.71S870,153.19,870,123.29Z" transform="translate(-658.25 -100)"/><ellipse class="cls-6" cx="875.71" cy="226.7" rx="4.89" ry="10.09" transform="translate(-93.48 976.17) rotate(-84.41)"/><path d="M871.15,335.9c.39-4,1.09-13.26,10.55-11.13,10.58,2.39,36.43,14.38,37.5,17.19,1,2.51-15.24,3.91-29.84,1.13-15.06-2.87-18.21-7.19-18.21-7.19" transform="translate(-658.25 -100)"/><ellipse class="cls-4" cx="949.8" cy="273.04" rx="25.51" ry="18.94" transform="translate(-49.47 1100.61) rotate(-85.85)"/><path class="cls-5" d="M947.69,292.06c16.43,1.6,22.46-35.51,4.07-38.07-16.36-2.27-20.51,36.47-4.07,38.07" transform="translate(-658.25 -100)"/><ellipse class="cls-6" cx="951.69" cy="259.07" rx="3.18" ry="6.35" transform="translate(-33.78 1089.53) rotate(-85.85)"/><path class="cls-4" d="M845.37,205.47c-2.07,1.88.51,5.1,3,3.9,7.08-3.36,19.1-15.7,31.28-15.86,15.85-.21,25.47,23.08,31.75,20.68,5.62-2.16-16.45-25.73-31.23-26C868.08,187.91,851.72,199.68,845.37,205.47Z" transform="translate(-658.25 -100)"/></g></svg>