<svg id="Calque_2" data-name="Calque 2" xmlns="http://www.w3.org/2000/svg" xmlns:xlink="http://www.w3.org/1999/xlink" viewBox="0 0 2503.05 3531.73"><defs><style>.cls-1{stroke:#999;fill:url(#Dégradé_sans_nom_32);}.cls-1,.cls-3{stroke-miterlimit:10;}.cls-2{fill:#fff;}.cls-3{stroke:#000;stroke-width:3px;}.cls-4{fill:#cac9d9;}</style><linearGradient id="Dégradé_sans_nom_32" x1="5185.6" y1="475.87" x2="5185.6" y2="4006.59" gradientTransform="matrix(-1, 0, 0, 1, 9281.6, 0)" gradientUnits="userSpaceOnUse"><stop offset="0.69" stop-color="#f7f5ff"/><stop offset="0.74" stop-color="#f3f1fb"/><stop offset="0.78" stop-color="#e7e5ee"/><stop offset="0.83" stop-color="#d2d1d9"/><stop offset="0.88" stop-color="#b6b5bb"/><stop offset="0.93" stop-color="#919094"/><stop offset="0.98" stop-color="#656466"/><stop offset="1" stop-color="#4c4c4c"/></linearGradient></defs><path class="cls-1" d="M4043.39,475.88c-502.2,2-824.62,463.27-926.54,815.35-122.74,424-203.84,945.07-222.37,1241.56-19.55,312.91-139,908,83.39,1334.22,139,259.43,500.33-398.41,500.33-398.41s50.11,538,300.28,538S4099,3552,4099,3552s17.08,454.61,260.6,454.61,415.78-473.14,415.78-473.14,250.16,722.7,472.53,333.56c141.61-247.82,113.49-1376.27,27.8-1880.87C5192.3,1495.07,5042.18,471.87,4043.39,475.88Z" transform="translate(-2844.47 -475.37)"/><path class="cls-2" d="M3652.51,693.4C3622.26,468,4498.75,454.12,4495,691.19,4492.76,832.59,3677.41,878.92,3652.51,693.4Z" transform="translate(-2844.47 -475.37)"/><path class="cls-2" d="M3204.87,1990.77c239.54-25.64,74.67,261,46.33,491.06-23.76,192.93,2.4,473-166.78,491.07C2918.59,2990.65,2946.92,2018.38,3204.87,1990.77Z" transform="translate(-2844.47 -475.37)"/><path class="cls-3" d="M4019.29,1263.92s69.9-50.64,134.75-22.84,46.33,62.84,0,110.18-123.8,101.18-163.75,0C3968.74,1296.67,4019.29,1263.92,4019.29,1263.92Z" transform="translate(-2844.47 -475.37)"/><path class="cls-4" d="M4374,900.9c38.15,115.43,46.86,277.07-29.49,302.31s-208.88-95.49-247-210.91-7.18-229.46,69.18-254.7S4335.86,785.48,4374,900.9Z" transform="translate(-2844.47 -475.37)"/><path class="cls-3" d="M4186.75,779.66c122.64-23.38,221.35,307.73,97.54,326.26S4048.92,805.92,4186.75,779.66Z" transform="translate(-2844.47 -475.37)"/><ellipse class="cls-2" cx="1351.9" cy="346.15" rx="53.28" ry="37.06"/><path class="cls-4" d="M3791.73,891.63c-38.15,115.43-42.43,277.08,33.92,302.31s204.45-95.48,242.6-210.91,7.18-229.45-69.18-254.69S3829.88,776.21,3791.73,891.63Z" transform="translate(-2844.47 -475.37)"/><path class="cls-3" d="M3969.73,779.66c-122.65-23.38-207.66,307.73-83.85,326.26S4107.56,805.92,3969.73,779.66Z" transform="translate(-2844.47 -475.37)"/><ellipse class="cls-2" cx="1106.36" cy="346.15" rx="53.28" ry="37.06"/></svg>