<svg xmlns="http://www.w3.org/2000/svg" xmlns:xlink="http://www.w3.org/1999/xlink" viewBox="0 0 6487.58 4275.45"><defs><style>.cls-1{fill:#f09448;}.cls-1,.cls-5{stroke:#000;}.cls-1,.cls-2,.cls-5{stroke-miterlimit:10;}.cls-2{stroke:#999;fill:url(#Dégradé_sans_nom_32);}.cls-3{fill:#fff;}.cls-4{fill:#cac9d9;}.cls-5{stroke-width:3px;}</style><linearGradient id="Dégradé_sans_nom_32" x1="1002.79" y1="-72.84" x2="1002.79" y2="4123.2" gradientTransform="matrix(-0.99, -0.15, -0.15, 0.99, 3498.25, 293.34)" gradientUnits="userSpaceOnUse"><stop offset="0.69" stop-color="#f7f5ff"/><stop offset="0.74" stop-color="#f3f1fb"/><stop offset="0.78" stop-color="#e7e5ee"/><stop offset="0.83" stop-color="#d2d1d9"/><stop offset="0.88" stop-color="#b6b5bb"/><stop offset="0.93" stop-color="#919094"/><stop offset="0.98" stop-color="#656466"/><stop offset="1" stop-color="#4c4c4c"/></linearGradient></defs><g id="Calque_1" data-name="Calque 1"><g id="Leaf-111"><path class="cls-1" d="M6172.36,3688.09c157.37,91.09,378.17,4,461.51-2.63,73.39-5.94,113.84,20.08,113.84,20.08-75.89-61-100.44-112.87-134-154-28.75-35.22-83.05-175.47-236.71-227.23-227.14-76.49-386.42,74.42-473.7,187.12l4.35,7.7C6008.68,3490.48,5985.51,3579.9,6172.36,3688.09Z" transform="translate(-263.43 -73.07)"/><path class="cls-1" d="M6172.36,3688.09c157.37,91.09,378.17,4,461.51-2.63,73.39-5.94,113.84,20.08,113.84,20.08-75.89-61-100.44-112.87-134-154-28.75-35.22-83.05-175.47-236.71-227.23-227.14-76.49-386.42,74.42-473.7,187.12,236.83-170.65,550.17,30.2,568.52,44.1-18.68-12.92-332.16-209.05-564.17-36.4C6008.68,3490.48,5985.51,3579.9,6172.36,3688.09Z" transform="translate(-263.43 -73.07)"/><path class="cls-1" d="M5908.42,3521.73c53.68-15.24,71.27,3.86,106.33,42,30.09,32.7,71.32,77.5,156.25,126.7,121.47,70.33,280.06,35.36,385,12.21,31.54-6.94,58.74-12.95,78.12-14.49,71.43-5.78,111.87,19.49,112.25,19.73a2.65,2.65,0,0,0,3.11-4.3c-55.16-44.31-82.79-83.42-107.15-117.93-8.92-12.61-17.34-24.55-26.42-35.71-5.61-6.85-12.17-17.75-20.49-31.56-32.64-54.06-93.35-154.71-217.46-196.43-174.21-58.68-334.59,4.58-476.64,188C5900.56,3510.68,5907.21,3522.09,5908.42,3521.73Zm821.77,172.68c-18.91-7.1-51.52-15.25-96.54-11.61-19.66,1.58-47,7.61-78.77,14.6-104.13,23-261.51,57.68-381.2-11.61-84.24-48.79-125.13-93.23-155-125.71-32.43-35.25-51.49-56-98.21-46.74-16.5,4.24-12.86-4.89-4.15-14,137.83-170.89,292.4-228.93,459.92-172.52,122.25,41.18,180,137,214.57,194.19,8.44,14,15.12,25,20.94,32.17,8.93,11,17.34,22.85,26.23,35.42,22.07,31.36,46.85,66.43,92.23,105.76Z" transform="translate(-263.43 -73.07)"/></g></g><g id="Calque_2" data-name="Calque 2"><path class="cls-2" d="M2631.69,88.36c-573.08-86.83-792.43,217-950.88,691C1519,1263.67,1195.54,2011.05,1024.17,2339S7.75,3645.08,341,3927.85c305.65,149.5,553.42-148.42,553.42-148.42s34.73,281.78,326.67,326,430.22-211.33,430.22-211.33-36.26,271,247.93,314.09S2476.34,3997,2476.34,3997s-48.77,379.55,334.2,349.29c335.85-26.54,643.13-632.58,879.58-1188.51C3924,2608,4275.8,337.49,2631.69,88.36Z" transform="translate(-263.43 -73.07)"/><path class="cls-3" d="M3603.37,2294.58c-275-72.28-174.73,191.54-254.8,453.18-67.51,220.6-248.6,500-54.37,551.09C3484.58,3348.89,3899.52,2372.41,3603.37,2294.58Z" transform="translate(-263.43 -73.07)"/><path class="cls-3" d="M3150.91,428.66c36.17-142.66-710.24-263.92-733.17-112.54S3091.15,664.39,3150.91,428.66Z" transform="translate(-263.43 -73.07)"/><ellipse class="cls-4" cx="3073.23" cy="1274.74" rx="371.24" ry="245.59" transform="translate(681.84 3759.3) rotate(-72.77)"/><ellipse class="cls-4" cx="3512.62" cy="1440.87" rx="171.87" ry="259.81" transform="translate(-455.6 537.7) rotate(-9.67)"/><path class="cls-5" d="M3505,1251.47c147.26-5.59,173.9,330.65,26.14,330.38S3339.45,1257.74,3505,1251.47Z" transform="translate(-263.43 -73.07)"/><path class="cls-5" d="M2989.05,1540.34c-200.21-76.46-58.09-606,170.24-530.67,203.18,67,30,607.14-170.24,530.67" transform="translate(-263.43 -73.07)"/><ellipse class="cls-3" cx="3135.25" cy="1120.98" rx="46.48" ry="82.02" transform="translate(1293.78 3979.83) rotate(-81.38)"/><ellipse class="cls-3" cx="3523.85" cy="1348.55" rx="43.74" ry="62.88" transform="translate(1399.16 4557.52) rotate(-81.38)"/><path class="cls-5" d="M3058.07,1919.13s90.52-46.74,161.29-2.83,42.95,81.53-19.48,128.57-162.37,96.19-191.1-28.95C2993.28,1948.4,3058.07,1919.13,3058.07,1919.13Z" transform="translate(-263.43 -73.07)"/></g></svg>