<svg id="Calque_1" data-name="Calque 1" xmlns="http://www.w3.org/2000/svg" viewBox="0 0 749.07 381.21"><defs><style>.cls-1{fill:#fff;stroke:#1d1d1b;stroke-miterlimit:10;}</style></defs><path class="cls-1" d="M1124.24,683.59c17.38-1.22,33.44-9.61,48.29-23.21-6.11-2.17-11.38-3.94-16.58-5.89-14.59-5.44-23.78-16.27-27.17-30.93-4.43-19.15-7.51-38.63-10.81-58-3.89-22.81-7.14-45.73-11.16-68.51-2.13-12.07-7.19-14-18.18-8.07-5.88,3.17-8.72,2-8.11-4.59a82,82,0,0,1,5-22.1c14.34-36.76,56.6-59.35,93.45-50.92,21.39,4.9,33.22,19.32,37.8,39.19,4.92,21.29,7.66,43.08,10.93,64.72,3.21,21.18,5.8,42.45,8.85,63.66,1.19,8.24,7,10.94,13.77,6a57.38,57.38,0,0,0,12.36-12.53c4.45-6.16,7.79-13.12,11.78-19.62,7.33-12,8.38-21.4-2.35-34.14-19.82-23.53-21.18-51.75-9.91-80.16,7.49-18.85,26.19-30.67,43.31-28.34,19.27,2.62,34.26,18.62,37.74,39.23,5,29.48-1.65,57.32-11.4,84.68-17.6,49.36-45.65,92.23-83.1,128.67-28.19,27.43-60,49.71-98.44,60.79-24.51,7.07-49.38,9.63-74.36,1.84-24.68-7.7-42.26-28.71-42.8-51.06-.47-20,8.71-35.32,24.39-40.77,17.39-6,39.25-.16,49.65,15.32C1114,658.82,1118,670.59,1124.24,683.59Z" transform="translate(-596.42 -349.4)"/><path class="cls-1" d="M963,477.8c2.41-5.07,4.2-9,6.14-12.9,5.53-11,10.24-22.51,16.88-32.78,12.74-19.7,34-25.49,55-16.28,17.74,7.81,28.34,29.6,23.24,50.22-2.07,8.4-5.4,17.16-10.5,24-11,14.84-28.43,17.94-46.44,8.82-7.14-3.62-10.62-1.33-16.57,2.77-13.72,9.44-13.7,19.75-6.66,33,6.81,12.78,12,26.45,18.93,39.14,5.39,9.82,11.67,11.1,21.78,6.76s14.74-1.06,13.2,9.8c-3,21.33-16.65,35.31-33.89,46-21.24,13.17-44.26,15.63-68.22,8.45-13-3.88-22.15-12.94-29.5-23.56-6.54-9.47-11.71-19.9-17.48-29.91-1.28-2.22-2.54-4.45-5-8.68-3.06,6.72-4.94,11.67-7.47,16.26-6.63,12-12.47,24.7-20.61,35.64-11.42,15.35-28.22,17.57-45.39,12-15.59-5-25.32-16.22-28.22-33-2.34-13.55.47-25.94,6.93-37.64,10.1-18.33,30.66-24,51.18-13.58,5.9,3,9.88,2.78,14-2,1.78-2,3.57-4.32,5.86-5.59,10.24-5.69,9.08-13.32,4.93-22.32-6.78-14.73-12.35-30-19.66-44.49-5.49-10.83-11.94-12.17-23.25-7.52-9.82,4-14.09,1-12.85-9.72,1.52-13,7.9-24,17.09-32.84,23.76-22.95,51.48-31.93,84.05-22.13,11.67,3.51,20.47,11.17,27.29,20.53,7.8,10.69,14.12,22.46,21,33.79C960.15,472.12,961.17,474.34,963,477.8Z" transform="translate(-596.42 -349.4)"/><path class="cls-1" d="M670.09,646.23q-27,0-54.06,0c-2.71,0-5.91.57-8-.64-4.21-2.43-10.46-5.5-11-9-.7-4.65,2-12.86,5.53-14.56C622,612.7,626.93,595.11,632,576.75c12.11-44.12,24.85-88.07,37.34-132.09,4.09-14.44,8.31-28.85,12.2-43.35a30.46,30.46,0,0,0-4.22-26.06c-7.73-11.62-3.67-21,10-24A72.93,72.93,0,0,1,702.77,350c33.08-.11,66.16-.15,99.23.05a47.05,47.05,0,0,1,15.18,2.34c7.84,2.77,9.67,8.78,5.24,15.92-1.89,3.06-4.4,6.42-7.47,7.95-16.12,8-21.22,22.81-25.58,38.62C776,463.51,762.18,512,748.58,560.6c-3.39,12.08-6.47,24.26-10,36.3-2.42,8.24-1.34,15.86,4,22.32,10.72,13,3.26,26.12-13.24,26.64-19.73.62-39.49.15-59.23.15Z" transform="translate(-596.42 -349.4)"/></svg>