<svg id="Calque_2" data-name="Calque 2" xmlns="http://www.w3.org/2000/svg" viewBox="0 0 1094.27 769.94"><defs><style>.cls-1{fill:#496c7c;}.cls-2{fill:#182734;}</style></defs><path class="cls-1" d="M1448.82,419.62s89.49,346.12-199.45,455.17C1102.47,930.22,953,931,841.59,918.26c-140.65-16-271.69-80.7-367.68-184.74-41.84-45.37-77.61-98.62-90.25-156C365.4,494.55,430.13,410.8,501.28,346.74,593.1,264.07,705,207.1,825.19,178.64c84.07-19.91,189.35-33.37,290.3-14.69C1334.14,204.42,1448.82,419.62,1448.82,419.62Z" transform="translate(-380.53 -155.03)"/><g id="Calque_3" data-name="Calque 3"><path class="cls-2" d="M959.94,159.81S1329.82,121.58,1432.15,323c114.18,253.1-37,445-37,445s106-267.45-46.07-305.55S1523.52,250.9,959.94,159.81Z" transform="translate(-380.53 -155.03)"/></g></svg>